<svg width="7" height="16" viewBox="0 0 7 16" fill="none" xmlns="http://www.w3.org/2000/svg">
<path d="M0.00236455 7.98606C0.00190822 8.23127 0.0832414 8.4689 0.232246 8.65771L5.22966 14.9544C5.39931 15.1687 5.6431 15.3035 5.90739 15.3291C6.17168 15.3546 6.43482 15.2689 6.63893 15.0908C6.84305 14.9127 6.9714 14.6567 6.99577 14.3792C7.02014 14.1017 6.93852 13.8254 6.76887 13.6111L2.29118 7.98606L6.60895 2.36104C6.69197 2.25369 6.75397 2.13018 6.79138 1.99759C6.8288 1.865 6.84088 1.72596 6.82695 1.58845C6.81302 1.45095 6.77334 1.31769 6.7102 1.19633C6.64706 1.07498 6.5617 0.967922 6.45903 0.881319C6.35626 0.785212 6.23569 0.712422 6.10489 0.667514C5.97408 0.622605 5.83585 0.606546 5.69886 0.620339C5.56187 0.634132 5.42907 0.67748 5.30877 0.74767C5.18848 0.817861 5.08328 0.913381 4.99978 1.02824L0.172277 7.32491C0.0468258 7.51915 -0.0129982 7.75193 0.00236455 7.98606Z" fill="#999999"/>
</svg>
