<svg width="102" height="45" viewBox="0 0 102 45" fill="none" xmlns="http://www.w3.org/2000/svg">
<ellipse cx="22.9342" cy="23.0248" rx="12.7565" ry="12.7314" fill="white"/>
<path d="M26.1792 25.8421L26.1792 33.6699C36.5817 33.6699 39.2043 23.9393 39.2153 19.0739C38.3705 3.97884 26.5202 0.0683434 20.7007 -1.92659e-05C19.8822 0.246094 19.6776 0.672241 19.6776 0.854549L19.5972 6.57457C31.5046 6.82069 33.9534 15.8381 33.6894 20.316L33.7699 23.8595C33.6378 25.4729 32.3507 25.8535 31.7237 25.8421L26.1792 25.8421Z" fill="url(#paint0_linear)"/>
<path d="M25.8931 19.3762L33.7363 19.3762C33.7363 8.99416 23.9865 6.3767 19.1115 6.36572C3.98669 7.20893 0.0684753 19.0359 -2.55013e-05 24.8439C0.246576 25.6608 0.673562 25.865 0.856229 25.865L6.14073 25.903C6.38733 14.019 15.4225 11.575 19.9093 11.8385L23.9065 11.8005C25.5232 11.9322 25.9045 13.2168 25.8931 13.8426L25.8931 19.3762Z" fill="url(#paint1_linear)"/>
<path d="M19.2366 19.4018V11.8041C8.54285 11.8041 6.05037 21.2528 6.03906 26.0722C6.90759 41.0248 18.886 44.9323 24.8685 45C25.7098 44.7562 25.9202 44.3341 25.9202 44.1535L25.988 38.7697C13.7472 38.5259 11.2299 30.237 11.5013 25.8013L11.4334 21.3657C11.5691 19.7675 12.8923 19.3905 13.5369 19.4018H19.2366Z" fill="url(#paint2_linear)"/>
<path d="M19.1067 25.9245L11.4331 25.9707C11.4331 36.3528 20.9455 38.9702 25.8204 38.9812C40.9453 38.138 44.9313 26.2649 44.9998 20.4568C44.7532 19.6399 44.3262 19.4357 44.1436 19.4357L39.2088 19.4357C38.3267 31.2867 29.8977 33.696 25.411 33.4325L21.0932 33.5002C19.4766 33.3685 19.0953 32.0839 19.1067 31.4581L19.1067 25.9245Z" fill="url(#paint3_linear)"/>
<path d="M62.8094 17.5481V27.8462H61.1176V20.5051L57.984 25.6836H57.778L54.6445 20.4904V27.8462H52.9527V17.5481H54.7769L57.881 22.6972L60.9999 17.5481H62.8094ZM69.7175 20.4904H71.4093L68.5847 28.0816C67.8785 29.9843 66.682 30.8866 64.9951 30.7885V29.3026C65.4953 29.3321 65.8974 29.2242 66.2014 28.979C66.5055 28.7436 66.7556 28.3709 66.9517 27.8609L67.0253 27.7138L63.9064 20.4904H65.6424L67.8344 25.8307L69.7175 20.4904ZM82.3625 17.5481V27.8462H80.6707V20.5051L77.5371 25.6836H77.3312L74.1976 20.4904V27.8462H72.5058V17.5481H74.33L77.4342 22.6972L80.553 17.5481H82.3625ZM85.5633 24.845C85.681 25.4041 85.9507 25.8356 86.3724 26.1397C86.7942 26.4339 87.3091 26.581 87.9172 26.581C88.7606 26.581 89.3932 26.277 89.8149 25.6689L91.1243 26.4339C90.3985 27.5029 89.3246 28.0374 87.9024 28.0374C86.7059 28.0374 85.7399 27.6746 85.0043 26.9488C84.2687 26.2132 83.9009 25.2864 83.9009 24.1683C83.9009 23.0698 84.2638 22.1528 84.9896 21.4172C85.7153 20.6719 86.6471 20.2992 87.7848 20.2992C88.8636 20.2992 89.7463 20.6768 90.4328 21.432C91.1292 22.1872 91.4774 23.1042 91.4774 24.183C91.4774 24.3497 91.4577 24.5704 91.4185 24.845H85.5633ZM85.5486 23.5504H89.8738C89.7659 22.9522 89.5158 22.501 89.1235 22.197C88.741 21.8929 88.2899 21.7409 87.77 21.7409C87.1816 21.7409 86.6912 21.9027 86.2989 22.2264C85.9066 22.55 85.6565 22.9914 85.5486 23.5504ZM98.6581 17.5481H100.247V27.8462H98.6581V26.787C98.0598 27.6206 97.2016 28.0374 96.0836 28.0374C95.0734 28.0374 94.2103 27.6647 93.4943 26.9194C92.7784 26.1642 92.4204 25.2472 92.4204 24.1683C92.4204 23.0797 92.7784 22.1626 93.4943 21.4172C94.2103 20.6719 95.0734 20.2992 96.0836 20.2992C97.2016 20.2992 98.0598 20.7111 98.6581 21.5349V17.5481ZM94.6712 25.8601C95.1126 26.3015 95.6667 26.5222 96.3337 26.5222C97.0006 26.5222 97.5547 26.3015 97.9961 25.8601C98.4374 25.409 98.6581 24.845 98.6581 24.1683C98.6581 23.4916 98.4374 22.9325 97.9961 22.4912C97.5547 22.04 97.0006 21.8145 96.3337 21.8145C95.6667 21.8145 95.1126 22.04 94.6712 22.4912C94.2299 22.9325 94.0092 23.4916 94.0092 24.1683C94.0092 24.845 94.2299 25.409 94.6712 25.8601Z" fill="#1F8BA7"/>
<defs>
<linearGradient id="paint0_linear" x1="35.0804" y1="21.8397" x2="27.2358" y2="2.8333" gradientUnits="userSpaceOnUse">
<stop stop-color="#0D657B"/>
<stop offset="1" stop-color="#7FDBF3"/>
</linearGradient>
<linearGradient id="paint1_linear" x1="33.7233" y1="18.6569" x2="0.0059232" y2="25.9643" gradientUnits="userSpaceOnUse">
<stop stop-color="#0C6880"/>
<stop offset="1" stop-color="#7BE4FF"/>
</linearGradient>
<linearGradient id="paint2_linear" x1="16.0136" y1="11.6478" x2="16.0136" y2="45" gradientUnits="userSpaceOnUse">
<stop stop-color="#0E5A6D"/>
<stop offset="1" stop-color="#86E4FC"/>
</linearGradient>
<linearGradient id="paint3_linear" x1="11.4331" y1="29.2085" x2="44.9998" y2="29.2085" gradientUnits="userSpaceOnUse">
<stop stop-color="#0F5162"/>
<stop offset="1" stop-color="#80DCF4"/>
</linearGradient>
</defs>
</svg>
