<svg width="20" height="20" viewBox="0 0 20 20" fill="none" xmlns="http://www.w3.org/2000/svg">
<path fill-rule="evenodd" clip-rule="evenodd" d="M8.66398 0.0389404C3.89347 0.0389404 0.0444336 3.94486 0.0444336 8.74047C0.0444336 13.5361 3.89347 17.442 8.66398 17.442C13.4345 17.442 17.2835 13.5361 17.2835 8.74047C17.2835 6.43611 16.378 4.22401 14.7627 2.59135C13.1471 0.958335 10.9535 0.0389404 8.66398 0.0389404ZM2.04443 8.74047C2.04443 5.0292 5.01817 2.03894 8.66398 2.03894C10.4161 2.03894 12.0987 2.74236 13.3409 3.99798C14.5835 5.25396 15.2835 6.95968 15.2835 8.74047C15.2835 12.4517 12.3098 15.442 8.66398 15.442C5.01817 15.442 2.04443 12.4517 2.04443 8.74047ZM17.0785 15.6705C16.6879 15.28 16.0548 15.28 15.6642 15.6705C15.2737 16.061 15.2737 16.6942 15.6642 17.0847L18.2476 19.668C18.6381 20.0586 19.2713 20.0586 19.6618 19.668C20.0523 19.2775 20.0523 18.6444 19.6618 18.2538L17.0785 15.6705Z" fill="#4B4747"/>
</svg>
