<svg width="100" height="100" viewBox="0 0 100 100" fill="none" xmlns="http://www.w3.org/2000/svg">
<path fill-rule="evenodd" clip-rule="evenodd" d="M44.4342 9.6626C25.2131 9.6626 9.68604 25.4031 9.68604 44.7523C9.68604 64.1015 25.2131 79.842 44.4342 79.842C63.6552 79.842 79.1823 64.1015 79.1823 44.7523C79.1823 35.4562 75.529 26.5345 69.0161 19.9515C62.5021 13.3674 53.6604 9.6626 44.4342 9.6626ZM15.686 44.7523C15.686 28.6562 28.5872 15.6626 44.4342 15.6626C52.0482 15.6626 59.357 18.7195 64.7508 24.1714C70.1458 29.6244 73.1823 37.0269 73.1823 44.7523C73.1823 60.8484 60.2811 73.842 44.4342 73.842C28.5872 73.842 15.686 60.8484 15.686 44.7523ZM78.6696 74.4522C77.498 73.2807 75.5985 73.2807 74.4269 74.4522C73.2553 75.6238 73.2553 77.5233 74.4269 78.6949L85.1908 89.4588C86.3624 90.6304 88.2619 90.6304 89.4335 89.4588C90.6051 88.2873 90.6051 86.3878 89.4335 85.2162L78.6696 74.4522Z" fill="#CCCCCC"/>
</svg>
