<svg width="70" height="97" viewBox="0 0 70 97" fill="none" xmlns="http://www.w3.org/2000/svg">
<path d="M40.6959 40.2825L40.6959 52.4248C56.8003 52.4248 60.8604 37.3309 60.8774 29.7839C59.5695 6.36882 41.2239 0.302964 32.2146 0.19692C30.9475 0.578688 30.6307 1.23971 30.6307 1.5225L30.5062 10.3952C48.9403 10.777 52.7314 24.7645 52.3226 31.7106L52.4472 37.2071C52.2428 39.7098 50.2502 40.3002 49.2795 40.2825L40.6959 40.2825Z" fill="url(#paint0_linear_1201_9113)"/>
<path d="M40.2532 30.2528L52.3955 30.2528C52.3955 14.1484 37.3016 10.0883 29.7546 10.0713C6.33953 11.3793 0.273665 29.7249 0.16762 38.7342C0.549387 40.0012 1.21041 40.318 1.4932 40.318L9.67425 40.3769C10.056 21.9428 24.0435 18.1517 30.9896 18.5605L37.1778 18.5015C39.6805 18.7059 40.2709 20.6985 40.2532 21.6693L40.2532 30.2528Z" fill="url(#paint1_linear_1201_9113)"/>
<path d="M29.948 30.2927V18.5073C13.3928 18.5073 9.5341 33.1639 9.5166 40.6397C10.8612 63.8337 29.4052 69.8949 38.6668 69.9999C39.9693 69.6217 40.295 68.967 40.2949 68.6868L40.4 60.3357C21.4498 59.9575 17.5526 47.1 17.9728 40.2195L17.8677 33.339C18.0778 30.8599 20.1262 30.2752 21.1241 30.2927H29.948Z" fill="url(#paint2_linear_1201_9113)"/>
<path d="M29.7469 40.4104L17.8672 40.4821C17.8672 56.5864 32.5935 60.6465 40.1405 60.6636C63.5555 59.3556 69.7264 40.9383 69.8325 31.929C69.4507 30.6619 68.7897 30.3452 68.5069 30.3452L60.8672 30.3452C59.5016 48.7281 46.4526 52.4653 39.5066 52.0566L32.8222 52.1616C30.3195 51.9573 29.7292 49.9647 29.7469 48.9939L29.7469 40.4104Z" fill="url(#paint3_linear_1201_9113)"/>
<path d="M19.8594 93H18.0469V85H17.9922L14.7344 92.9062H13.3594L10.1016 85H10.0469V93H8.22656V81.7266H10.5625L14.0156 90.2344H14.0781L17.5312 81.7266H19.8594V93ZM22.5781 96.0781C22.1562 96.0781 21.901 96.0677 21.8125 96.0469V94.5078C21.901 94.5286 22.0885 94.5391 22.375 94.5391C22.776 94.5391 23.0885 94.4557 23.3125 94.2891C23.5365 94.1224 23.7031 93.849 23.8125 93.4688C23.8125 93.4635 23.8307 93.388 23.8672 93.2422C23.9089 93.0964 23.9271 93.0182 23.9219 93.0078L20.9766 84.7188H23.1016L25.0547 91.3438H25.0859L27.0391 84.7188H29.0859L26.0938 93.3281C25.7396 94.3542 25.3021 95.0677 24.7812 95.4688C24.2604 95.875 23.526 96.0781 22.5781 96.0781ZM41.8438 93H40.0312V85H39.9766L36.7188 92.9062H35.3438L32.0859 85H32.0312V93H30.2109V81.7266H32.5469L36 90.2344H36.0625L39.5156 81.7266H41.8438V93ZM47.2109 86.0547C46.6693 86.0547 46.2161 86.2422 45.8516 86.6172C45.4922 86.987 45.2917 87.4635 45.25 88.0469H49.1172C49.0964 87.4583 48.9115 86.9792 48.5625 86.6094C48.2135 86.2396 47.763 86.0547 47.2109 86.0547ZM49.125 90.5234H50.9453C50.8203 91.3099 50.4219 91.9479 49.75 92.4375C49.0781 92.9219 48.2552 93.1641 47.2812 93.1641C46.0417 93.1641 45.0677 92.7839 44.3594 92.0234C43.651 91.2578 43.2969 90.2135 43.2969 88.8906C43.2969 87.5781 43.6484 86.526 44.3516 85.7344C45.0599 84.9427 46.0104 84.5469 47.2031 84.5469C48.375 84.5469 49.3047 84.9245 49.9922 85.6797C50.6797 86.4297 51.0234 87.4349 51.0234 88.6953V89.3281H45.2344V89.4453C45.2344 90.112 45.4219 90.6484 45.7969 91.0547C46.1771 91.4609 46.6849 91.6641 47.3203 91.6641C47.7682 91.6641 48.1536 91.5625 48.4766 91.3594C48.8047 91.151 49.0208 90.8724 49.125 90.5234ZM55.375 93.1328C54.3281 93.1328 53.4922 92.7474 52.8672 91.9766C52.2474 91.2057 51.9375 90.1641 51.9375 88.8516C51.9375 87.5443 52.2474 86.5052 52.8672 85.7344C53.4922 84.9635 54.3281 84.5781 55.375 84.5781C55.9583 84.5781 56.474 84.7161 56.9219 84.9922C57.375 85.2682 57.7135 85.6406 57.9375 86.1094H57.9844V81.7266H59.9297V93H58.0234V91.5859H57.9922C57.763 92.0599 57.4167 92.4375 56.9531 92.7188C56.4948 92.9948 55.9688 93.1328 55.375 93.1328ZM55.9609 86.1797C55.3359 86.1797 54.8411 86.4219 54.4766 86.9062C54.112 87.3854 53.9297 88.0365 53.9297 88.8594C53.9297 89.6875 54.1094 90.3411 54.4688 90.8203C54.8333 91.2995 55.3307 91.5391 55.9609 91.5391C56.5755 91.5391 57.0677 91.2969 57.4375 90.8125C57.8073 90.3281 57.9922 89.6771 57.9922 88.8594C57.9922 88.0469 57.8073 87.3984 57.4375 86.9141C57.0677 86.4245 56.5755 86.1797 55.9609 86.1797Z" fill="#1F8BA7"/>
<defs>
<linearGradient id="paint0_linear_1201_9113" x1="54.4761" y1="34.0741" x2="42.2908" y2="4.60883" gradientUnits="userSpaceOnUse">
<stop stop-color="#0D657B"/>
<stop offset="1" stop-color="#7FDBF3"/>
</linearGradient>
<linearGradient id="paint1_linear_1201_9113" x1="52.3753" y1="29.1371" x2="0.167617" y2="40.4295" gradientUnits="userSpaceOnUse">
<stop stop-color="#0C6880"/>
<stop offset="1" stop-color="#7BE4FF"/>
</linearGradient>
<linearGradient id="paint2_linear_1201_9113" x1="24.9583" y1="18.2649" x2="24.9583" y2="69.9999" gradientUnits="userSpaceOnUse">
<stop stop-color="#0E5A6D"/>
<stop offset="1" stop-color="#86E4FC"/>
</linearGradient>
<linearGradient id="paint3_linear_1201_9113" x1="17.8672" y1="45.5044" x2="69.8325" y2="45.5044" gradientUnits="userSpaceOnUse">
<stop stop-color="#0F5162"/>
<stop offset="1" stop-color="#80DCF4"/>
</linearGradient>
</defs>
</svg>
