<svg width="46" height="46" viewBox="0 0 46 46" fill="none" xmlns="http://www.w3.org/2000/svg">
<path fill-rule="evenodd" clip-rule="evenodd" d="M23.0002 0C10.2978 0 0 10.2978 0 23.0002C0 35.7025 10.2978 46.0003 23.0002 46.0003C35.7025 46.0003 46.0003 35.7025 46.0003 23.0002C46.0003 10.2978 35.7025 0 23.0002 0ZM25.0911 31.3639C25.0911 31.9184 24.8708 32.4502 24.4787 32.8424C24.0865 33.2345 23.5547 33.4548 23.0002 33.4548C22.4456 33.4548 21.9138 33.2345 21.5217 32.8424C21.1295 32.4502 20.9092 31.9184 20.9092 31.3639V25.0911H14.6365C14.0819 25.0911 13.5501 24.8708 13.158 24.4787C12.7658 24.0865 12.5455 23.5547 12.5455 23.0002C12.5455 22.4456 12.7658 21.9138 13.158 21.5217C13.5501 21.1295 14.0819 20.9092 14.6365 20.9092H20.9092V14.6365C20.9092 14.0819 21.1295 13.5501 21.5217 13.158C21.9138 12.7658 22.4456 12.5455 23.0002 12.5455C23.5547 12.5455 24.0865 12.7658 24.4787 13.158C24.8708 13.5501 25.0911 14.0819 25.0911 14.6365V20.9092H31.3639C31.9184 20.9092 32.4502 21.1295 32.8424 21.5217C33.2345 21.9138 33.4548 22.4456 33.4548 23.0002C33.4548 23.5547 33.2345 24.0865 32.8424 24.4787C32.4502 24.8708 31.9184 25.0911 31.3639 25.0911H25.0911V31.3639Z" fill="#4BCCED"/>
</svg>
