<svg width="46" height="46" viewBox="0 0 46 46" fill="none" xmlns="http://www.w3.org/2000/svg">
<path fill-rule="evenodd" clip-rule="evenodd" d="M23.0002 0C10.298 0 0.000244141 10.2977 0.000244141 23C0.000244141 35.7023 10.298 46 23.0002 46C35.7025 46 46.0002 35.7023 46.0002 23C46.0002 10.2977 35.7025 0 23.0002 0ZM14.6366 20.9091C14.0821 20.9091 13.5502 21.1294 13.1581 21.5215C12.766 21.9136 12.5457 22.4455 12.5457 23C12.5457 23.5545 12.766 24.0864 13.1581 24.4785C13.5502 24.8706 14.0821 25.0909 14.6366 25.0909H31.3639C31.9184 25.0909 32.4503 24.8706 32.8424 24.4785C33.2345 24.0864 33.4548 23.5545 33.4548 23C33.4548 22.4455 33.2345 21.9136 32.8424 21.5215C32.4503 21.1294 31.9184 20.9091 31.3639 20.9091H14.6366Z" fill="#4BCCED"/>
</svg>
