<svg width="27" height="27" viewBox="0 0 27 27" fill="none" xmlns="http://www.w3.org/2000/svg">
<path fill-rule="evenodd" clip-rule="evenodd" d="M13.5 0C6.04432 0 0 6.04432 0 13.5C0 20.9557 6.04432 27 13.5 27C20.9557 27 27 20.9557 27 13.5C27 6.04432 20.9557 0 13.5 0ZM8.59091 12.2727C8.26542 12.2727 7.95325 12.402 7.7231 12.6322C7.49294 12.8623 7.36364 13.1745 7.36364 13.5C7.36364 13.8255 7.49294 14.1377 7.7231 14.3678C7.95325 14.598 8.26542 14.7273 8.59091 14.7273H18.4091C18.7346 14.7273 19.0467 14.598 19.2769 14.3678C19.5071 14.1377 19.6364 13.8255 19.6364 13.5C19.6364 13.1745 19.5071 12.8623 19.2769 12.6322C19.0467 12.402 18.7346 12.2727 18.4091 12.2727H8.59091Z" fill="#4BCCED"/>
</svg>
