<svg width="24" height="24" viewBox="0 0 24 24" fill="none" xmlns="http://www.w3.org/2000/svg">
<path d="M22.139 10.3732L19.3686 7.80918C18.7628 7.24847 17.9676 6.93709 17.1421 6.93731H15.7265V6.65137C15.7262 6.02983 15.4792 5.43382 15.0397 4.99433C14.6003 4.55484 14.0042 4.30784 13.3827 4.30762H3.1499C2.52837 4.30784 1.93236 4.55484 1.49287 4.99433C1.05338 5.43382 0.806376 6.02983 0.806152 6.65137V17.1467C0.806511 17.2709 0.856012 17.3899 0.943842 17.4777C1.03167 17.5656 1.15069 17.6151 1.2749 17.6154H2.7374C2.83538 18.196 3.13584 18.7231 3.58548 19.1032C4.03512 19.4833 4.60487 19.6919 5.19365 19.6919C5.78243 19.6919 6.35218 19.4833 6.80182 19.1032C7.25146 18.7231 7.55192 18.196 7.6499 17.6154H16.378C16.476 18.196 16.7765 18.7231 17.2261 19.1032C17.6757 19.4833 18.2455 19.6919 18.8343 19.6919C19.423 19.6919 19.9928 19.4833 20.4424 19.1032C20.8921 18.7231 21.1925 18.196 21.2905 17.6154H22.7202C22.8444 17.6151 22.9634 17.5656 23.0513 17.4777C23.1391 17.3899 23.1886 17.2709 23.189 17.1467V12.7826C23.1905 12.3302 23.098 11.8823 22.9172 11.4676C22.7365 11.0528 22.4714 10.6801 22.139 10.3732ZM21.5015 11.0623H18.7265V8.49356L18.7311 8.49824L21.5015 11.0623ZM3.1499 5.24512H13.3827C13.7553 5.24621 14.1124 5.39471 14.3759 5.6582C14.6394 5.92169 14.7879 6.27874 14.789 6.65137V8.34356V12.0186V12.0842H1.74365V6.65137C1.74474 6.27874 1.89325 5.92169 2.15673 5.6582C2.42022 5.39471 2.77728 5.24621 3.1499 5.24512ZM5.19365 18.7545C4.88678 18.7545 4.5868 18.6635 4.33165 18.493C4.0765 18.3225 3.87763 18.0802 3.76019 17.7967C3.64276 17.5132 3.61203 17.2012 3.6719 16.9002C3.73177 16.5993 3.87954 16.3228 4.09653 16.1058C4.31352 15.8888 4.58998 15.7411 4.89096 15.6812C5.19193 15.6213 5.5039 15.652 5.78741 15.7695C6.07092 15.8869 6.31324 16.0858 6.48373 16.3409C6.65421 16.5961 6.74521 16.8961 6.74521 17.2029C6.74473 17.6143 6.58111 18.0087 6.29024 18.2995C5.99937 18.5904 5.605 18.754 5.19365 18.7545ZM5.19365 14.7092C4.6237 14.71 4.07117 14.9057 3.62778 15.2638C3.1844 15.6219 2.87683 16.1209 2.75615 16.6779H1.74365V13.0217H14.789V16.6779H7.63115C7.51112 16.1206 7.20374 15.6212 6.76021 15.2629C6.31667 14.9047 5.76378 14.7093 5.19365 14.7092ZM18.8343 18.7545C18.5274 18.7545 18.2274 18.6635 17.9723 18.493C17.7171 18.3225 17.5182 18.0802 17.4008 17.7967C17.2834 17.5132 17.2527 17.2012 17.3125 16.9002C17.3724 16.5993 17.5202 16.3228 17.7371 16.1058C17.9541 15.8888 18.2306 15.7411 18.5316 15.6812C18.8325 15.6213 19.1445 15.652 19.428 15.7695C19.7115 15.8869 19.9539 16.0858 20.1243 16.3409C20.2948 16.5961 20.3858 16.8961 20.3858 17.2029C20.3853 17.6143 20.2217 18.0087 19.9309 18.2995C19.64 18.5904 19.2456 18.754 18.8343 18.7545ZM22.2561 16.6779H21.2718C21.1518 16.1205 20.8445 15.6211 20.4009 15.2628C19.9574 14.9045 19.4044 14.7091 18.8343 14.7091C18.2641 14.7091 17.7112 14.9045 17.2676 15.2628C16.8241 15.6211 16.5167 16.1205 16.3968 16.6779H15.7265V12.0186V7.87481H17.1421C17.3607 7.87581 17.5782 7.90576 17.789 7.96387V11.0623C17.7897 11.3107 17.8887 11.5488 18.0644 11.7244C18.24 11.9001 18.478 11.9991 18.7265 11.9998H22.1202C22.2104 12.2509 22.2564 12.5158 22.2561 12.7826V16.6779Z" fill="#4BCCED" stroke="#4BCCED" stroke-width="0.5"/>
<path d="M5.19355 15.867C4.93026 15.867 4.67287 15.945 4.45395 16.0913C4.23503 16.2376 4.0644 16.4455 3.96364 16.6888C3.86288 16.932 3.83652 17.1997 3.88788 17.4579C3.93925 17.7162 4.06604 17.9534 4.25222 18.1395C4.4384 18.3257 4.6756 18.4525 4.93384 18.5039C5.19208 18.5552 5.45975 18.5289 5.703 18.4281C5.94626 18.3274 6.15417 18.1567 6.30045 17.9378C6.44673 17.7189 6.5248 17.4615 6.5248 17.1982C6.52425 16.8453 6.38381 16.507 6.13427 16.2575C5.88474 16.008 5.54645 15.8675 5.19355 15.867ZM5.19355 17.5966C5.11568 17.5966 5.03955 17.5736 4.9748 17.5303C4.91005 17.487 4.85958 17.4255 4.82978 17.3536C4.79998 17.2816 4.79218 17.2025 4.80737 17.1261C4.82256 17.0497 4.86006 16.9795 4.91513 16.9245C4.9702 16.8694 5.04036 16.8319 5.11674 16.8167C5.19312 16.8015 5.27229 16.8093 5.34424 16.8391C5.41618 16.8689 5.47768 16.9194 5.52095 16.9841C5.56421 17.0489 5.5873 17.125 5.5873 17.2029C5.58668 17.3071 5.54499 17.4069 5.47128 17.4806C5.39758 17.5543 5.29779 17.596 5.19355 17.5966ZM18.8342 15.867C18.5709 15.867 18.3135 15.945 18.0946 16.0913C17.8756 16.2376 17.705 16.4455 17.6043 16.6888C17.5035 16.932 17.4771 17.1997 17.5285 17.4579C17.5799 17.7162 17.7067 17.9534 17.8928 18.1395C18.079 18.3257 18.3162 18.4525 18.5745 18.5039C18.8327 18.5552 19.1004 18.5289 19.3436 18.4281C19.5869 18.3274 19.7948 18.1567 19.9411 17.9378C20.0873 17.7189 20.1654 17.4615 20.1654 17.1982C20.1649 16.8453 20.0244 16.507 19.7749 16.2575C19.5254 16.008 19.1871 15.8675 18.8342 15.867ZM18.8342 17.5966C18.7563 17.5966 18.6802 17.5736 18.6154 17.5303C18.5507 17.487 18.5002 17.4255 18.4704 17.3536C18.4406 17.2816 18.4328 17.2025 18.448 17.1261C18.4632 17.0497 18.5007 16.9795 18.5557 16.9245C18.6108 16.8694 18.681 16.8319 18.7574 16.8167C18.8337 16.8015 18.9129 16.8093 18.9849 16.8391C19.0568 16.8689 19.1183 16.9194 19.1616 16.9841C19.2048 17.0489 19.2279 17.125 19.2279 17.2029C19.2273 17.3071 19.1856 17.4069 19.1119 17.4806C19.0382 17.5543 18.9384 17.596 18.8342 17.5966ZM7.27949 9.95602C7.32289 10.0003 7.37466 10.0356 7.43179 10.0597C7.48893 10.0839 7.55028 10.0964 7.6123 10.0966C7.73658 10.0957 7.85574 10.0471 7.94512 9.96071L10.1998 7.70603C10.2874 7.61838 10.3367 7.49951 10.3367 7.37556C10.3367 7.25161 10.2874 7.13273 10.1998 7.04509C10.1122 6.95744 9.99328 6.9082 9.86933 6.9082C9.74538 6.9082 9.62651 6.95744 9.53887 7.04509L7.61699 8.96696L6.68418 8.0154C6.59716 7.92713 6.47863 7.87705 6.35468 7.87617C6.23073 7.87529 6.11151 7.92369 6.02324 8.01071C5.93497 8.09774 5.88489 8.21626 5.88401 8.34021C5.88313 8.46416 5.93153 8.58338 6.01855 8.67165L7.27949 9.95602Z" fill="#4BCCED"/>
</svg>
