<svg width="7" height="14" viewBox="0 0 7 14" fill="none" xmlns="http://www.w3.org/2000/svg">
<path d="M0.00236455 7.01098C0.00190822 7.24422 0.0832414 7.47026 0.232246 7.64986L5.22966 13.6394C5.39931 13.8432 5.6431 13.9714 5.90739 13.9958C6.17168 14.0201 6.43482 13.9386 6.63893 13.7692C6.84305 13.5997 6.9714 13.3562 6.99577 13.0923C7.02014 12.8283 6.93852 12.5655 6.76887 12.3616L2.29118 7.01098L6.60895 1.66034C6.69197 1.55824 6.75397 1.44075 6.79138 1.31463C6.8288 1.18851 6.84088 1.05625 6.82695 0.925449C6.81302 0.79465 6.77334 0.66789 6.7102 0.552455C6.64706 0.43702 6.5617 0.335187 6.45903 0.252809C6.35626 0.161388 6.23569 0.0921497 6.10489 0.0494318C5.97408 0.00671388 5.83585 -0.00856112 5.69886 0.00455953C5.56187 0.0176792 5.42907 0.0589123 5.30877 0.125679C5.18848 0.192445 5.08328 0.283306 4.99978 0.392566L0.172277 6.38208C0.0468258 6.56684 -0.0129982 6.78827 0.00236455 7.01098Z" fill="#26374B"/>
</svg>
