<svg width="14" height="16" viewBox="0 0 14 16" fill="none" xmlns="http://www.w3.org/2000/svg">
<path d="M8.36969 2.54947C8.36969 2.1862 8.22538 1.8378 7.96851 1.58093C7.71164 1.32406 7.36324 1.17975 6.99997 1.17975C6.6367 1.17975 6.2883 1.32406 6.03143 1.58093C5.77456 1.8378 5.63025 2.1862 5.63025 2.54947H4.7171C4.7171 1.94402 4.95762 1.36336 5.38574 0.935238C5.81386 0.507117 6.39452 0.266602 6.99997 0.266602C7.60542 0.266602 8.18608 0.507117 8.6142 0.935238C9.04232 1.36336 9.28284 1.94402 9.28284 2.54947H13.392C13.5131 2.54947 13.6292 2.59757 13.7148 2.6832C13.8005 2.76882 13.8486 2.88495 13.8486 3.00604C13.8486 3.12713 13.8005 3.24326 13.7148 3.32889C13.6292 3.41451 13.5131 3.46262 13.392 3.46262H12.8861L11.7027 13.7173C11.6512 14.1623 11.4378 14.5729 11.1033 14.8709C10.7687 15.169 10.3363 15.3336 9.88826 15.3335H4.11169C3.66365 15.3336 3.23122 15.169 2.89667 14.8709C2.56212 14.5729 2.34879 14.1623 2.29726 13.7173L1.11291 3.46262H0.607941C0.501079 3.46265 0.397591 3.4252 0.315497 3.35679C0.233404 3.28838 0.177907 3.19334 0.158672 3.08823L0.151367 3.00604C0.151367 2.88495 0.19947 2.76882 0.285095 2.6832C0.370719 2.59757 0.48685 2.54947 0.607941 2.54947H8.36969ZM11.9657 3.46262H2.03336L3.20402 13.6122C3.22979 13.8349 3.33652 14.0402 3.50389 14.1892C3.67126 14.3383 3.88759 14.4205 4.11169 14.4204H9.88826C10.1122 14.4203 10.3283 14.3379 10.4955 14.1889C10.6627 14.0399 10.7693 13.8347 10.795 13.6122L11.9657 3.46262ZM5.63025 5.74548C5.85397 5.74548 6.04117 5.88702 6.07952 6.0733L6.08682 6.14544V11.7385C6.08682 11.9585 5.88228 12.1375 5.63025 12.1375C5.40653 12.1375 5.21933 11.996 5.18098 11.8097L5.17368 11.7376V6.14636C5.17368 5.92537 5.37822 5.7464 5.63025 5.7464V5.74548ZM8.36969 5.74548C8.59341 5.74548 8.78061 5.88702 8.81896 6.0733L8.82626 6.14544V11.7385C8.82626 11.9585 8.62172 12.1375 8.36969 12.1375C8.14597 12.1375 7.95878 11.996 7.92042 11.8097L7.91312 11.7376V6.14636C7.91312 5.92537 8.11766 5.7464 8.36969 5.7464V5.74548Z" fill="#4BCCED"/>
</svg>
