<svg width="24" height="24" viewBox="0 0 24 24" fill="none" xmlns="http://www.w3.org/2000/svg">
<path d="M8.61794 22.1639C8.87794 22.3376 9.1792 22.4382 9.49019 22.456V22.4595L9.59031 22.4594C10.0543 22.4588 10.4992 22.2742 10.8272 21.946C11.1553 21.6179 11.3398 21.1729 11.3402 20.7089V20.7088C11.3402 20.3627 11.2376 20.0244 11.0453 19.7366C10.853 19.4488 10.5797 19.2245 10.2599 19.092C9.94011 18.9596 9.58825 18.9249 9.24878 18.9925C8.90931 19.06 8.59749 19.2267 8.35275 19.4714C8.10801 19.7161 7.94134 20.028 7.87381 20.3674C7.80629 20.7069 7.84094 21.0588 7.9734 21.3785C8.10585 21.6983 8.33015 21.9716 8.61794 22.1639ZM8.36446 18.8744C8.72726 18.632 9.15379 18.5026 9.59013 18.5026C10.1751 18.5033 10.7358 18.736 11.1494 19.1496C11.563 19.5632 11.7957 20.124 11.7964 20.709C11.7964 21.1453 11.667 21.5718 11.4246 21.9346C11.1822 22.2974 10.8376 22.5802 10.4345 22.7471C10.0313 22.9141 9.58774 22.9578 9.15977 22.8727C8.7318 22.7876 8.33868 22.5774 8.03013 22.2689C7.72158 21.9603 7.51146 21.5672 7.42633 21.1393C7.3412 20.7113 7.38489 20.2677 7.55188 19.8645C7.71886 19.4614 8.00164 19.1168 8.36446 18.8744Z" fill="#4B4747" stroke="#4B4747" stroke-width="0.2"/>
<path d="M9.59016 19.6045C9.37166 19.6045 9.15808 19.6694 8.97642 19.7908C8.79477 19.9122 8.6532 20.0848 8.56962 20.2866C8.48604 20.4885 8.4642 20.7107 8.50686 20.925C8.54952 21.1392 8.65477 21.3361 8.8093 21.4906C8.96383 21.645 9.1607 21.7502 9.375 21.7928C9.58931 21.8354 9.81144 21.8135 10.0133 21.7298C10.2151 21.6462 10.3877 21.5045 10.509 21.3229C10.6304 21.1412 10.6951 20.9276 10.6951 20.7091C10.6947 20.4162 10.5781 20.1354 10.371 19.9284C10.1638 19.7213 9.88304 19.6048 9.59016 19.6045ZM9.59016 21.1577C9.50147 21.1577 9.41478 21.1314 9.34106 21.0821C9.26733 21.0328 9.20987 20.9627 9.17595 20.8808C9.14203 20.7988 9.13316 20.7087 9.15047 20.6217C9.16778 20.5347 9.2105 20.4548 9.27321 20.3921C9.33592 20.3294 9.41582 20.2867 9.5028 20.2694C9.58979 20.2521 9.67995 20.2609 9.76189 20.2948C9.84384 20.3288 9.91389 20.3862 9.96318 20.46C10.0125 20.5337 10.0388 20.6204 10.0388 20.7091C10.0387 20.828 9.99144 20.9421 9.90732 21.0262C9.8232 21.1103 9.70913 21.1576 9.59016 21.1577Z" fill="#4B4747"/>
<path d="M19.8143 18.4026C19.3582 18.4026 18.9123 18.5378 18.533 18.7913C18.1538 19.0447 17.8582 19.4049 17.6836 19.8263C17.5091 20.2477 17.4634 20.7114 17.5524 21.1588C17.6414 21.6061 17.861 22.0171 18.1835 22.3396C18.5061 22.6621 18.917 22.8818 19.3644 22.9708C19.8117 23.0598 20.2754 23.0141 20.6969 22.8395C21.1183 22.665 21.4785 22.3694 21.7319 21.9901C21.9853 21.6109 22.1205 21.165 22.1205 20.7088C22.1197 20.0974 21.8765 19.5113 21.4442 19.0789C21.0118 18.6466 20.4257 18.4034 19.8143 18.4026ZM19.8143 22.3588C19.488 22.3588 19.169 22.2621 18.8976 22.0808C18.6263 21.8995 18.4148 21.6418 18.2899 21.3403C18.165 21.0388 18.1323 20.707 18.196 20.3869C18.2597 20.0669 18.4168 19.7729 18.6476 19.5421C18.8783 19.3114 19.1723 19.1542 19.4924 19.0905C19.8125 19.0269 20.1442 19.0596 20.4457 19.1844C20.7472 19.3093 21.0049 19.5208 21.1862 19.7921C21.3675 20.0635 21.4643 20.3825 21.4643 20.7088C21.4639 21.1464 21.2899 21.5659 20.9806 21.8753C20.6713 22.1848 20.2518 22.3589 19.8143 22.3594V22.3588Z" fill="#4B4747"/>
<path d="M19.8142 19.6045C19.5957 19.6045 19.382 19.6692 19.2003 19.7906C19.0186 19.912 18.877 20.0845 18.7934 20.2864C18.7097 20.4883 18.6878 20.7104 18.7304 20.9247C18.7731 21.139 18.8783 21.3359 19.0328 21.4904C19.1873 21.6449 19.3842 21.7502 19.5985 21.7928C19.8128 21.8354 20.035 21.8135 20.2368 21.7299C20.4387 21.6462 20.6112 21.5046 20.7326 21.3229C20.854 21.1412 20.9188 20.9276 20.9187 20.7091C20.9183 20.4162 20.8018 20.1356 20.5947 19.9285C20.3877 19.7215 20.107 19.6049 19.8142 19.6045ZM19.8142 21.1577C19.7255 21.1578 19.6387 21.1315 19.565 21.0823C19.4912 21.033 19.4337 20.963 19.3997 20.881C19.3657 20.7991 19.3568 20.7089 19.3741 20.6219C19.3913 20.5349 19.434 20.455 19.4967 20.3922C19.5594 20.3295 19.6393 20.2867 19.7263 20.2694C19.8133 20.2521 19.9035 20.2609 19.9854 20.2948C20.0674 20.3287 20.1375 20.3862 20.1868 20.4599C20.2361 20.5336 20.2624 20.6203 20.2625 20.7091C20.2621 20.8279 20.2148 20.9418 20.1308 21.0258C20.0468 21.1099 19.933 21.1573 19.8142 21.1577Z" fill="#4B4747"/>
<path d="M23.0083 5.00625C23.0184 4.95846 23.0178 4.90901 23.0064 4.86151C22.9949 4.81401 22.9731 4.76966 22.9423 4.7317C22.9116 4.69373 22.8728 4.66311 22.8287 4.64207C22.7846 4.62102 22.7364 4.61009 22.6875 4.61006H6.98231L6.45 2.13225C6.37888 1.80795 6.19942 1.51756 5.94117 1.3089C5.68293 1.10025 5.36131 0.985788 5.02931 0.984375H1.3125C1.2694 0.98435 1.22672 0.992821 1.1869 1.0093C1.14708 1.02578 1.1109 1.04995 1.08043 1.08043C1.04995 1.1109 1.02578 1.14708 1.0093 1.1869C0.992821 1.22672 0.98435 1.2694 0.984375 1.3125V2.57044C0.98435 2.61353 0.992821 2.65621 1.0093 2.69603C1.02578 2.73586 1.04995 2.77204 1.08043 2.80251C1.1109 2.83299 1.14708 2.85715 1.1869 2.87364C1.22672 2.89012 1.2694 2.89859 1.3125 2.89856H4.65675L7.54519 16.3472C7.61623 16.6716 7.79567 16.962 8.05392 17.1708C8.31217 17.3795 8.63382 17.494 8.96588 17.4954H20.8547C20.9417 17.4954 21.0251 17.4608 21.0867 17.3993C21.1482 17.3378 21.1828 17.2543 21.1828 17.1673V15.9094C21.1828 15.8224 21.1482 15.7389 21.0867 15.6774C21.0252 15.6158 20.9417 15.5812 20.8547 15.5812H9.33862L8.95594 13.8H20.8547C20.9297 13.8 21.0025 13.7742 21.0609 13.727C21.1192 13.6799 21.1596 13.6141 21.1753 13.5407L23.0083 5.00625ZM21.8113 7.45388H18.7551L18.99 5.26556H22.2817L21.8113 7.45388ZM21.2004 10.2984H18.45L18.6849 8.11013H21.6712L21.2004 10.2984ZM15.0304 13.1437V10.9554H17.7188L17.4836 13.1437H15.0304ZM11.9209 13.1437L11.6859 10.9554H14.3741V13.1437H11.9209ZM7.73419 8.11088H10.7203L10.9552 10.2992H8.20406L7.73419 8.11088ZM11.3805 8.11088H14.3741V10.2992H11.6154L11.3805 8.11088ZM14.3741 7.45463H11.31L11.0749 5.26631H14.3749L14.3741 7.45463ZM15.0304 5.26631H18.3304L18.0938 7.45463H15.0304V5.26631ZM15.0304 10.2992V8.11088H18.0242L17.7891 10.2992H15.0304ZM10.4149 5.26631L10.65 7.45463H7.59375L7.12313 5.26631H10.4149ZM20.5266 16.2375V16.8392H8.96588C8.78379 16.8384 8.6074 16.7756 8.46578 16.6612C8.32416 16.5467 8.22577 16.3874 8.18681 16.2096L5.24306 2.50163C5.22732 2.42822 5.18688 2.36244 5.1285 2.31525C5.07012 2.26806 4.99732 2.24232 4.92225 2.24231H1.64063V1.64063H5.02931C5.21136 1.64142 5.38771 1.70419 5.52932 1.8186C5.67093 1.93302 5.76935 2.09224 5.80838 2.27006L8.75213 15.9782C8.76786 16.0517 8.80837 16.1176 8.86687 16.1648C8.92538 16.212 8.99832 16.2377 9.0735 16.2375H20.5266ZM8.34506 10.9554H11.025L11.2609 13.1437H8.81512L8.34506 10.9554ZM20.5894 13.1437H18.1436L18.3787 10.9554H21.06L20.5894 13.1437Z" fill="#4B4747"/>
</svg>
