<svg width="19" height="18" viewBox="0 0 19 18" fill="none" xmlns="http://www.w3.org/2000/svg">
<path d="M12.4153 6.492V3.2C12.4153 1.436 10.9388 0 9.125 0C7.31121 0 5.83468 1.436 5.83468 3.2V4.4C5.83468 4.62 6.01976 4.8 6.24597 4.8C6.47218 4.8 6.65726 4.62 6.65726 4.4V3.2C6.65726 1.876 7.76363 0.8 9.125 0.8C10.4864 0.8 11.5927 1.876 11.5927 3.2V6.084C10.8339 5.772 9.99899 5.6 9.125 5.6C5.61052 5.6 2.75 8.382 2.75 11.8C2.75 15.218 5.61052 18 9.125 18C12.6395 18 15.5 15.218 15.5 11.8C15.5 9.552 14.262 7.578 12.4153 6.492ZM9.125 17.2C6.06294 17.2 3.57258 14.778 3.57258 11.8C3.57258 8.822 6.06294 6.4 9.125 6.4C12.1871 6.4 14.6774 8.822 14.6774 11.8C14.6774 14.778 12.1871 17.2 9.125 17.2ZM9.125 9.2C8.33121 9.2 7.68548 9.828 7.68548 10.6V13C7.68548 13.772 8.33121 14.4 9.125 14.4C9.91879 14.4 10.5645 13.772 10.5645 13V10.6C10.5645 9.828 9.91879 9.2 9.125 9.2ZM9.74194 13C9.74194 13.33 9.46431 13.6 9.125 13.6C8.78569 13.6 8.50806 13.33 8.50806 13V10.6C8.50806 10.27 8.78569 10 9.125 10C9.46431 10 9.74194 10.27 9.74194 10.6V13Z" fill="#1A1717"/>
</svg>
