<svg width="24" height="24" viewBox="0 0 24 24" fill="none" xmlns="http://www.w3.org/2000/svg">
<path d="M11.992 13.3222C9.06687 13.2268 8.36536 10.7224 8.2152 9.91384C7.9336 9.8486 7.6827 9.68922 7.50395 9.46206C7.29989 9.18088 7.20524 8.83499 7.23768 8.48909C7.2145 8.30271 7.2307 8.11354 7.28523 7.93382C7.33975 7.75409 7.43139 7.58781 7.55422 7.44574C7.62356 7.37466 7.70328 7.31451 7.79066 7.26736C7.247 6.38964 6.97924 5.36897 7.02201 4.33741C7.3606 1.91795 9.31044 1.68249 9.92114 1.66887C10.2022 1.34196 10.5536 1.08285 10.9489 0.910924C11.6895 0.612197 12.5081 0.566589 13.2773 0.781194C14.7893 1.1759 15.7976 1.93287 16.276 3.03136C16.957 4.59265 16.3596 6.38974 16.0165 7.19665C16.1474 7.23918 16.268 7.30843 16.3707 7.40001C16.5104 7.54188 16.6157 7.71394 16.6784 7.90292C16.7412 8.09191 16.7597 8.29278 16.7326 8.49006C16.7654 8.83595 16.6708 9.1819 16.4667 9.46303C16.2877 9.69014 16.0367 9.84949 15.7551 9.91482C15.6049 10.7224 14.905 13.2268 11.992 13.3222ZM8.3326 7.78595C8.21758 7.78059 8.10505 7.82066 8.01931 7.89752C7.95994 7.98067 7.91766 8.07475 7.89489 8.17435C7.87212 8.27394 7.86932 8.37706 7.88666 8.47774C7.88801 8.49938 7.88725 8.5211 7.88439 8.5426C7.86676 8.72875 7.91484 8.91521 8.02028 9.06963C8.08605 9.14309 8.16583 9.20268 8.25494 9.2449C8.34405 9.28711 8.44069 9.3111 8.5392 9.31547C8.61335 9.32423 8.68222 9.35832 8.73415 9.41197C8.78609 9.46562 8.81792 9.53555 8.82428 9.60995C8.83498 9.7306 9.12266 12.5798 11.9926 12.6738C14.8467 12.5798 15.1356 9.7306 15.1463 9.6093C15.1528 9.53502 15.1847 9.46524 15.2366 9.41172C15.2886 9.3582 15.3574 9.32421 15.4314 9.31547C15.5299 9.31114 15.6266 9.28716 15.7157 9.24495C15.8048 9.20273 15.8846 9.14312 15.9503 9.06963C16.0562 8.91444 16.1043 8.72701 16.0862 8.54001C16.0835 8.51915 16.0828 8.49809 16.084 8.47709C16.1015 8.37311 16.0976 8.26664 16.0724 8.16423C16.0472 8.06183 16.0014 7.96565 15.9377 7.88163C15.8364 7.80702 15.7103 7.77406 15.5855 7.78952C15.5254 7.80017 15.4636 7.79368 15.4071 7.77082C15.3506 7.74795 15.3017 7.70962 15.266 7.66022C15.2303 7.61083 15.2092 7.55236 15.2052 7.49154C15.2012 7.43072 15.2144 7.36999 15.2433 7.31633C15.2553 7.29363 16.4433 5.03892 15.6798 3.2866C15.2845 2.38109 14.4215 1.74898 13.1141 1.40779C12.4858 1.22997 11.8163 1.26417 11.2094 1.50509C10.8641 1.65386 10.5631 1.88937 10.3356 2.18876C10.3029 2.2333 10.2592 2.26864 10.2088 2.29136C10.1584 2.31409 10.103 2.32343 10.048 2.31849C9.96395 2.31168 7.97812 2.18325 7.66676 4.40325C7.66676 4.40325 7.57693 6.1692 8.59985 7.23947C8.64442 7.28607 8.67409 7.3449 8.68507 7.40845C8.69605 7.47199 8.68783 7.53737 8.66147 7.59622C8.63718 7.65659 8.59434 7.70768 8.53914 7.74212C8.48394 7.77657 8.41923 7.7926 8.35433 7.7879L8.3326 7.78595Z" fill="#1F8BA7"/>
<path d="M15.5289 7.79386C15.4452 7.79393 15.3647 7.76164 15.3042 7.70373C15.2438 7.64583 15.2081 7.56679 15.2045 7.48316C15.2006 7.39916 15.1001 5.43991 13.6374 5.25148C12.9684 5.33645 12.289 5.28348 11.6413 5.09583C10.9935 4.90819 10.391 4.58986 9.87103 4.16045C9.45751 4.47148 8.50465 5.41689 8.68789 7.43321C8.69031 7.51574 8.66116 7.59609 8.60639 7.65787C8.55162 7.71966 8.47534 7.75822 8.39311 7.76571C8.31089 7.7732 8.2289 7.74904 8.16387 7.69816C8.09884 7.64729 8.05566 7.57353 8.04313 7.49191C7.77427 4.53375 9.67384 3.50694 9.75459 3.46478C9.81471 3.43341 9.88315 3.42166 9.95028 3.43121C10.0174 3.44075 10.0799 3.47109 10.1289 3.51797C10.5911 3.93667 11.1384 4.25059 11.7332 4.43828C12.328 4.62596 12.9563 4.68298 13.5751 4.60543C13.6048 4.60062 13.635 4.59953 13.665 4.60218C15.3138 4.77375 15.8175 6.54521 15.8532 7.45624C15.8565 7.54205 15.8257 7.62569 15.7674 7.6888C15.7092 7.75191 15.6283 7.78934 15.5425 7.79289L15.5289 7.79386Z" fill="#1F8BA7"/>
<path d="M21.1101 23.3512H2.89024C2.80423 23.3512 2.72173 23.3171 2.66091 23.2563C2.60009 23.1954 2.56592 23.1129 2.56592 23.0269V19.4114C2.56824 18.2686 3.02363 17.1734 3.83225 16.366C4.64087 15.5585 5.73669 15.1047 6.87943 15.104H7.50214C7.58815 15.104 7.67064 15.1382 7.73147 15.199C7.79229 15.2598 7.82646 15.3423 7.82646 15.4283C7.82646 15.5143 7.79229 15.5968 7.73147 15.6577C7.67064 15.7185 7.58815 15.7527 7.50214 15.7527H6.87943C5.90867 15.7532 4.97773 16.1386 4.29072 16.8245C3.60372 17.5103 3.21671 18.4406 3.21457 19.4114V22.7026H20.7858V19.4114C20.7847 18.4414 20.3989 17.5114 19.713 16.8255C19.0271 16.1396 18.0971 15.7538 17.1271 15.7527H16.4597C16.3736 15.7527 16.2911 15.7185 16.2303 15.6577C16.1695 15.5968 16.1353 15.5143 16.1353 15.4283C16.1353 15.3423 16.1695 15.2598 16.2303 15.199C16.2911 15.1382 16.3736 15.104 16.4597 15.104H17.1271C18.269 15.1056 19.3636 15.56 20.1711 16.3674C20.9785 17.1748 21.4328 18.2695 21.4345 19.4114V23.0269C21.4345 23.1129 21.4003 23.1954 21.3395 23.2563C21.2786 23.3171 21.1962 23.3512 21.1101 23.3512Z" fill="#1F8BA7"/>
<path d="M13.0837 23.3514C13.037 23.3515 12.9908 23.3414 12.9484 23.3219C12.906 23.3025 12.8682 23.2741 12.8378 23.2387C12.8073 23.2033 12.7849 23.1618 12.772 23.1169C12.759 23.0721 12.7559 23.025 12.7629 22.9788L14.0754 14.2924C14.0824 14.2465 14.0991 14.2025 14.1245 14.1636C14.1499 14.1247 14.1834 14.0917 14.2227 14.0669C14.262 14.042 14.3061 14.0259 14.3522 14.0196C14.3982 14.0133 14.4451 14.017 14.4896 14.0304L16.7547 14.7131C16.7998 14.7267 16.8414 14.7499 16.8766 14.7813C16.9118 14.8126 16.9397 14.8512 16.9585 14.8944C16.9773 14.9376 16.9864 14.9844 16.9853 15.0315C16.9841 15.0786 16.9727 15.1249 16.9519 15.1671L16.0515 16.9736L16.5737 17.5597C16.62 17.612 16.6481 17.6778 16.654 17.7474C16.6598 17.817 16.643 17.8866 16.6061 17.9459L13.3593 23.1977C13.3303 23.2447 13.2897 23.2835 13.2415 23.3104C13.1932 23.3373 13.1389 23.3514 13.0837 23.3514ZM14.6612 14.7594L13.6412 21.5096L15.9286 17.8123L15.4217 17.2431C15.3786 17.1948 15.3509 17.1346 15.3423 17.0704C15.3337 17.0061 15.3445 16.9408 15.3734 16.8828L16.1998 15.2242L14.6612 14.7594Z" fill="#1F8BA7"/>
<path d="M10.8786 23.3514C10.8233 23.3514 10.7689 23.3373 10.7206 23.3104C10.6723 23.2835 10.6317 23.2447 10.6026 23.1976L7.35481 17.9468C7.31791 17.8875 7.30113 17.8179 7.30697 17.7483C7.31281 17.6787 7.34097 17.6129 7.38724 17.5605L7.90941 16.9745L7.00908 15.168C6.98823 15.1258 6.97683 15.0795 6.97568 15.0324C6.97453 14.9853 6.98366 14.9385 7.00243 14.8953C7.0212 14.8521 7.04915 14.8135 7.08436 14.7821C7.11956 14.7508 7.16116 14.7276 7.20627 14.714L9.47136 14.0313C9.51584 14.0179 9.56267 14.0143 9.60868 14.0206C9.65469 14.0269 9.6988 14.043 9.73804 14.0679C9.77728 14.0927 9.81072 14.1257 9.83611 14.1646C9.8615 14.2035 9.87823 14.2474 9.88519 14.2933L11.1984 22.9797C11.2052 23.0257 11.202 23.0726 11.1891 23.1173C11.1761 23.162 11.1537 23.2033 11.1234 23.2386C11.0931 23.2738 11.0555 23.3021 11.0133 23.3216C10.971 23.3411 10.9251 23.3512 10.8786 23.3514ZM8.03362 17.8113L10.3211 21.5085L9.30108 14.7594L7.76249 15.2231L8.58854 16.8817C8.61745 16.9397 8.62832 17.005 8.61977 17.0693C8.61121 17.1335 8.58362 17.1937 8.54054 17.2421L8.03362 17.8113Z" fill="#1F8BA7"/>
<path d="M12.0056 17.3042C11.3043 17.3037 10.6037 17.2613 9.90753 17.1771C9.86436 17.1731 9.82242 17.1606 9.78418 17.1401C9.74595 17.1197 9.71221 17.0918 9.68494 17.0581C9.65768 17.0243 9.63745 16.9855 9.62546 16.9439C9.61346 16.9022 9.60994 16.8585 9.6151 16.8155C9.62026 16.7725 9.634 16.7309 9.65551 16.6932C9.67701 16.6556 9.70585 16.6226 9.7403 16.5963C9.77476 16.57 9.81415 16.5509 9.85613 16.5401C9.89811 16.5292 9.94184 16.5269 9.98472 16.5333C11.3102 16.6963 12.6507 16.6963 13.9762 16.5333C14.0607 16.5242 14.1455 16.5486 14.2122 16.6013C14.2789 16.654 14.3222 16.7308 14.3328 16.8152C14.3435 16.8996 14.3205 16.9847 14.269 17.0523C14.2175 17.12 14.1414 17.1646 14.0573 17.1768C13.3767 17.2622 12.6915 17.3047 12.0056 17.3042Z" fill="#1F8BA7"/>
<path d="M14.3969 14.665C14.3464 14.6648 14.2966 14.6528 14.2516 14.63C14.2065 14.6072 14.1674 14.5742 14.1374 14.5336C13.6555 13.8821 13.5682 12.5906 13.5601 12.4456C13.5551 12.3598 13.5845 12.2755 13.6416 12.2113C13.6988 12.1471 13.7791 12.1082 13.865 12.1031C13.9506 12.0991 14.0344 12.1288 14.0984 12.1858C14.1624 12.2427 14.2015 12.3225 14.2075 12.408C14.2272 12.7492 14.3472 13.727 14.6586 14.148C14.6942 14.1962 14.7157 14.2533 14.7208 14.313C14.7259 14.3727 14.7144 14.4326 14.6875 14.4861C14.6607 14.5397 14.6195 14.5847 14.5686 14.6163C14.5177 14.6479 14.459 14.6647 14.3991 14.665H14.3969Z" fill="#1F8BA7"/>
<path d="M9.56555 14.6651C9.50565 14.6648 9.44699 14.648 9.39609 14.6164C9.34518 14.5848 9.304 14.5398 9.27713 14.4862C9.25026 14.4327 9.23875 14.3728 9.24386 14.3131C9.24897 14.2534 9.27051 14.1963 9.30609 14.1481C9.61809 13.7265 9.73777 12.749 9.75755 12.4081C9.76002 12.3655 9.77086 12.3238 9.78944 12.2854C9.80802 12.247 9.83398 12.2127 9.86584 12.1843C9.89771 12.1559 9.93485 12.1341 9.97514 12.1201C10.0154 12.1061 10.0581 12.1001 10.1007 12.1026C10.1433 12.1051 10.185 12.1159 10.2234 12.1345C10.2618 12.1531 10.2961 12.179 10.3245 12.2109C10.3529 12.2428 10.3747 12.2799 10.3887 12.3202C10.4027 12.3605 10.4087 12.4031 10.4062 12.4457C10.3981 12.5907 10.3089 13.8822 9.8289 14.5337C9.79847 14.5748 9.75875 14.6082 9.71298 14.631C9.66722 14.6538 9.6167 14.6655 9.56555 14.6651Z" fill="#1F8BA7"/>
<path d="M18.5366 18.8057C18.4522 18.8058 18.3711 18.7729 18.3105 18.7141C18.25 18.6553 18.2147 18.5752 18.2123 18.4908C18.1516 16.3788 17.3486 15.7143 17.3408 15.7078C17.2738 15.6546 17.2303 15.5772 17.2198 15.4923C17.2092 15.4074 17.2324 15.3217 17.2844 15.2537C17.3359 15.1863 17.4121 15.1419 17.4962 15.1303C17.5803 15.1186 17.6656 15.1406 17.7336 15.1914C17.7764 15.2239 18.7899 16.011 18.8609 18.472C18.8634 18.5579 18.8316 18.6413 18.7726 18.7038C18.7136 18.7663 18.6322 18.8029 18.5463 18.8054L18.5366 18.8057Z" fill="#1F8BA7"/>
<path d="M18.5382 20.7204C18.2847 20.7204 18.0368 20.6453 17.8259 20.5045C17.615 20.3636 17.4506 20.1634 17.3535 19.9292C17.2565 19.6949 17.231 19.4371 17.2805 19.1884C17.3299 18.9397 17.452 18.7112 17.6312 18.5319C17.8105 18.3525 18.039 18.2304 18.2877 18.1809C18.5364 18.1314 18.7942 18.1568 19.0285 18.2538C19.2627 18.3508 19.463 18.5152 19.6039 18.726C19.7448 18.9368 19.82 19.1847 19.82 19.4383C19.8196 19.7782 19.6845 20.104 19.4442 20.3444C19.2039 20.5847 18.8781 20.7199 18.5382 20.7204ZM18.5382 18.8049C18.4129 18.8048 18.2905 18.8419 18.1862 18.9115C18.082 18.9811 18.0008 19.08 17.9528 19.1957C17.9048 19.3114 17.8922 19.4388 17.9166 19.5617C17.941 19.6846 18.0013 19.7975 18.0899 19.8861C18.1785 19.9747 18.2913 20.035 18.4142 20.0595C18.5371 20.084 18.6645 20.0715 18.7802 20.0235C18.896 19.9756 18.9949 19.8944 19.0645 19.7902C19.1342 19.6861 19.1713 19.5636 19.1713 19.4383C19.1711 19.2704 19.1044 19.1095 18.9857 18.9907C18.867 18.872 18.7061 18.8052 18.5382 18.8049Z" fill="#1F8BA7"/>
<path d="M5.21601 18.8057C5.13384 18.8059 5.05466 18.7749 4.99445 18.719C4.93425 18.6631 4.89752 18.5864 4.89169 18.5044C4.71493 16.0152 6.0865 15.2196 6.14488 15.1869C6.2198 15.1446 6.30844 15.1338 6.39131 15.1569C6.47418 15.18 6.54449 15.2351 6.58677 15.31C6.62904 15.3849 6.63983 15.4735 6.61675 15.5564C6.59366 15.6393 6.53861 15.7096 6.46369 15.7519C6.41439 15.7811 5.39342 16.4112 5.53839 18.4587C5.54445 18.5445 5.51619 18.6292 5.4598 18.6941C5.40342 18.7591 5.32354 18.799 5.23774 18.8051L5.21601 18.8057Z" fill="#1F8BA7"/>
<path d="M4.55962 21.4024C4.50943 21.4026 4.45988 21.3912 4.41485 21.369C4.36983 21.3469 4.33057 21.3145 4.30016 21.2746C4.14184 21.0667 4.02522 20.8302 3.9567 20.578C3.80614 20.0868 3.85554 19.556 4.09414 19.101C4.33275 18.646 4.74129 18.3036 5.23097 18.1481C5.46323 18.0828 5.70618 18.0644 5.94563 18.0941C6.18507 18.1237 6.41622 18.2007 6.62556 18.3207C6.99244 18.5326 7.28589 18.8515 7.4667 19.2347C7.64752 19.6179 7.70709 20.0472 7.63745 20.4651C7.62334 20.55 7.5761 20.6257 7.50613 20.6758C7.43615 20.7258 7.34917 20.746 7.26431 20.7319C7.17946 20.7178 7.10368 20.6705 7.05366 20.6005C7.00363 20.5306 6.98345 20.4436 6.99756 20.3587C7.04516 20.0724 7.00473 19.7783 6.88161 19.5154C6.7585 19.2525 6.5585 19.0331 6.30805 18.8863C6.173 18.8083 6.02378 18.758 5.86908 18.7384C5.71439 18.7187 5.55733 18.7301 5.40707 18.7718C5.08209 18.8805 4.81307 19.1129 4.65837 19.4187C4.50366 19.7245 4.47576 20.0789 4.5807 20.4051C4.62763 20.5778 4.70759 20.7397 4.81616 20.8819C4.85268 20.9299 4.87506 20.9872 4.88079 21.0473C4.88651 21.1074 4.87534 21.1679 4.84855 21.222C4.82175 21.2761 4.78039 21.3217 4.72911 21.3535C4.67784 21.3854 4.61869 21.4023 4.55832 21.4024H4.55962Z" fill="#1F8BA7"/>
<path d="M7.32216 20.7369C7.30951 20.7369 7.29654 20.7369 7.28356 20.735L6.91805 20.6919C6.87573 20.6868 6.83482 20.6735 6.79765 20.6527C6.76048 20.6319 6.72778 20.6039 6.70141 20.5704C6.67505 20.537 6.65553 20.4986 6.64398 20.4576C6.63243 20.4166 6.62908 20.3737 6.6341 20.3314C6.63913 20.2891 6.65244 20.2482 6.67327 20.211C6.69411 20.1738 6.72206 20.1411 6.75554 20.1147C6.82314 20.0615 6.90913 20.0373 6.99459 20.0474L7.3601 20.0909C7.44219 20.1007 7.51745 20.1414 7.57051 20.2048C7.62356 20.2682 7.65041 20.3494 7.64557 20.432C7.64072 20.5145 7.60455 20.592 7.54444 20.6488C7.48433 20.7055 7.40482 20.7372 7.32216 20.7373V20.7369Z" fill="#1F8BA7"/>
<path d="M4.55963 21.4055C4.48348 21.4056 4.40972 21.3789 4.35128 21.3301C4.29283 21.2813 4.25343 21.2135 4.23997 21.1385C4.22651 21.0636 4.23986 20.9863 4.27766 20.9202C4.31547 20.8541 4.37534 20.8034 4.44677 20.777L4.83596 20.6333C4.87589 20.6184 4.91836 20.6115 4.96095 20.613C5.00355 20.6145 5.04543 20.6244 5.0842 20.6421C5.12298 20.6598 5.15789 20.6849 5.18694 20.7161C5.21599 20.7473 5.23862 20.7839 5.25352 20.8238C5.26843 20.8638 5.27533 20.9062 5.27382 20.9488C5.27231 20.9914 5.26243 21.0333 5.24473 21.0721C5.22704 21.1109 5.20188 21.1458 5.1707 21.1748C5.13951 21.2039 5.10291 21.2265 5.06298 21.2414L4.67379 21.3854C4.63726 21.3989 4.59858 21.4057 4.55963 21.4055Z" fill="#1F8BA7"/>
</svg>
