<svg width="24" height="24" viewBox="0 0 24 24" fill="none" xmlns="http://www.w3.org/2000/svg">
<path d="M12 0C5.37831 0 0 5.37831 0 12C0 18.6217 5.37831 24 12 24C18.6217 24 24 18.6217 24 12C24 5.37831 18.6217 0 12 0ZM12 22.959C5.95663 22.959 1.04096 18.0434 1.04096 12C1.04096 5.95663 5.95663 1.04096 12 1.04096C18.0434 1.04096 22.959 5.95663 22.959 12C22.959 18.0434 18.0434 22.959 12 22.959Z" fill="#443E3E"/>
<path d="M18.2459 9.3975H14.6026V5.75412C14.6026 5.46497 14.3712 5.23364 14.0821 5.23364H9.91822C9.62907 5.23364 9.39774 5.46497 9.39774 5.75412V9.3975H5.75437C5.46521 9.3975 5.23389 9.62882 5.23389 9.91798V14.0818C5.23389 14.371 5.46521 14.6023 5.75437 14.6023H9.39774V18.2457C9.39774 18.5348 9.62907 18.7662 9.91822 18.7662H14.0821C14.3712 18.7662 14.6026 18.5348 14.6026 18.2457V14.6023H18.2459C18.5351 14.6023 18.7664 14.371 18.7664 14.0818V9.91798C18.7375 9.62882 18.5062 9.3975 18.2459 9.3975ZM17.7544 13.5614H17.7255H14.0821C13.7929 13.5614 13.5616 13.7927 13.5616 14.0818V17.7252H10.4387V14.0818C10.4387 13.7927 10.2074 13.5614 9.91822 13.5614H6.27485V10.4385H9.91822C10.2074 10.4385 10.4387 10.2071 10.4387 9.91798V6.27461H13.5905V9.91798C13.5905 10.2071 13.8218 10.4385 14.111 10.4385H17.7544V13.5614Z" fill="#443E3E"/>
</svg>
