<svg width="19" height="18" viewBox="0 0 19 18" fill="none" xmlns="http://www.w3.org/2000/svg">
<g clip-path="url(#clip0_2102_4659)">
<path d="M9.5 0C4.53374 0 0.5 4.03374 0.5 9C0.5 13.9663 4.53374 18 9.5 18C14.4663 18 18.5 13.9663 18.5 9C18.5 4.03374 14.4663 0 9.5 0ZM9.5 17.2193C4.96747 17.2193 1.28072 13.5325 1.28072 9C1.28072 4.46747 4.96747 0.780723 9.5 0.780723C14.0325 0.780723 17.7193 4.46747 17.7193 9C17.7193 13.5325 14.0325 17.2193 9.5 17.2193Z" fill="#1A1717"/>
<path d="M14.1843 7.04818H11.4518V4.31565C11.4518 4.09879 11.2783 3.92529 11.0614 3.92529H7.93855C7.72168 3.92529 7.54818 4.09879 7.54818 4.31565V7.04818H4.81565C4.59879 7.04818 4.42529 7.22168 4.42529 7.43855V10.5614C4.42529 10.7783 4.59879 10.9518 4.81565 10.9518H7.54818V13.6843C7.54818 13.9012 7.72168 14.0747 7.93855 14.0747H11.0614C11.2783 14.0747 11.4518 13.9012 11.4518 13.6843V10.9518H14.1843C14.4012 10.9518 14.5747 10.7783 14.5747 10.5614V7.43855C14.553 7.22168 14.3795 7.04818 14.1843 7.04818ZM13.8157 10.1711H13.794H11.0614C10.8446 10.1711 10.6711 10.3446 10.6711 10.5614V13.294H8.32891V10.5614C8.32891 10.3446 8.15541 10.1711 7.93855 10.1711H5.20602V7.82891H7.93855C8.15541 7.82891 8.32891 7.65541 8.32891 7.43855V4.70602H10.6928V7.43855C10.6928 7.65541 10.8663 7.82891 11.0831 7.82891H13.8157V10.1711Z" fill="#1A1717"/>
</g>
<defs>
<clipPath id="clip0_2102_4659">
<rect width="18" height="18" fill="white" transform="translate(0.5)"/>
</clipPath>
</defs>
</svg>
