<svg width="28" height="21" viewBox="0 0 28 21" fill="none" xmlns="http://www.w3.org/2000/svg">
<rect y="0.5" width="28" height="20" rx="2" fill="white"/>
<mask id="mask0_2062_9508" style="mask-type:alpha" maskUnits="userSpaceOnUse" x="0" y="0" width="28" height="21">
<rect y="0.5" width="28" height="20" rx="2" fill="white"/>
</mask>
<g mask="url(#mask0_2062_9508)">
<rect y="0.5" width="28" height="20" fill="#F22A46"/>
<path fill-rule="evenodd" clip-rule="evenodd" d="M14.0003 13.8334C15.8413 13.8334 17.3337 12.341 17.3337 10.5001C17.3337 8.65913 15.8413 7.16675 14.0003 7.16675C12.1594 7.16675 10.667 8.65913 10.667 10.5001C10.667 12.341 12.1594 13.8334 14.0003 13.8334Z" fill="#FFF04D"/>
<path fill-rule="evenodd" clip-rule="evenodd" d="M12.3685 17.6495L14.0003 15.2137L15.6321 17.6495L16.0455 14.7469L18.5726 16.2335L17.6856 13.4389L20.6074 13.6819L18.5958 11.5489L21.3337 10.5001L18.5958 9.45118L20.6074 7.31824L17.6856 7.56117L18.5726 4.76663L16.0455 6.25324L15.6321 3.35059L14.0003 5.78644L12.3685 3.35059L11.9552 6.25324L9.42807 4.76663L10.3151 7.56117L7.39322 7.31824L9.40489 9.45118L6.66699 10.5001L9.40489 11.5489L7.39322 13.6819L10.3151 13.4389L9.42807 16.2335L11.9552 14.7469L12.3685 17.6495ZM18.667 10.5001C18.667 13.0774 16.5777 15.1667 14.0003 15.1667C11.423 15.1667 9.33366 13.0774 9.33366 10.5001C9.33366 7.92273 11.423 5.83339 14.0003 5.83339C16.5777 5.83339 18.667 7.92273 18.667 10.5001Z" fill="#FFF04D"/>
</g>
</svg>
