<svg width="19" height="18" viewBox="0 0 19 18" fill="none" xmlns="http://www.w3.org/2000/svg">
<g clip-path="url(#clip0_2170_5500)">
<path d="M9.5 3.09375C8.30404 3.09375 7.13494 3.44839 6.14054 4.11283C5.14614 4.77727 4.37109 5.72166 3.91342 6.82659C3.45575 7.93151 3.336 9.14733 3.56932 10.3203C3.80264 11.4933 4.37855 12.5707 5.22422 13.4164C6.06989 14.2621 7.14734 14.838 8.32032 15.0713C9.4933 15.3046 10.7091 15.1849 11.814 14.7272C12.919 14.2695 13.8634 13.4945 14.5278 12.5001C15.1922 11.5057 15.5469 10.3366 15.5469 9.14062C15.5469 7.53689 14.9098 5.99885 13.7758 4.86484C12.6418 3.73083 11.1037 3.09375 9.5 3.09375ZM13.9241 12.375C13.5231 12.1399 13.099 11.9467 12.6584 11.7984C12.8687 11.0231 12.9839 10.225 13.0016 9.42188H14.9703C14.9182 10.4874 14.5544 11.5143 13.9241 12.375ZM4.02266 9.42188H5.99844C6.0155 10.2255 6.13025 11.024 6.34016 11.7998C5.89963 11.9481 5.47552 12.1413 5.07453 12.3764C4.44196 11.5159 4.07618 10.4885 4.02266 9.42188ZM5.07594 5.90625C5.47693 6.14133 5.90103 6.33454 6.34157 6.48281C6.1313 7.25817 6.01608 8.05621 5.99844 8.85938H4.02969C4.08184 7.79381 4.44563 6.76698 5.07594 5.90625ZM9.78125 6.97781C10.5672 6.95947 11.3483 6.84902 12.1086 6.64875C12.3086 7.36937 12.4196 8.11177 12.4391 8.85938H9.78125V6.97781ZM9.78125 6.41531V3.68297C10.6672 3.84891 11.4533 4.78125 11.937 6.11297C11.2325 6.29658 10.5091 6.39804 9.78125 6.41531ZM9.21875 3.68297V6.41531C8.4909 6.39804 7.7675 6.29658 7.06297 6.11297C7.54672 4.78125 8.33282 3.84891 9.21875 3.68297ZM9.21875 6.97781V8.85938H6.56094C6.58043 8.11177 6.69141 7.36937 6.89141 6.64875C7.65166 6.84902 8.43278 6.95947 9.21875 6.97781ZM6.56094 9.42188H9.21875V11.3034C8.43278 11.3218 7.65166 11.4322 6.89141 11.6325C6.69141 10.9119 6.58043 10.1695 6.56094 9.42188ZM9.21875 11.8659V14.5983C8.33282 14.4323 7.54672 13.5 7.06297 12.1683C7.7675 11.9847 8.4909 11.8832 9.21875 11.8659ZM9.78125 14.5983V11.8659C10.5091 11.8832 11.2325 11.9847 11.937 12.1683C11.4533 13.5 10.6672 14.4323 9.78125 14.5983ZM9.78125 11.3034V9.42188H12.4391C12.4196 10.1695 12.3086 10.9119 12.1086 11.6325C11.3483 11.4322 10.5672 11.3218 9.78125 11.3034ZM13.0016 8.85938C12.9845 8.0558 12.8698 7.25727 12.6598 6.48141C13.1004 6.33313 13.5245 6.13993 13.9255 5.90484C14.5606 6.76453 14.9288 7.792 14.9844 8.85938H13.0016ZM13.5641 5.46328C13.222 5.65772 12.8623 5.81923 12.4897 5.94562C12.2494 5.21741 11.8606 4.54701 11.3478 3.97688C12.198 4.28243 12.9597 4.79297 13.5655 5.46328H13.5641ZM7.65078 3.97828C7.13799 4.54842 6.74916 5.21882 6.50891 5.94703C6.13632 5.82063 5.77658 5.65913 5.43453 5.46469C6.03987 4.79457 6.80108 4.28404 7.65078 3.97828ZM5.43453 12.818C5.77658 12.6235 6.13632 12.462 6.50891 12.3356C6.74916 13.0638 7.13799 13.7342 7.65078 14.3044C6.80108 13.9986 6.03987 13.4881 5.43453 12.818ZM11.3492 14.303C11.862 13.7328 12.2508 13.0624 12.4911 12.3342C12.8637 12.4606 13.2234 12.6221 13.5655 12.8166C12.9601 13.4867 12.1989 13.9972 11.3492 14.303Z" fill="#1A1717"/>
<path d="M9.49987 1.10913e-07C7.92799 0.000266101 6.38359 0.41221 5.0204 1.19483C3.6572 1.97745 2.52275 3.10345 1.72995 4.46076C0.93716 5.81806 0.513677 7.35934 0.501655 8.93117C0.489633 10.503 0.889492 12.0506 1.66143 13.4198L0.509713 17.6386C0.497189 17.6807 0.494708 17.7252 0.502468 17.7684C0.510229 17.8117 0.528015 17.8525 0.554402 17.8876C0.580788 17.9228 0.61504 17.9512 0.654412 17.9708C0.693783 17.9903 0.737179 18.0003 0.781119 18C0.805375 18.0002 0.829531 17.9969 0.852838 17.9902L5.12643 16.8652C6.32759 17.5333 7.66583 17.9174 9.03848 17.9881C10.4111 18.0588 11.7817 17.8141 13.0452 17.2729C14.3086 16.7317 15.4313 15.9083 16.3271 14.8658C17.2229 13.8234 17.8681 12.5896 18.2131 11.2591C18.5581 9.92867 18.5938 8.53685 18.3175 7.19045C18.0411 5.84404 17.4601 4.57881 16.6189 3.49182C15.7777 2.40483 14.6987 1.52495 13.4646 0.919664C12.2306 0.314383 10.8743 -0.000215656 9.49987 1.10913e-07ZM9.49987 17.4375C8.02737 17.435 6.58118 17.0471 5.30502 16.3125C5.26216 16.2882 5.21367 16.2756 5.1644 16.2759C5.14025 16.276 5.11618 16.2788 5.09268 16.2844L1.18049 17.3222L2.23377 13.455C2.24357 13.4191 2.24613 13.3815 2.2413 13.3446C2.23647 13.3077 2.22435 13.2721 2.20565 13.2398C1.27178 11.6331 0.894522 9.76292 1.13246 7.91976C1.37039 6.0766 2.21021 4.36356 3.52151 3.04661C4.83281 1.72967 6.54222 0.882504 8.38434 0.636654C10.2265 0.390804 12.0982 0.760023 13.709 1.68699C15.3198 2.61395 16.5794 4.04679 17.2924 5.76304C18.0054 7.47929 18.1318 9.38292 17.652 11.1784C17.1722 12.9738 16.113 14.5606 14.6389 15.6924C13.1648 16.8242 11.3583 17.4376 9.49987 17.4375Z" fill="#1A1717"/>
</g>
<defs>
<clipPath id="clip0_2170_5500">
<rect width="18" height="18" fill="white" transform="translate(0.5)"/>
</clipPath>
</defs>
</svg>
