<svg width="24" height="24" viewBox="0 0 24 24" fill="none" xmlns="http://www.w3.org/2000/svg">
<path d="M21.3191 1.55316H20.8941V1.12814C20.8941 0.506063 20.388 0 19.7659 0C19.1439 0 18.6378 0.506063 18.6378 1.12814V1.55316H17.0112V1.12814C17.0113 0.506063 16.5052 0 15.8831 0C15.2611 0 14.755 0.506063 14.755 1.12814V1.55316H13.1284V1.12814C13.1284 0.506063 12.6224 0 12.0003 0C11.3782 0 10.8722 0.506063 10.8722 1.12814V1.55316H9.24559V1.12814C9.24564 0.506063 8.73953 0 8.1175 0C7.49542 0 6.98936 0.506063 6.98936 1.12814V1.55316H6.56429C5.51406 1.55316 4.65967 2.40759 4.65967 3.45778V12.0611L3.7997 11.2011C3.35983 10.7612 2.64414 10.7613 2.20426 11.2011L1.10603 12.2993C0.666154 12.7392 0.666154 13.4549 1.10603 13.8947L4.65962 17.4483V22.0953C4.65962 23.1456 5.51406 24 6.56425 24H18.5237C18.7179 24 18.8753 23.8426 18.8753 23.6484C18.8753 23.4543 18.7179 23.2969 18.5237 23.2969H6.56429C5.90176 23.2969 5.36279 22.7579 5.36279 22.0953V18.1515L8.23079 21.0195C8.23914 21.0278 8.24786 21.0357 8.2569 21.043C8.26304 21.048 8.26942 21.0525 8.27579 21.057C8.27879 21.0592 8.28161 21.0615 8.28465 21.0636C8.29272 21.069 8.30101 21.0737 8.3094 21.0784C8.311 21.0793 8.3125 21.0803 8.31409 21.0811C8.32295 21.0859 8.332 21.09 8.34109 21.0939C8.34245 21.0945 8.34372 21.0952 8.34512 21.0958C8.35398 21.0994 8.36298 21.1025 8.37203 21.1054C8.3739 21.106 8.37569 21.1068 8.37756 21.1073C8.38609 21.1099 8.39472 21.1119 8.40334 21.1138C8.40592 21.1144 8.4084 21.1152 8.41098 21.1157C8.41937 21.1173 8.42781 21.1184 8.4363 21.1194C8.43925 21.1198 8.44211 21.1204 8.44506 21.1207C8.45645 21.1218 8.46794 21.1224 8.47937 21.1224H10.5302L10.9764 21.5685C11.045 21.6372 11.135 21.6715 11.2249 21.6715C11.3149 21.6715 11.4049 21.6372 11.4735 21.5685C11.6108 21.4312 11.6108 21.2086 11.4735 21.0713L11.0274 20.6252V18.5745C11.0274 18.563 11.0268 18.5515 11.0257 18.54C11.0254 18.5375 11.0249 18.535 11.0246 18.5325C11.0235 18.5236 11.0223 18.5147 11.0206 18.5059C11.0201 18.5037 11.0195 18.5015 11.019 18.4992C11.017 18.4903 11.0149 18.4813 11.0123 18.4725C11.0118 18.4709 11.0111 18.4694 11.0106 18.4678C11.0077 18.4585 11.0044 18.4492 11.0007 18.4401C11.0003 18.4391 10.9997 18.4381 10.9993 18.4372C10.9953 18.4276 10.9909 18.4182 10.9861 18.409C10.9854 18.4078 10.9847 18.4067 10.984 18.4055C10.9792 18.3967 10.9741 18.388 10.9685 18.3796C10.9667 18.377 10.9647 18.3745 10.9629 18.372C10.9581 18.3652 10.9533 18.3584 10.948 18.3518C10.9406 18.3428 10.9328 18.3341 10.9244 18.3257L8.05637 15.4577H20.1542C20.3484 15.4577 20.5058 15.3003 20.5058 15.1061C20.5058 14.912 20.3484 14.7546 20.1542 14.7546H7.72919C7.62592 14.7546 7.5333 14.7994 7.46898 14.8703L5.36275 12.7641V6.13908H22.5206V8.53678C22.5206 8.73094 22.678 8.88834 22.8722 8.88834C23.0663 8.88834 23.2237 8.73094 23.2237 8.53678V3.45778C23.2238 2.40755 22.3693 1.55316 21.3191 1.55316ZM10.3243 20.4193H9.32814L10.3243 19.4232V20.4193ZM2.95004 14.7444L3.55112 14.1434L9.08045 19.6727L8.47942 20.2737L2.95004 14.7444ZM9.57761 19.1755L4.04828 13.6462L4.64936 13.0451L10.1787 18.5745L9.57761 19.1755ZM1.60323 12.7965L2.70147 11.6983C2.86717 11.5326 3.13684 11.5326 3.30254 11.6983L4.1522 12.548L2.45289 14.2472L1.60328 13.3976C1.43753 13.2319 1.43753 12.9623 1.60323 12.7965ZM19.7659 0.703125C20.0003 0.703125 20.191 0.893766 20.191 1.12814V2.68125C20.191 2.91563 20.0003 3.10627 19.7659 3.10627C19.5316 3.10627 19.3409 2.91563 19.3409 2.68125V1.90519C19.3409 1.90505 19.3409 1.90491 19.3409 1.90472C19.3409 1.90453 19.3409 1.90444 19.3409 1.90425V1.12814C19.341 0.893766 19.5316 0.703125 19.7659 0.703125ZM15.8831 0.703125C16.1175 0.703125 16.3082 0.893766 16.3082 1.12814V2.68125C16.3082 2.91563 16.1175 3.10627 15.8831 3.10627C15.6488 3.10627 15.4581 2.91563 15.4581 2.68125V1.90519C15.4581 1.90505 15.4581 1.90491 15.4581 1.90472C15.4581 1.90453 15.4581 1.90444 15.4581 1.90425V1.12814C15.4581 0.893766 15.6488 0.703125 15.8831 0.703125ZM11.5753 1.12814C11.5753 0.893766 11.766 0.703125 12.0003 0.703125C12.2347 0.703125 12.4254 0.893766 12.4254 1.12814V1.90425V1.90472C12.4254 1.90472 12.4254 1.905 12.4254 1.90519V2.68125C12.4254 2.91563 12.2347 3.10627 12.0003 3.10627C11.766 3.10627 11.5753 2.91563 11.5753 2.68125V1.12814ZM8.1175 0.703125C8.35183 0.703125 8.54251 0.893766 8.54251 1.12814V2.68125C8.54251 2.91563 8.35187 3.10627 8.1175 3.10627C7.88312 3.10627 7.69248 2.91563 7.69248 2.68125V1.12814C7.69248 0.893766 7.88312 0.703125 8.1175 0.703125ZM5.36279 5.43595V3.45778C5.36279 2.79525 5.90181 2.25628 6.56429 2.25628H6.98936V2.68125C6.98936 3.30333 7.49542 3.80939 8.1175 3.80939C8.73953 3.80939 9.24564 3.30333 9.24564 2.68125V2.25628H10.8722V2.68125C10.8722 3.30333 11.3783 3.80939 12.0003 3.80939C12.6224 3.80939 13.1285 3.30333 13.1285 2.68125V2.25628H14.755V2.68125C14.755 3.30333 15.2611 3.80939 15.8832 3.80939C16.5053 3.80939 17.0113 3.30333 17.0113 2.68125V2.25628H18.6379V2.68125C18.6379 3.30333 19.1439 3.80939 19.766 3.80939C20.3881 3.80939 20.8942 3.30333 20.8942 2.68125V2.25628H21.3192C21.9817 2.25628 22.5207 2.7953 22.5207 3.45778V5.43595H5.36279Z" fill="#4B4747"/>
<path d="M22.8721 9.59155C22.678 9.59155 22.5206 9.74896 22.5206 9.94312V22.0954C22.5206 22.7579 21.9816 23.2969 21.319 23.2969H19.9299C19.7358 23.2969 19.5784 23.4543 19.5784 23.6485C19.5784 23.8426 19.7358 24 19.9299 24H21.319C22.3693 24 23.2237 23.1456 23.2237 22.0954V9.94312C23.2237 9.74896 23.0663 9.59155 22.8721 9.59155Z" fill="#4B4747"/>
<path d="M7.72925 8.46875H20.1543C20.3484 8.46875 20.5058 8.31134 20.5058 8.11719C20.5058 7.92303 20.3484 7.76562 20.1543 7.76562H7.72925C7.53509 7.76562 7.37769 7.92303 7.37769 8.11719C7.37769 8.31134 7.53509 8.46875 7.72925 8.46875Z" fill="#4B4747"/>
<path d="M7.72925 10.7985H20.1543C20.3484 10.7985 20.5058 10.6411 20.5058 10.4469C20.5058 10.2527 20.3484 10.0953 20.1543 10.0953H7.72925C7.53509 10.0953 7.37769 10.2527 7.37769 10.4469C7.37769 10.6411 7.53509 10.7985 7.72925 10.7985Z" fill="#4B4747"/>
<path d="M7.72925 13.1282H20.1543C20.3484 13.1282 20.5058 12.9708 20.5058 12.7766C20.5058 12.5825 20.3484 12.425 20.1543 12.425H7.72925C7.53509 12.425 7.37769 12.5825 7.37769 12.7766C7.37769 12.9708 7.53509 13.1282 7.72925 13.1282Z" fill="#4B4747"/>
<path d="M20.5057 17.4359C20.5057 17.2418 20.3483 17.0844 20.1542 17.0844H12.0002C11.8061 17.0844 11.6487 17.2418 11.6487 17.4359C11.6487 17.6301 11.8061 17.7875 12.0002 17.7875H20.1542C20.3483 17.7875 20.5057 17.6301 20.5057 17.4359Z" fill="#4B4747"/>
</svg>
