<svg width="19" height="18" viewBox="0 0 19 18" fill="none" xmlns="http://www.w3.org/2000/svg">
<g clip-path="url(#clip0_2102_4735)">
<path d="M10.625 15.75H7.625C7.418 15.75 7.25 15.582 7.25 15.375C7.25 15.168 7.418 15 7.625 15H10.625C11.2452 15 11.75 14.4953 11.75 13.875V10.125C11.75 9.918 11.918 9.75 12.125 9.75C12.332 9.75 12.5 9.918 12.5 10.125V13.875C12.5 14.9085 11.6592 15.75 10.625 15.75Z" fill="#1A1717"/>
<path d="M18.125 8.25H10.625C10.418 8.25 10.25 8.082 10.25 7.875C10.25 7.668 10.418 7.5 10.625 7.5H18.125C18.332 7.5 18.5 7.668 18.5 7.875C18.5 8.082 18.332 8.25 18.125 8.25Z" fill="#1A1717"/>
<path d="M6.5 18C6.335 18 6.17375 17.9722 6.0215 17.9183L1.529 16.4205C0.914 16.2157 0.5 15.6442 0.5 15V1.5C0.5 0.67275 1.17275 0 2 0C2.1665 0 2.3285 0.02775 2.47925 0.0825L6.971 1.5795C7.586 1.7835 8 2.355 8 3V16.5C8 17.3272 7.32725 18 6.5 18ZM2 0.75C1.586 0.75 1.25 1.08675 1.25 1.5V15C1.25 15.321 1.457 15.606 1.766 15.7095L6.266 17.2095C6.758 17.3842 7.25 16.9905 7.25 16.5V3C7.25 2.67825 7.043 2.39325 6.734 2.29125L2.234 0.79125C2.15675 0.7635 2.078 0.75 2 0.75Z" fill="#1A1717"/>
<path d="M12.125 6C11.918 6 11.75 5.832 11.75 5.625V1.875C11.75 1.25475 11.2452 0.75 10.625 0.75H2C1.793 0.75 1.625 0.582 1.625 0.375C1.625 0.168 1.793 0 2 0H10.625C11.6593 0 12.5 0.8415 12.5 1.875V5.625C12.5 5.832 12.332 6 12.125 6Z" fill="#1A1717"/>
<path d="M15.1252 11.2499C15.0292 11.2499 14.9332 11.2132 14.8597 11.1404C14.7134 10.9942 14.7134 10.7564 14.8597 10.6102L17.5942 7.87566L14.8597 5.14116C14.7134 4.99491 14.7134 4.75716 14.8597 4.61091C15.0059 4.46466 15.2437 4.46466 15.3899 4.61091L18.3899 7.61091C18.5362 7.75716 18.5362 7.99491 18.3899 8.14116L15.3899 11.1412C15.3172 11.2132 15.2212 11.2499 15.1252 11.2499Z" fill="#1A1717"/>
</g>
<defs>
<clipPath id="clip0_2102_4735">
<rect width="18" height="18" fill="white" transform="translate(0.5)"/>
</clipPath>
</defs>
</svg>
