<svg width="24" height="24" viewBox="0 0 24 24" fill="none" xmlns="http://www.w3.org/2000/svg">
<g clip-path="url(#clip0)">
<path d="M13.5 21H9.5C9.224 21 9 20.776 9 20.5C9 20.224 9.224 20 9.5 20H13.5C14.327 20 15 19.327 15 18.5V13.5C15 13.224 15.224 13 15.5 13C15.776 13 16 13.224 16 13.5V18.5C16 19.878 14.879 21 13.5 21Z" fill="#443E3E"/>
<path d="M23.5 11H13.5C13.224 11 13 10.776 13 10.5C13 10.224 13.224 10 13.5 10H23.5C23.776 10 24 10.224 24 10.5C24 10.776 23.776 11 23.5 11Z" fill="#443E3E"/>
<path d="M8 24C7.78 24 7.565 23.963 7.362 23.891L1.372 21.894C0.552 21.621 0 20.859 0 20V2C0 0.897 0.897 0 2 0C2.222 0 2.438 0.037 2.639 0.11L8.628 2.106C9.448 2.378 10 3.14 10 4V22C10 23.103 9.103 24 8 24ZM2 1C1.448 1 1 1.449 1 2V20C1 20.428 1.276 20.808 1.688 20.946L7.688 22.946C8.344 23.179 9 22.654 9 22V4C9 3.571 8.724 3.191 8.312 3.055L2.312 1.055C2.209 1.018 2.104 1 2 1Z" fill="#443E3E"/>
<path d="M15.5 8C15.224 8 15 7.776 15 7.5V2.5C15 1.673 14.327 1 13.5 1H2C1.724 1 1.5 0.776 1.5 0.5C1.5 0.224 1.724 0 2 0H13.5C14.879 0 16 1.122 16 2.5V7.5C16 7.776 15.776 8 15.5 8Z" fill="#443E3E"/>
<path d="M19.4998 15C19.3718 15 19.2438 14.951 19.1458 14.854C18.9508 14.659 18.9508 14.342 19.1458 14.147L22.7918 10.501L19.1458 6.85496C18.9508 6.65996 18.9508 6.34296 19.1458 6.14796C19.3408 5.95296 19.6578 5.95296 19.8528 6.14796L23.8528 10.148C24.0478 10.343 24.0478 10.66 23.8528 10.855L19.8528 14.855C19.7558 14.951 19.6278 15 19.4998 15Z" fill="#443E3E"/>
</g>
<defs>
<clipPath id="clip0">
<rect width="24" height="24" fill="white"/>
</clipPath>
</defs>
</svg>
