<svg width="19" height="18" viewBox="0 0 19 18" fill="none" xmlns="http://www.w3.org/2000/svg">
<g clip-path="url(#clip0_2102_4641)">
<path d="M4.91895 4.42944C4.72488 4.42944 4.56738 4.58694 4.56738 4.78101C4.56738 4.97507 4.72488 5.13257 4.91895 5.13257C5.11301 5.13257 5.27051 4.97507 5.27051 4.78101C5.27051 4.58694 5.11301 4.42944 4.91895 4.42944Z" fill="#1A1717"/>
<path d="M8.08283 11.0033H7.02821V9.94873C7.02821 9.7546 6.87078 9.59717 6.67665 9.59717C6.48252 9.59717 6.32512 9.7546 6.32512 9.94873V11.0033H5.27051C5.07638 11.0033 4.91895 11.1608 4.91895 11.3549C4.91895 11.549 5.07638 11.7064 5.27051 11.7064H6.32512V12.7611C6.32512 12.9552 6.48255 13.1126 6.67665 13.1126C6.87075 13.1126 7.02821 12.9552 7.02821 12.7611V11.7064H8.08283C8.27696 11.7064 8.43439 11.549 8.43439 11.3549C8.43439 11.1607 8.277 11.0033 8.08283 11.0033Z" fill="#1A1717"/>
<path d="M17.5714 11.3197C16.7942 9.97376 15.0759 9.51311 13.7297 10.2904L12.3017 11.1148V8.062C12.3017 7.68459 12.1769 7.31007 11.9502 7.00738L10.1925 4.66383V3.66588C10.6016 3.52076 10.8956 3.13003 10.8956 2.6717V1.05462C10.8955 0.473098 10.4224 0 9.84089 0H3.51308C2.93156 0 2.45843 0.473098 2.45843 1.05462V2.67173C2.45843 3.13 2.75237 3.52079 3.16152 3.66592V4.66386L1.40367 7.00756C1.17705 7.31011 1.05225 7.68459 1.05225 8.062V14.8704C1.05225 15.8396 1.84077 16.6281 2.80995 16.6281H8.45963C9.24787 17.9493 10.9475 18.3915 12.2799 17.6222L16.5421 15.1614C17.8764 14.3909 18.3524 12.6731 17.5714 11.3197ZM3.16152 1.05462C3.16152 0.860766 3.31923 0.703055 3.51304 0.703055H9.84085C10.0347 0.703055 10.1924 0.860766 10.1924 1.05462V2.67173C10.1924 2.86559 10.0347 3.02326 9.84085 3.02326H3.51308C3.31923 3.02326 3.16155 2.86555 3.16155 2.67173V1.05462H3.16152ZM1.96631 7.42918L3.79429 4.99194C3.83993 4.93112 3.86461 4.85708 3.86461 4.781V3.72639H9.48932V4.42948H6.32544C6.1313 4.42948 5.97388 4.58691 5.97388 4.78104C5.97388 4.97517 6.1313 5.1326 6.32544 5.1326H9.6651L11.3875 7.42908C11.5001 7.57937 11.57 7.7592 11.5911 7.94496H1.76282C1.78392 7.75916 1.85384 7.57934 1.96631 7.42918ZM2.80999 15.925C2.22847 15.925 1.75537 15.4519 1.75537 14.8704V14.5153H8.14238C8.0309 14.9711 8.03164 15.458 8.15929 15.925H2.80999V15.925ZM8.41811 13.8157H1.75534V8.64798H11.5986V11.5207L9.46746 12.7512C9.02312 13.0079 8.66396 13.3733 8.41811 13.8157ZM11.9284 17.0133C10.9195 17.5959 9.6303 17.2514 9.04734 16.2418C8.4616 15.2225 8.81657 13.9391 9.81909 13.3601L11.7273 12.2584L13.8365 15.9116L11.9284 17.0133ZM16.1905 14.5525L14.4454 15.5601L12.3361 11.9068L14.0812 10.8993C15.0908 10.3165 16.3795 10.6616 16.9625 11.6712C17.548 12.6859 17.1919 13.9743 16.1905 14.5525Z" fill="black"/>
</g>
<defs>
<clipPath id="clip0_2102_4641">
<rect width="18" height="18" fill="white" transform="translate(0.5)"/>
</clipPath>
</defs>
</svg>
