<svg width="19" height="18" viewBox="0 0 19 18" fill="none" xmlns="http://www.w3.org/2000/svg">
<path d="M6.76465 6.75H12.0381C12.094 6.75 12.1477 6.72778 12.1873 6.68822C12.2268 6.64866 12.249 6.59501 12.249 6.53906C12.249 6.48312 12.2268 6.42947 12.1873 6.38991C12.1477 6.35035 12.094 6.32812 12.0381 6.32812H6.76465C6.7087 6.32812 6.65505 6.35035 6.61549 6.38991C6.57593 6.42947 6.55371 6.48312 6.55371 6.53906C6.55371 6.59501 6.57593 6.64866 6.61549 6.68822C6.65505 6.72778 6.7087 6.75 6.76465 6.75Z" fill="#1A1717"/>
<path d="M4.63511 6.50003L4.16644 6.9481L3.97635 6.75801C3.95686 6.73799 3.93359 6.72204 3.90789 6.71108C3.88218 6.70013 3.85456 6.69439 3.82661 6.6942C3.79867 6.69402 3.77097 6.69938 3.74512 6.70999C3.71927 6.72059 3.69579 6.73623 3.67603 6.75599C3.65627 6.77575 3.64064 6.79924 3.63004 6.82509C3.61943 6.85094 3.61407 6.87864 3.61426 6.90658C3.61445 6.93452 3.62019 6.96215 3.63115 6.98785C3.64211 7.01355 3.65806 7.03682 3.67809 7.05631L4.014 7.39226C4.05298 7.43124 4.10567 7.45341 4.16079 7.45403C4.21591 7.45465 4.26909 7.43366 4.30893 7.39557L4.92666 6.80494C4.94687 6.78585 4.96311 6.76294 4.97444 6.73755C4.98577 6.71215 4.99197 6.68477 4.99267 6.65697C4.99338 6.62917 4.98858 6.60151 4.97856 6.57557C4.96853 6.54963 4.95348 6.52593 4.93426 6.50583C4.91504 6.48573 4.89204 6.46963 4.86658 6.45846C4.84112 6.44728 4.81369 6.44125 4.78589 6.44071C4.75809 6.44017 4.73046 6.44514 4.70458 6.45532C4.6787 6.4655 4.65509 6.4807 4.63511 6.50003Z" fill="#1A1717"/>
<path d="M4.3037 5.51587C4.02055 5.51587 3.74376 5.59983 3.50833 5.75715C3.2729 5.91446 3.0894 6.13805 2.98104 6.39965C2.87269 6.66125 2.84434 6.9491 2.89958 7.22681C2.95482 7.50452 3.09118 7.75962 3.2914 7.95983C3.49162 8.16005 3.74672 8.2964 4.02443 8.35163C4.30214 8.40687 4.58999 8.37851 4.85159 8.27015C5.11319 8.16179 5.33677 7.97829 5.49408 7.74285C5.65139 7.50741 5.73534 7.23062 5.73534 6.94747C5.73491 6.56791 5.58394 6.20402 5.31555 5.93563C5.04715 5.66725 4.68326 5.51629 4.3037 5.51587ZM4.3037 7.95723C4.10399 7.95723 3.90877 7.898 3.74271 7.78705C3.57666 7.6761 3.44724 7.51839 3.37081 7.33388C3.29438 7.14938 3.27439 6.94635 3.31335 6.75047C3.35231 6.5546 3.44848 6.37468 3.5897 6.23346C3.73091 6.09224 3.91084 5.99607 4.10671 5.95711C4.30258 5.91815 4.50561 5.93815 4.69012 6.01457C4.87463 6.091 5.03233 6.22042 5.14329 6.38648C5.25424 6.55253 5.31346 6.74776 5.31346 6.94747C5.3132 7.2152 5.20674 7.4719 5.01743 7.66124C4.82812 7.85057 4.57144 7.95707 4.3037 7.95737V7.95723Z" fill="black"/>
<path d="M6.76465 10.2656H12.0381C12.094 10.2656 12.1477 10.2434 12.1873 10.2038C12.2268 10.1643 12.249 10.1106 12.249 10.0547C12.249 9.99874 12.2268 9.94509 12.1873 9.90553C12.1477 9.86597 12.094 9.84375 12.0381 9.84375H6.76465C6.7087 9.84375 6.65505 9.86597 6.61549 9.90553C6.57593 9.94509 6.55371 9.99874 6.55371 10.0547C6.55371 10.1106 6.57593 10.1643 6.61549 10.2038C6.65505 10.2434 6.7087 10.2656 6.76465 10.2656Z" fill="black"/>
<path d="M4.63511 10.0157L4.16644 10.4637L3.97635 10.2736C3.95686 10.2536 3.93359 10.2377 3.90789 10.2267C3.88218 10.2158 3.85456 10.21 3.82661 10.2098C3.79867 10.2096 3.77097 10.215 3.74512 10.2256C3.71927 10.2362 3.69579 10.2519 3.67603 10.2716C3.65627 10.2914 3.64064 10.3149 3.63004 10.3407C3.61943 10.3666 3.61407 10.3943 3.61426 10.4222C3.61445 10.4501 3.62019 10.4778 3.63115 10.5035C3.64211 10.5292 3.65806 10.5525 3.67809 10.5719L4.014 10.9079C4.05298 10.9469 4.10567 10.969 4.16079 10.9697C4.21591 10.9703 4.26909 10.9493 4.30893 10.9112L4.92666 10.3206C4.94687 10.3015 4.96311 10.2786 4.97444 10.2532C4.98577 10.2278 4.99197 10.2004 4.99267 10.1726C4.99338 10.1448 4.98858 10.1171 4.97856 10.0912C4.96853 10.0653 4.95348 10.0416 4.93426 10.0215C4.91504 10.0014 4.89204 9.98526 4.86658 9.97408C4.84112 9.96291 4.81369 9.95688 4.78589 9.95634C4.75809 9.9558 4.73046 9.96076 4.70458 9.97094C4.6787 9.98112 4.65509 9.99632 4.63511 10.0157Z" fill="black"/>
<path d="M4.3037 9.03149C4.02055 9.03149 3.74376 9.11546 3.50833 9.27277C3.2729 9.43008 3.0894 9.65367 2.98104 9.91527C2.87269 10.1769 2.84434 10.4647 2.89958 10.7424C2.95482 11.0201 3.09118 11.2752 3.2914 11.4755C3.49162 11.6757 3.74672 11.812 4.02443 11.8673C4.30214 11.9225 4.58999 11.8941 4.85159 11.7858C5.11319 11.6774 5.33677 11.4939 5.49408 11.2585C5.65139 11.023 5.73534 10.7462 5.73534 10.4631C5.73491 10.0835 5.58394 9.71964 5.31555 9.45126C5.04715 9.18287 4.68326 9.03191 4.3037 9.03149ZM4.3037 11.4728C4.10399 11.4728 3.90877 11.4136 3.74271 11.3027C3.57666 11.1917 3.44724 11.034 3.37081 10.8495C3.29438 10.665 3.27439 10.462 3.31335 10.2661C3.35231 10.0702 3.44848 9.8903 3.5897 9.74909C3.73091 9.60787 3.91084 9.5117 4.10671 9.47274C4.30258 9.43378 4.50561 9.45377 4.69012 9.5302C4.87463 9.60662 5.03233 9.73605 5.14329 9.9021C5.25424 10.0682 5.31346 10.2634 5.31346 10.4631C5.3132 10.7308 5.20674 10.9875 5.01743 11.1769C4.82812 11.3662 4.57144 11.4727 4.3037 11.473V11.4728Z" fill="black"/>
<path d="M4.63511 13.5313L4.16644 13.9794L3.97635 13.7893C3.95686 13.7692 3.93359 13.7533 3.90789 13.7423C3.88218 13.7314 3.85456 13.7256 3.82661 13.7255C3.79867 13.7253 3.77097 13.7306 3.74512 13.7412C3.71927 13.7518 3.69579 13.7675 3.67603 13.7872C3.65627 13.807 3.64064 13.8305 3.63004 13.8563C3.61943 13.8822 3.61407 13.9099 3.61426 13.9378C3.61445 13.9658 3.62019 13.9934 3.63115 14.0191C3.64211 14.0448 3.65806 14.0681 3.67809 14.0876L4.014 14.4235C4.05298 14.4625 4.10567 14.4847 4.16079 14.4853C4.21591 14.4859 4.26909 14.4649 4.30893 14.4268L4.92666 13.8362C4.94687 13.8171 4.96311 13.7942 4.97444 13.7688C4.98577 13.7434 4.99197 13.716 4.99267 13.6882C4.99338 13.6604 4.98858 13.6328 4.97856 13.6068C4.96853 13.5809 4.95348 13.5572 4.93426 13.5371C4.91504 13.517 4.89204 13.5009 4.86658 13.4897C4.84112 13.4785 4.81369 13.4725 4.78589 13.472C4.75809 13.4714 4.73046 13.4764 4.70458 13.4866C4.6787 13.4967 4.65509 13.5119 4.63511 13.5313Z" fill="black"/>
<path d="M4.3037 12.5471C4.02055 12.5471 3.74376 12.6311 3.50833 12.7884C3.2729 12.9457 3.0894 13.1693 2.98104 13.4309C2.87269 13.6925 2.84434 13.9804 2.89958 14.2581C2.95482 14.5358 3.09118 14.7909 3.2914 14.9911C3.49162 15.1913 3.74672 15.3276 4.02443 15.3829C4.30214 15.4381 4.58999 15.4098 4.85159 15.3014C5.11319 15.193 5.33677 15.0095 5.49408 14.7741C5.65139 14.5387 5.73534 14.2619 5.73534 13.9787C5.73491 13.5992 5.58394 13.2353 5.31555 12.9669C5.04715 12.6985 4.68326 12.5475 4.3037 12.5471ZM4.3037 14.9885C4.10399 14.9885 3.90877 14.9293 3.74271 14.8183C3.57666 14.7073 3.44724 14.5496 3.37081 14.3651C3.29438 14.1806 3.27439 13.9776 3.31335 13.7817C3.35231 13.5858 3.44848 13.4059 3.5897 13.2647C3.73091 13.1235 3.91084 13.0273 4.10671 12.9884C4.30258 12.9494 4.50561 12.9694 4.69012 13.0458C4.87463 13.1222 5.03233 13.2517 5.14329 13.4177C5.25424 13.5838 5.31346 13.779 5.31346 13.9787C5.3132 14.2465 5.20674 14.5032 5.01743 14.6925C4.82812 14.8818 4.57144 14.9883 4.3037 14.9886V14.9885Z" fill="black"/>
<path d="M6.76465 7.45312H9.57716C9.6331 7.45312 9.68676 7.4309 9.72631 7.39134C9.76587 7.35178 9.7881 7.29813 9.7881 7.24219C9.7881 7.18624 9.76587 7.13259 9.72631 7.09303C9.68676 7.05347 9.6331 7.03125 9.57716 7.03125H6.76465C6.7087 7.03125 6.65505 7.05347 6.61549 7.09303C6.57593 7.13259 6.55371 7.18624 6.55371 7.24219C6.55371 7.29813 6.57593 7.35178 6.61549 7.39134C6.65505 7.4309 6.7087 7.45312 6.76465 7.45312Z" fill="black"/>
<path d="M6.76465 10.9688H9.57716C9.6331 10.9688 9.68676 10.9465 9.72631 10.907C9.76587 10.8674 9.7881 10.8138 9.7881 10.7578C9.7881 10.7019 9.76587 10.6482 9.72631 10.6087C9.68676 10.5691 9.6331 10.5469 9.57716 10.5469H6.76465C6.7087 10.5469 6.65505 10.5691 6.61549 10.6087C6.57593 10.6482 6.55371 10.7019 6.55371 10.7578C6.55371 10.8138 6.57593 10.8674 6.61549 10.907C6.65505 10.9465 6.7087 10.9688 6.76465 10.9688Z" fill="black"/>
<path d="M2.57422 3.30811C2.51827 3.30811 2.46462 3.33033 2.42506 3.36989C2.3855 3.40945 2.36328 3.4631 2.36328 3.51904V3.74053C2.36328 3.79647 2.3855 3.85012 2.42506 3.88968C2.46462 3.92924 2.51827 3.95147 2.57422 3.95147C2.63016 3.95147 2.68382 3.92924 2.72337 3.88968C2.76293 3.85012 2.78516 3.79647 2.78516 3.74053V3.51904C2.78516 3.4631 2.76293 3.40945 2.72337 3.36989C2.68382 3.33033 2.63016 3.30811 2.57422 3.30811Z" fill="black"/>
<path d="M2.57422 4.19727C2.51827 4.19727 2.46462 4.21949 2.42506 4.25905C2.3855 4.29861 2.36328 4.35226 2.36328 4.4082V6.44727C2.36328 6.50322 2.3855 6.55687 2.42506 6.59643C2.46462 6.63598 2.51827 6.65821 2.57422 6.65821C2.63016 6.65821 2.68382 6.63598 2.72337 6.59643C2.76293 6.55687 2.78516 6.50322 2.78516 6.44727V4.4082C2.78516 4.3805 2.7797 4.35307 2.7691 4.32748C2.7585 4.30189 2.74296 4.27864 2.72337 4.25905C2.70379 4.23946 2.68053 4.22392 2.65494 4.21332C2.62935 4.20272 2.60192 4.19727 2.57422 4.19727Z" fill="black"/>
<path d="M16.5759 9.41133C16.4348 9.38173 16.2892 9.3804 16.1476 9.40744C16.0059 9.43447 15.8711 9.48933 15.7508 9.56883L13.5781 10.9957V3.08057C13.5781 2.38271 13.0046 1.82812 12.3067 1.82812H10.9766V1.17334C10.9766 1.1174 10.9543 1.06374 10.9148 1.02418C10.8752 0.984626 10.8216 0.962402 10.7656 0.962402C10.7097 0.962402 10.656 0.984626 10.6165 1.02418C10.5769 1.06374 10.5547 1.1174 10.5547 1.17334V1.82812H8.76172V1.17334C8.76172 1.1174 8.7395 1.06374 8.69994 1.02418C8.66038 0.984626 8.60673 0.962402 8.55078 0.962402C8.49484 0.962402 8.44119 0.984626 8.40163 1.02418C8.36207 1.06374 8.33985 1.1174 8.33985 1.17334V1.82812H6.58203V1.17334C6.58203 1.1174 6.55981 1.06374 6.52025 1.02418C6.48069 0.984626 6.42704 0.962402 6.3711 0.962402C6.31515 0.962402 6.2615 0.984626 6.22194 1.02418C6.18238 1.06374 6.16016 1.1174 6.16016 1.17334V1.82812H4.36719V1.17334C4.36719 1.1174 4.34496 1.06374 4.30541 1.02418C4.26585 0.984626 4.2122 0.962402 4.15625 0.962402C4.10031 0.962402 4.04665 0.984626 4.0071 1.02418C3.96754 1.06374 3.94531 1.1174 3.94531 1.17334V1.82812H2.81455C2.6494 1.82695 2.48565 1.85848 2.33274 1.92091C2.17984 1.98335 2.04082 2.07544 1.92369 2.19187C1.80656 2.30831 1.71365 2.44679 1.65032 2.59932C1.58699 2.75185 1.55448 2.91541 1.55469 3.08057V15.772C1.55469 16.4699 2.11666 17.0508 2.81455 17.0508H12.3067C13.0046 17.0508 13.5781 16.4699 13.5781 15.772V13.6216L16.9562 11.4033C17.1376 11.2841 17.2796 11.1138 17.3642 10.9139C17.4488 10.714 17.4723 10.4935 17.4316 10.2803C17.3909 10.067 17.2879 9.87069 17.1356 9.71601C16.9833 9.56134 16.7885 9.45531 16.5759 9.41133ZM10.7537 3.14909C10.8275 3.14909 10.8996 3.17096 10.9609 3.21195C11.0223 3.25294 11.0701 3.31119 11.0983 3.37935C11.1266 3.44751 11.1339 3.52251 11.1195 3.59486C11.1052 3.66722 11.0696 3.73368 11.0175 3.78585C10.9653 3.83802 10.8988 3.87354 10.8265 3.88793C10.7541 3.90233 10.6791 3.89494 10.611 3.86671C10.5428 3.83848 10.4846 3.79067 10.4436 3.72933C10.4026 3.66798 10.3807 3.59587 10.3807 3.52209C10.3808 3.4232 10.4201 3.32838 10.4901 3.25845C10.56 3.18852 10.6548 3.14919 10.7537 3.14909ZM8.55563 3.14909C8.62941 3.14909 8.70152 3.17098 8.76286 3.21197C8.82419 3.25296 8.872 3.31122 8.90022 3.37937C8.92845 3.44753 8.93583 3.52253 8.92144 3.59489C8.90704 3.66724 8.87151 3.7337 8.81934 3.78586C8.76718 3.83803 8.70071 3.87355 8.62836 3.88794C8.556 3.90233 8.481 3.89494 8.41285 3.8667C8.34469 3.83847 8.28644 3.79066 8.24545 3.72932C8.20447 3.66798 8.18259 3.59587 8.18259 3.52209C8.1827 3.42319 8.22204 3.32838 8.29198 3.25845C8.36191 3.18852 8.45674 3.14919 8.55563 3.14909ZM6.35749 3.14909C6.43126 3.14911 6.50337 3.171 6.56469 3.212C6.62602 3.253 6.67381 3.31126 6.70203 3.37942C6.73025 3.44758 6.73762 3.52258 6.72321 3.59493C6.70881 3.66728 6.67327 3.73373 6.6211 3.78589C6.56893 3.83804 6.50247 3.87356 6.43012 3.88794C6.35776 3.90233 6.28277 3.89493 6.21462 3.8667C6.14646 3.83846 6.08821 3.79065 6.04723 3.72931C6.00625 3.66798 5.98438 3.59586 5.98438 3.52209C5.98449 3.42318 6.02384 3.32835 6.09379 3.25842C6.16374 3.18849 6.25858 3.14917 6.35749 3.14909ZM4.15942 3.14909C4.23319 3.14909 4.3053 3.17098 4.36664 3.21197C4.42797 3.25296 4.47578 3.31122 4.504 3.37937C4.53223 3.44753 4.53961 3.52253 4.52522 3.59489C4.51082 3.66724 4.47529 3.7337 4.42312 3.78586C4.37096 3.83803 4.30449 3.87355 4.23214 3.88794C4.15978 3.90233 4.08478 3.89494 4.01663 3.8667C3.94847 3.83847 3.89022 3.79066 3.84923 3.72932C3.80825 3.66798 3.78637 3.59587 3.78637 3.52209C3.78648 3.42319 3.82582 3.32838 3.89576 3.25845C3.9657 3.18852 4.06052 3.14919 4.15942 3.14909ZM13.1563 15.772C13.1552 15.9976 13.0656 16.2139 12.9067 16.3741C12.7478 16.5344 12.5324 16.6259 12.3067 16.6289H2.81455C2.34922 16.6289 1.97656 16.2372 1.97656 15.772V3.08057C1.9763 2.97079 1.99785 2.86206 2.03996 2.76069C2.08207 2.65932 2.14391 2.56732 2.22187 2.49005C2.29984 2.41277 2.39238 2.35176 2.49412 2.31055C2.59587 2.26934 2.70478 2.24876 2.81455 2.25H3.94531V2.75583C3.62891 2.8485 3.36295 3.15682 3.36295 3.52223C3.36295 3.6266 3.38351 3.72994 3.42344 3.82636C3.46338 3.92277 3.52192 4.01038 3.59571 4.08418C3.66951 4.15797 3.75712 4.21651 3.85354 4.25645C3.94995 4.29639 4.0533 4.31694 4.15766 4.31694C4.26202 4.31694 4.36536 4.29639 4.46178 4.25645C4.5582 4.21651 4.6458 4.15797 4.7196 4.08418C4.7934 4.01038 4.85193 3.92277 4.89187 3.82636C4.93181 3.72994 4.95236 3.6266 4.95236 3.52223C4.95487 3.34738 4.89853 3.17676 4.79241 3.03776C4.68628 2.89877 4.53653 2.79948 4.36719 2.75583V2.25H6.16016V2.75583C5.99023 2.79922 5.83974 2.89827 5.73269 3.03719C5.62564 3.1761 5.5682 3.34686 5.56953 3.52223C5.56953 3.73327 5.65337 3.93567 5.8026 4.0849C5.95182 4.23413 6.15422 4.31796 6.36526 4.31796C6.5763 4.31796 6.7787 4.23413 6.92792 4.0849C7.07715 3.93567 7.16099 3.73327 7.16099 3.52223C7.15799 3.34966 7.10032 3.18249 6.99629 3.04477C6.89225 2.90705 6.74721 2.80589 6.58203 2.75583V2.25H8.33985V2.75583C8.02344 2.8485 7.75833 3.15682 7.75833 3.52223C7.75833 3.73296 7.84204 3.93505 7.99104 4.08405C8.14004 4.23306 8.34213 4.31677 8.55286 4.31677C8.76358 4.31677 8.96567 4.23306 9.11468 4.08405C9.26368 3.93505 9.34739 3.73296 9.34739 3.52223C9.34977 3.34734 9.29333 3.17671 9.18712 3.03773C9.08092 2.89875 8.9311 2.79947 8.76172 2.75583V2.25H10.5547V2.75583C10.3848 2.79923 10.2344 2.8983 10.1275 3.03723C10.0206 3.17616 9.96328 3.34693 9.9648 3.52223C9.9648 3.73325 10.0486 3.93562 10.1978 4.08482C10.347 4.23403 10.5494 4.31786 10.7604 4.31786C10.9714 4.31786 11.1738 4.23403 11.323 4.08482C11.4722 3.93562 11.556 3.73325 11.556 3.52223C11.556 3.15696 11.293 2.84864 10.9766 2.75583V2.25H12.3067C12.772 2.25 13.1563 2.61534 13.1563 3.08057V11.2727L12.3639 11.793C12.3396 11.809 12.3188 11.8299 12.303 11.8543C12.2871 11.8787 12.2764 11.9061 12.2717 11.9349C12.2669 11.9636 12.2682 11.993 12.2753 12.0212C12.2825 12.0495 12.2955 12.0759 12.3133 12.0989C12.3459 12.1407 12.393 12.1687 12.4453 12.1773C12.4976 12.186 12.5512 12.1746 12.5955 12.1455L15.7321 10.0858L15.9872 10.4741L10.6731 13.9641L10.4179 13.5757L11.4163 12.9201C11.4395 12.9049 11.4594 12.8853 11.475 12.8624C11.4906 12.8395 11.5015 12.8137 11.5071 12.7866C11.5127 12.7595 11.5129 12.7315 11.5078 12.7043C11.5026 12.6771 11.4921 12.6512 11.4769 12.628C11.4617 12.6049 11.442 12.5849 11.4191 12.5694C11.3962 12.5538 11.3705 12.5429 11.3434 12.5373C11.3162 12.5316 11.2883 12.5314 11.2611 12.5366C11.2338 12.5418 11.2079 12.5523 11.1848 12.5675L10.0109 13.3383C10.0088 13.3397 10.0068 13.3415 10.0046 13.343C9.99929 13.3468 9.99409 13.3506 9.98895 13.3549C9.98727 13.3563 9.98579 13.3579 9.98421 13.3594H6.76485C6.7089 13.3594 6.65525 13.3816 6.61569 13.4212C6.57613 13.4608 6.55391 13.5144 6.55391 13.5703C6.55391 13.6263 6.57613 13.6799 6.61569 13.7195C6.65525 13.7591 6.7089 13.7813 6.76485 13.7813H9.74645L9.59707 14.0635C9.59056 14.0629 9.58403 14.0625 9.57735 14.0625H6.76485C6.7089 14.0625 6.65525 14.0848 6.61569 14.1243C6.57613 14.1639 6.55391 14.2175 6.55391 14.2735C6.55391 14.3294 6.57613 14.3831 6.61569 14.4226C6.65525 14.4622 6.7089 14.4844 6.76485 14.4844H9.37432L9.13044 14.9451C9.11343 14.9773 9.10501 15.0133 9.10601 15.0496C9.10701 15.086 9.11739 15.1214 9.13614 15.1526C9.15488 15.1837 9.18137 15.2095 9.21302 15.2274C9.24467 15.2453 9.28041 15.2547 9.31677 15.2548C9.31863 15.2548 9.32049 15.2548 9.32232 15.2548L11.105 15.208C11.1093 15.208 11.1136 15.2072 11.1179 15.2068C11.1221 15.2065 11.127 15.2062 11.1316 15.2055C11.1372 15.2047 11.1426 15.2032 11.148 15.202C11.152 15.2011 11.1561 15.2004 11.1601 15.1992C11.1693 15.1964 11.1783 15.193 11.187 15.189C11.1892 15.1881 11.1912 15.1868 11.1933 15.1855C11.2001 15.1822 11.2068 15.1785 11.2132 15.1745C11.2139 15.174 11.2146 15.1738 11.2153 15.1733L13.1563 13.8987V15.772ZM10.715 14.7961L9.67206 14.8235L10.1453 13.9292L10.715 14.7961ZM11.1599 14.705L11.1437 14.6804L10.9047 14.3167L16.2188 10.8269L16.4739 11.2152L11.1599 14.705ZM16.8206 10.9742L16.0908 9.86365C16.1808 9.82584 16.2777 9.80779 16.3752 9.81072C16.4727 9.81366 16.5684 9.83751 16.6559 9.88066C16.7066 9.90505 16.7536 9.9364 16.7956 9.97379C16.8667 10.0355 16.9241 10.1114 16.9642 10.1966C17.0044 10.2818 17.0263 10.3744 17.0287 10.4685C17.031 10.5626 17.0137 10.6562 16.9779 10.7433C16.9421 10.8303 16.8885 10.909 16.8206 10.9742Z" fill="black"/>
</svg>
