<svg width="19" height="18" viewBox="0 0 19 18" fill="none" xmlns="http://www.w3.org/2000/svg">
<g clip-path="url(#clip0_2102_4696)">
<path d="M16.5004 9.09283H5.7848C5.35449 9.09283 5.00293 8.74127 5.00293 8.31096V1.40346C5.00293 0.970332 5.35449 0.621582 5.7848 0.621582H16.5004C16.9307 0.621582 17.2823 0.973144 17.2823 1.40346V8.31096C17.2823 8.74127 16.9336 9.09283 16.5004 9.09283ZM5.7848 1.16721C5.65543 1.16721 5.54855 1.27408 5.54855 1.40346V8.31096C5.54855 8.44033 5.65543 8.54721 5.7848 8.54721H16.5004C16.6298 8.54721 16.7367 8.44033 16.7367 8.31096V1.40346C16.7367 1.27127 16.6298 1.16721 16.5004 1.16721H5.7848Z" fill="#1A1717"/>
<path d="M17.0095 4.09512H5.27574C5.12387 4.09512 5.00293 3.97418 5.00293 3.8223C5.00293 3.67043 5.12387 3.54949 5.27574 3.54949H17.0095C17.1614 3.54949 17.2823 3.67043 17.2823 3.8223C17.2823 3.97418 17.1614 4.09512 17.0095 4.09512ZM17.0095 2.86887H5.27574C5.12387 2.86887 5.00293 2.74793 5.00293 2.59605C5.00293 2.44418 5.12387 2.32324 5.27574 2.32324H17.0095C17.1614 2.32324 17.2823 2.44418 17.2823 2.59605C17.2823 2.74793 17.1614 2.86887 17.0095 2.86887ZM14.9507 7.64731C14.4192 7.64731 13.9889 7.21699 13.9889 6.68543C13.9889 6.15387 14.4192 5.72356 14.9507 5.72356C15.4823 5.72356 15.9126 6.15387 15.9126 6.68543C15.9126 7.21418 15.4823 7.64731 14.9507 7.64731ZM14.9507 6.26637C14.7201 6.26637 14.5345 6.45199 14.5345 6.68262C14.5345 6.91324 14.7201 7.09887 14.9507 7.09887C15.1814 7.09887 15.367 6.91324 15.367 6.68262C15.367 6.4548 15.1814 6.26637 14.9507 6.26637Z" fill="#1A1717"/>
<path d="M13.868 7.64723C13.3365 7.64723 12.9062 7.2141 12.9062 6.68254C12.9062 6.15379 13.3365 5.72066 13.868 5.72066C14.1633 5.72066 14.4446 5.85848 14.6274 6.09191C14.7202 6.21004 14.6977 6.3816 14.5796 6.47441C14.4615 6.56723 14.2899 6.54473 14.1971 6.4266C14.1183 6.32535 13.9974 6.26629 13.868 6.26629C13.6374 6.26629 13.4518 6.45191 13.4518 6.68254C13.4518 6.91316 13.6374 7.1016 13.868 7.1016C13.9946 7.1016 14.1183 7.04254 14.1971 6.94129C14.2899 6.82316 14.4615 6.80066 14.5796 6.89348C14.6977 6.98629 14.7202 7.15785 14.6274 7.27598C14.4446 7.50941 14.1605 7.64723 13.868 7.64723ZM9.39896 5.58566H6.54709C6.39521 5.58566 6.27428 5.46473 6.27428 5.31285C6.27428 5.16098 6.39521 5.04004 6.54709 5.04004H9.39896C9.55084 5.04004 9.67178 5.16098 9.67178 5.31285C9.67178 5.46473 9.55084 5.58566 9.39896 5.58566ZM10.0065 6.6966H6.54709C6.39521 6.6966 6.27428 6.57566 6.27428 6.42379C6.27428 6.27191 6.39521 6.15098 6.54709 6.15098H10.0065C10.1583 6.15098 10.2793 6.27191 10.2793 6.42379C10.2793 6.57566 10.1555 6.6966 10.0065 6.6966ZM11.5224 14.0822H9.25271C9.10084 14.0822 8.9799 13.9613 8.9799 13.8094C8.9799 13.6575 9.10084 13.5366 9.25271 13.5366H11.5224C11.6265 13.5366 11.7221 13.5169 11.8093 13.4775C12.0287 13.3791 12.1862 13.1766 12.2171 12.9516C12.2199 12.9375 12.2227 12.9207 12.2283 12.9066C12.234 12.8672 12.234 12.825 12.2283 12.7857C12.1918 12.4313 11.9105 12.1697 11.5562 12.1585L9.17396 12.0854C8.97709 12.0825 8.77459 12.0375 8.56928 11.9532C8.56084 11.9504 8.54959 11.9447 8.54115 11.9391L6.31365 10.7129C6.19553 10.6482 6.06615 10.6144 5.93678 10.6144H3.6024C3.45053 10.6144 3.32959 10.4935 3.32959 10.3416C3.32959 10.1897 3.45053 10.0688 3.6024 10.0688H5.93678C6.15896 10.0688 6.38115 10.1279 6.57803 10.2375L8.78865 11.4554C8.92365 11.5088 9.05865 11.5397 9.18521 11.5425L11.573 11.6157C12.1918 11.6382 12.7065 12.1163 12.7683 12.7266C12.7824 12.825 12.7768 12.9375 12.7571 13.0416C12.7543 13.0529 12.7515 13.0613 12.7487 13.0725C12.6783 13.4663 12.4083 13.8122 12.0315 13.981C11.8768 14.0457 11.7024 14.0822 11.5224 14.0822Z" fill="#1A1717"/>
<path d="M9.84615 17.3783C9.71397 17.3783 9.58459 17.3671 9.4524 17.3474C9.43834 17.3446 9.42428 17.3418 9.41022 17.3362L4.61772 15.7612C4.54178 15.7358 4.4574 15.7218 4.37303 15.7218H3.6024C3.45053 15.7218 3.32959 15.6008 3.32959 15.449C3.32959 15.2971 3.45053 15.1762 3.6024 15.1762H4.37303C4.51647 15.1762 4.65709 15.1987 4.78928 15.2437L9.55928 16.8102C9.91647 16.8637 10.2793 16.8158 10.6055 16.6724L17.6058 13.5674C17.7493 13.5027 17.8618 13.3818 17.9208 13.2215C17.9883 13.0218 17.9574 12.7968 17.8365 12.6112C17.6902 12.389 17.4146 12.2765 17.1446 12.3299L12.5574 13.2524C12.4674 13.2749 12.3662 13.2524 12.2958 13.1821C12.189 13.0752 12.189 12.9037 12.293 12.7968C12.3324 12.7574 12.383 12.7293 12.4365 12.718L17.0349 11.7927C17.5215 11.6943 18.0277 11.9024 18.2921 12.3102C18.5058 12.6393 18.5593 13.0358 18.4327 13.4015C18.3202 13.708 18.1037 13.9387 17.8252 14.0652L10.8249 17.173C10.5155 17.308 10.1837 17.3783 9.84615 17.3783Z" fill="#1A1717"/>
<path d="M3.59917 16.3152H1.31823C1.17761 16.3152 1.05948 16.2083 1.04542 16.0677L0.499795 9.85488C0.49417 9.77895 0.519482 9.70301 0.570107 9.64676C0.620732 9.59051 0.693857 9.55957 0.769795 9.55957H3.59636C3.74823 9.55957 3.86917 9.68051 3.86917 9.83238V16.0452C3.87198 16.1943 3.75104 16.3152 3.59917 16.3152ZM1.56854 15.7724H3.32636V10.1024H1.07073L1.56854 15.7724Z" fill="#1A1717"/>
</g>
<defs>
<clipPath id="clip0_2102_4696">
<rect width="18" height="18" fill="white" transform="translate(0.5)"/>
</clipPath>
</defs>
</svg>
