<svg width="24" height="24" viewBox="0 0 24 24" fill="none" xmlns="http://www.w3.org/2000/svg">
<path d="M21.3193 1.55316H20.8943V1.12814C20.8943 0.506063 20.3883 0 19.7662 0C19.1441 0 18.638 0.506063 18.638 1.12814V1.55316H17.0115V1.12814C17.0115 0.506063 16.5054 0 15.8834 0C15.2614 0 14.7552 0.506063 14.7552 1.12814V1.55316H13.1287V1.12814C13.1287 0.506063 12.6226 0 12.0005 0C11.3785 0 10.8724 0.506063 10.8724 1.12814V1.55316H9.24584V1.12814C9.24588 0.506063 8.73977 0 8.11774 0C7.49566 0 6.9896 0.506063 6.9896 1.12814V1.55316H6.56454C5.5143 1.55316 4.65991 2.40759 4.65991 3.45778V12.0611L3.79995 11.2011C3.36007 10.7612 2.64438 10.7613 2.20451 11.2011L1.10627 12.2993C0.666398 12.7392 0.666398 13.4549 1.10627 13.8947L4.65987 17.4483V22.0953C4.65987 23.1456 5.5143 24 6.56449 24H18.524C18.7181 24 18.8756 23.8426 18.8756 23.6484C18.8756 23.4543 18.7181 23.2969 18.524 23.2969H6.56454C5.90201 23.2969 5.36304 22.7579 5.36304 22.0953V18.1515L8.23104 21.0195C8.23938 21.0278 8.2481 21.0357 8.25715 21.043C8.26329 21.048 8.26966 21.0525 8.27604 21.057C8.27904 21.0592 8.28185 21.0615 8.2849 21.0636C8.29296 21.069 8.30126 21.0737 8.30965 21.0784C8.31124 21.0793 8.31274 21.0803 8.31434 21.0811C8.32319 21.0859 8.33224 21.09 8.34134 21.0939C8.3427 21.0945 8.34396 21.0952 8.34537 21.0958C8.35423 21.0994 8.36323 21.1025 8.37227 21.1054C8.37415 21.106 8.37593 21.1068 8.3778 21.1073C8.38634 21.1099 8.39496 21.1119 8.40359 21.1138C8.40616 21.1144 8.40865 21.1152 8.41123 21.1157C8.41962 21.1173 8.42805 21.1184 8.43654 21.1194C8.43949 21.1198 8.44235 21.1204 8.4453 21.1207C8.4567 21.1218 8.46818 21.1224 8.47962 21.1224H10.5304L10.9766 21.5685C11.0452 21.6372 11.1352 21.6715 11.2252 21.6715C11.3151 21.6715 11.4051 21.6372 11.4738 21.5685C11.6111 21.4312 11.6111 21.2086 11.4738 21.0713L11.0276 20.6252V18.5745C11.0276 18.563 11.027 18.5515 11.0259 18.54C11.0257 18.5375 11.0251 18.535 11.0248 18.5325C11.0238 18.5236 11.0226 18.5147 11.0209 18.5059C11.0204 18.5037 11.0197 18.5015 11.0192 18.4992C11.0172 18.4903 11.0151 18.4813 11.0125 18.4725C11.012 18.4709 11.0114 18.4694 11.0109 18.4678C11.0079 18.4585 11.0047 18.4492 11.0009 18.4401C11.0005 18.4391 11 18.4381 10.9996 18.4372C10.9955 18.4276 10.9912 18.4182 10.9863 18.409C10.9856 18.4078 10.9849 18.4067 10.9842 18.4055C10.9794 18.3967 10.9744 18.388 10.9687 18.3796C10.967 18.377 10.9649 18.3745 10.9631 18.372C10.9583 18.3652 10.9535 18.3584 10.9482 18.3518C10.9408 18.3428 10.933 18.3341 10.9247 18.3257L8.05662 15.4577H20.1544C20.3486 15.4577 20.506 15.3003 20.506 15.1061C20.506 14.912 20.3486 14.7546 20.1544 14.7546H7.72943C7.62616 14.7546 7.53354 14.7994 7.46923 14.8703L5.36299 12.7641V6.13908H22.5208V8.53678C22.5208 8.73094 22.6782 8.88834 22.8724 8.88834C23.0666 8.88834 23.224 8.73094 23.224 8.53678V3.45778C23.224 2.40755 22.3696 1.55316 21.3193 1.55316ZM10.3245 20.4193H9.32838L10.3245 19.4232V20.4193ZM2.95029 14.7444L3.55137 14.1434L9.0807 19.6727L8.47966 20.2737L2.95029 14.7444ZM9.57785 19.1755L4.04852 13.6462L4.6496 13.0451L10.1789 18.5745L9.57785 19.1755ZM1.60348 12.7965L2.70171 11.6983C2.86741 11.5326 3.13709 11.5326 3.30279 11.6983L4.15245 12.548L2.45313 14.2472L1.60352 13.3976C1.43777 13.2319 1.43777 12.9623 1.60348 12.7965ZM19.7662 0.703125C20.0006 0.703125 20.1912 0.893766 20.1912 1.12814V2.68125C20.1912 2.91563 20.0006 3.10627 19.7662 3.10627C19.5318 3.10627 19.3412 2.91563 19.3412 2.68125V1.90519C19.3412 1.90505 19.3412 1.90491 19.3412 1.90472C19.3412 1.90453 19.3412 1.90444 19.3412 1.90425V1.12814C19.3412 0.893766 19.5319 0.703125 19.7662 0.703125ZM15.8834 0.703125C16.1178 0.703125 16.3084 0.893766 16.3084 1.12814V2.68125C16.3084 2.91563 16.1178 3.10627 15.8834 3.10627C15.649 3.10627 15.4584 2.91563 15.4584 2.68125V1.90519C15.4584 1.90505 15.4584 1.90491 15.4584 1.90472C15.4584 1.90453 15.4584 1.90444 15.4584 1.90425V1.12814C15.4584 0.893766 15.649 0.703125 15.8834 0.703125ZM11.5756 1.12814C11.5756 0.893766 11.7662 0.703125 12.0006 0.703125C12.235 0.703125 12.4256 0.893766 12.4256 1.12814V1.90425V1.90472C12.4256 1.90472 12.4256 1.905 12.4256 1.90519V2.68125C12.4256 2.91563 12.235 3.10627 12.0006 3.10627C11.7663 3.10627 11.5756 2.91563 11.5756 2.68125V1.12814ZM8.11774 0.703125C8.35207 0.703125 8.54276 0.893766 8.54276 1.12814V2.68125C8.54276 2.91563 8.35212 3.10627 8.11774 3.10627C7.88337 3.10627 7.69273 2.91563 7.69273 2.68125V1.12814C7.69273 0.893766 7.88337 0.703125 8.11774 0.703125ZM5.36304 5.43595V3.45778C5.36304 2.79525 5.90205 2.25628 6.56454 2.25628H6.9896V2.68125C6.9896 3.30333 7.49566 3.80939 8.11774 3.80939C8.73977 3.80939 9.24588 3.30333 9.24588 2.68125V2.25628H10.8724V2.68125C10.8724 3.30333 11.3785 3.80939 12.0006 3.80939C12.6227 3.80939 13.1287 3.30333 13.1287 2.68125V2.25628H14.7553V2.68125C14.7553 3.30333 15.2614 3.80939 15.8834 3.80939C16.5055 3.80939 17.0116 3.30333 17.0116 2.68125V2.25628H18.6381V2.68125C18.6381 3.30333 19.1442 3.80939 19.7663 3.80939C20.3884 3.80939 20.8944 3.30333 20.8944 2.68125V2.25628H21.3194C21.982 2.25628 22.521 2.7953 22.521 3.45778V5.43595H5.36304Z" fill="#1F8BA7"/>
<path d="M22.8724 9.59155C22.6782 9.59155 22.5208 9.74896 22.5208 9.94312V22.0954C22.5208 22.7579 21.9818 23.2969 21.3193 23.2969H19.9302C19.736 23.2969 19.5786 23.4543 19.5786 23.6485C19.5786 23.8426 19.736 24 19.9302 24H21.3193C22.3695 24 23.2239 23.1456 23.2239 22.0954V9.94312C23.2239 9.74896 23.0665 9.59155 22.8724 9.59155Z" fill="#1F8BA7"/>
<path d="M7.72949 8.46875H20.1545C20.3487 8.46875 20.5061 8.31134 20.5061 8.11719C20.5061 7.92303 20.3487 7.76562 20.1545 7.76562H7.72949C7.53534 7.76562 7.37793 7.92303 7.37793 8.11719C7.37793 8.31134 7.53534 8.46875 7.72949 8.46875Z" fill="#1F8BA7"/>
<path d="M7.72949 10.7983H20.1545C20.3487 10.7983 20.5061 10.6409 20.5061 10.4468C20.5061 10.2526 20.3487 10.0952 20.1545 10.0952H7.72949C7.53534 10.0952 7.37793 10.2526 7.37793 10.4468C7.37793 10.6409 7.53534 10.7983 7.72949 10.7983Z" fill="#1F8BA7"/>
<path d="M7.72949 13.1282H20.1545C20.3487 13.1282 20.5061 12.9708 20.5061 12.7766C20.5061 12.5825 20.3487 12.425 20.1545 12.425H7.72949C7.53534 12.425 7.37793 12.5825 7.37793 12.7766C7.37793 12.9708 7.53534 13.1282 7.72949 13.1282Z" fill="#1F8BA7"/>
<path d="M20.506 17.436C20.506 17.2419 20.3486 17.0845 20.1544 17.0845H12.0005C11.8063 17.0845 11.6489 17.2419 11.6489 17.436C11.6489 17.6302 11.8063 17.7876 12.0005 17.7876H20.1544C20.3486 17.7876 20.506 17.6302 20.506 17.436Z" fill="#1F8BA7"/>
</svg>
