<svg width="24" height="24" viewBox="0 0 24 24" fill="none" xmlns="http://www.w3.org/2000/svg">
<path d="M8.35303 9H15.3843C15.4589 9 15.5304 8.97037 15.5832 8.91762C15.6359 8.86488 15.6655 8.79334 15.6655 8.71875C15.6655 8.64416 15.6359 8.57262 15.5832 8.51988C15.5304 8.46713 15.4589 8.4375 15.3843 8.4375H8.35303C8.27844 8.4375 8.2069 8.46713 8.15415 8.51988C8.10141 8.57262 8.07178 8.64416 8.07178 8.71875C8.07178 8.79334 8.10141 8.86488 8.15415 8.91762C8.2069 8.97037 8.27844 9 8.35303 9Z" fill="#443E3E"/>
<path d="M5.51299 8.66655L4.8881 9.26397L4.63465 9.01052C4.60866 8.98382 4.57763 8.96255 4.54336 8.94795C4.50909 8.93334 4.47225 8.92569 4.435 8.92544C4.39774 8.92519 4.36081 8.93235 4.32634 8.94649C4.29188 8.96063 4.26056 8.98148 4.23422 9.00782C4.20788 9.03417 4.18703 9.06549 4.17289 9.09995C4.15876 9.13442 4.15161 9.17136 4.15186 9.20861C4.15212 9.24587 4.15977 9.2827 4.17438 9.31697C4.18899 9.35124 4.21026 9.38227 4.23696 9.40825L4.68485 9.85619C4.73682 9.90816 4.80708 9.93772 4.88057 9.93854C4.95406 9.93937 5.02496 9.91139 5.07809 9.8606L5.90173 9.0731C5.92868 9.04763 5.95033 9.0171 5.96543 8.98323C5.98054 8.94937 5.9888 8.91286 5.98974 8.8758C5.99068 8.83873 5.98429 8.80185 5.97092 8.76726C5.95756 8.73268 5.93748 8.70108 5.91186 8.67428C5.88624 8.64748 5.85557 8.62602 5.82162 8.61112C5.78767 8.59621 5.7511 8.58817 5.71403 8.58746C5.67696 8.58674 5.64012 8.59335 5.60562 8.60693C5.57111 8.6205 5.53963 8.64077 5.51299 8.66655Z" fill="#443E3E"/>
<path d="M5.07193 7.35474C4.69439 7.35474 4.32534 7.46669 4.01143 7.67644C3.69752 7.88619 3.45286 8.18431 3.30838 8.53311C3.16391 8.88191 3.12611 9.26571 3.19977 9.63599C3.27343 10.0063 3.45523 10.3464 3.72219 10.6134C3.98915 10.8803 4.32928 11.0621 4.69956 11.1358C5.06984 11.2094 5.45365 11.1716 5.80245 11.0271C6.15124 10.8826 6.44936 10.638 6.6591 10.324C6.86884 10.0101 6.98078 9.64107 6.98077 9.26353C6.9802 8.75746 6.77891 8.27227 6.42105 7.91442C6.0632 7.55658 5.57801 7.35529 5.07193 7.35474ZM5.07193 10.6099C4.80565 10.6099 4.54535 10.5309 4.32394 10.383C4.10254 10.235 3.92997 10.0248 3.82807 9.77876C3.72617 9.53274 3.69951 9.26204 3.75146 9.00087C3.80341 8.73971 3.93163 8.49981 4.11992 8.31152C4.30821 8.12324 4.54811 7.99501 4.80927 7.94306C5.07044 7.89111 5.34114 7.91777 5.58715 8.01967C5.83317 8.12158 6.04344 8.29414 6.19137 8.51555C6.33931 8.73695 6.41827 8.99725 6.41827 9.26353C6.41793 9.62052 6.27597 9.96278 6.02357 10.2152C5.77116 10.4677 5.42891 10.6097 5.07193 10.6101V10.6099Z" fill="#443E3E"/>
<path d="M8.35303 13.6875H15.3843C15.4589 13.6875 15.5304 13.6579 15.5832 13.6051C15.6359 13.5524 15.6655 13.4808 15.6655 13.4062C15.6655 13.3317 15.6359 13.2601 15.5832 13.2074C15.5304 13.1546 15.4589 13.125 15.3843 13.125H8.35303C8.27844 13.125 8.2069 13.1546 8.15415 13.2074C8.10141 13.2601 8.07178 13.3317 8.07178 13.4062C8.07178 13.4808 8.10141 13.5524 8.15415 13.6051C8.2069 13.6579 8.27844 13.6875 8.35303 13.6875Z" fill="#443E3E"/>
<path d="M5.51299 13.354L4.8881 13.9515L4.63465 13.698C4.60866 13.6713 4.57763 13.6501 4.54336 13.6354C4.50909 13.6208 4.47225 13.6132 4.435 13.6129C4.39774 13.6127 4.36081 13.6198 4.32634 13.634C4.29188 13.6481 4.26056 13.669 4.23422 13.6953C4.20788 13.7217 4.18703 13.753 4.17289 13.7875C4.15876 13.8219 4.15161 13.8589 4.15186 13.8961C4.15212 13.9334 4.15977 13.9702 4.17438 14.0045C4.18899 14.0387 4.21026 14.0698 4.23696 14.0958L4.68485 14.5437C4.73682 14.5957 4.80708 14.6252 4.88057 14.626C4.95406 14.6269 5.02496 14.5989 5.07809 14.5481L5.90173 13.7606C5.92868 13.7351 5.95033 13.7046 5.96543 13.6707C5.98054 13.6369 5.9888 13.6004 5.98974 13.5633C5.99068 13.5262 5.98429 13.4893 5.97092 13.4548C5.95756 13.4202 5.93748 13.3886 5.91186 13.3618C5.88624 13.335 5.85557 13.3135 5.82162 13.2986C5.78767 13.2837 5.7511 13.2757 5.71403 13.275C5.67696 13.2742 5.64012 13.2809 5.60562 13.2944C5.57111 13.308 5.53963 13.3283 5.51299 13.354Z" fill="#443E3E"/>
<path d="M5.07193 12.0422C4.69439 12.0422 4.32534 12.1542 4.01143 12.3639C3.69752 12.5737 3.45286 12.8718 3.30838 13.2206C3.16391 13.5694 3.12611 13.9532 3.19977 14.3235C3.27343 14.6938 3.45523 15.0339 3.72219 15.3009C3.98915 15.5678 4.32928 15.7496 4.69956 15.8233C5.06984 15.8969 5.45365 15.8591 5.80245 15.7146C6.15124 15.5701 6.44936 15.3255 6.6591 15.0115C6.86884 14.6976 6.98078 14.3286 6.98077 13.951C6.9802 13.445 6.77891 12.9598 6.42105 12.6019C6.0632 12.2441 5.57801 12.0428 5.07193 12.0422ZM5.07193 15.2974C4.80565 15.2974 4.54535 15.2184 4.32394 15.0705C4.10254 14.9225 3.92997 14.7123 3.82807 14.4663C3.72617 14.2202 3.69951 13.9495 3.75146 13.6884C3.80341 13.4272 3.93163 13.1873 4.11992 12.999C4.30821 12.8107 4.54811 12.6825 4.80927 12.6306C5.07044 12.5786 5.34114 12.6053 5.58715 12.7072C5.83317 12.8091 6.04344 12.9816 6.19137 13.203C6.33931 13.4244 6.41827 13.6848 6.41827 13.951C6.41793 14.308 6.27597 14.6503 6.02357 14.9027C5.77116 15.1552 5.42891 15.2972 5.07193 15.2976V15.2974Z" fill="#443E3E"/>
<path d="M5.51299 18.0415L4.8881 18.639L4.63465 18.3855C4.60866 18.3588 4.57763 18.3376 4.54336 18.3229C4.50909 18.3083 4.47225 18.3007 4.435 18.3004C4.39774 18.3002 4.36081 18.3073 4.32634 18.3215C4.29188 18.3356 4.26056 18.3565 4.23422 18.3828C4.20788 18.4092 4.18703 18.4405 4.17289 18.475C4.15876 18.5094 4.15161 18.5464 4.15186 18.5836C4.15212 18.6209 4.15977 18.6577 4.17438 18.692C4.18899 18.7262 4.21026 18.7573 4.23696 18.7833L4.68485 19.2312C4.73682 19.2832 4.80708 19.3127 4.88057 19.3135C4.95406 19.3144 5.02496 19.2864 5.07809 19.2356L5.90173 18.4481C5.92868 18.4226 5.95033 18.3921 5.96543 18.3582C5.98054 18.3244 5.9888 18.2879 5.98974 18.2508C5.99068 18.2137 5.98429 18.1768 5.97092 18.1423C5.95756 18.1077 5.93748 18.0761 5.91186 18.0493C5.88624 18.0225 5.85557 18.001 5.82162 17.9861C5.78767 17.9712 5.7511 17.9632 5.71403 17.9625C5.67696 17.9617 5.64012 17.9684 5.60562 17.9819C5.57111 17.9955 5.53963 18.0158 5.51299 18.0415Z" fill="#443E3E"/>
<path d="M5.07193 16.7297C4.69439 16.7297 4.32534 16.8417 4.01143 17.0514C3.69752 17.2612 3.45286 17.5593 3.30838 17.9081C3.16391 18.2569 3.12611 18.6407 3.19977 19.011C3.27343 19.3813 3.45523 19.7214 3.72219 19.9884C3.98915 20.2553 4.32928 20.4371 4.69956 20.5108C5.06984 20.5844 5.45365 20.5466 5.80245 20.4021C6.15124 20.2576 6.44936 20.013 6.6591 19.699C6.86884 19.3851 6.98078 19.0161 6.98077 18.6385C6.9802 18.1325 6.77891 17.6473 6.42105 17.2894C6.0632 16.9316 5.57801 16.7303 5.07193 16.7297ZM5.07193 19.9849C4.80565 19.9849 4.54535 19.9059 4.32394 19.758C4.10254 19.61 3.92997 19.3998 3.82807 19.1538C3.72617 18.9077 3.69951 18.637 3.75146 18.3759C3.80341 18.1147 3.93163 17.8748 4.11992 17.6865C4.30821 17.4982 4.54811 17.37 4.80927 17.3181C5.07044 17.2661 5.34114 17.2928 5.58715 17.3947C5.83317 17.4966 6.04344 17.6691 6.19137 17.8905C6.33931 18.1119 6.41827 18.3723 6.41827 18.6385C6.41793 18.9955 6.27597 19.3378 6.02357 19.5902C5.77116 19.8427 5.42891 19.9847 5.07193 19.9851V19.9849Z" fill="#443E3E"/>
<path d="M8.35303 9.9375H12.103C12.1776 9.9375 12.2492 9.90787 12.3019 9.85512C12.3547 9.80238 12.3843 9.73084 12.3843 9.65625C12.3843 9.58166 12.3547 9.51012 12.3019 9.45738C12.2492 9.40463 12.1776 9.375 12.103 9.375H8.35303C8.27844 9.375 8.2069 9.40463 8.15415 9.45738C8.10141 9.51012 8.07178 9.58166 8.07178 9.65625C8.07178 9.73084 8.10141 9.80238 8.15415 9.85512C8.2069 9.90787 8.27844 9.9375 8.35303 9.9375Z" fill="#443E3E"/>
<path d="M8.35303 14.625H12.103C12.1776 14.625 12.2492 14.5954 12.3019 14.5426C12.3547 14.4899 12.3843 14.4183 12.3843 14.3438C12.3843 14.2692 12.3547 14.1976 12.3019 14.1449C12.2492 14.0921 12.1776 14.0625 12.103 14.0625H8.35303C8.27844 14.0625 8.2069 14.0921 8.15415 14.1449C8.10141 14.1976 8.07178 14.2692 8.07178 14.3438C8.07178 14.4183 8.10141 14.4899 8.15415 14.5426C8.2069 14.5954 8.27844 14.625 8.35303 14.625Z" fill="#443E3E"/>
<path d="M2.76562 4.41089C2.69103 4.41089 2.6195 4.44052 2.56675 4.49327C2.51401 4.54601 2.48438 4.61755 2.48438 4.69214V4.98745C2.48438 5.06204 2.51401 5.13358 2.56675 5.18633C2.6195 5.23907 2.69103 5.2687 2.76562 5.2687C2.84022 5.2687 2.91175 5.23907 2.9645 5.18633C3.01724 5.13358 3.04688 5.06204 3.04688 4.98745V4.69214C3.04688 4.61755 3.01724 4.54601 2.9645 4.49327C2.91175 4.44052 2.84022 4.41089 2.76562 4.41089Z" fill="#443E3E"/>
<path d="M2.76562 5.59644C2.69103 5.59644 2.6195 5.62607 2.56675 5.67881C2.51401 5.73156 2.48438 5.80309 2.48438 5.87769V8.59644C2.48438 8.67103 2.51401 8.74257 2.56675 8.79532C2.6195 8.84806 2.69103 8.87769 2.76562 8.87769C2.84022 8.87769 2.91175 8.84806 2.9645 8.79532C3.01724 8.74257 3.04688 8.67103 3.04688 8.59644V5.87769C3.04688 5.84075 3.0396 5.80418 3.02547 5.77006C3.01133 5.73593 2.99062 5.70493 2.9645 5.67881C2.93838 5.6527 2.90738 5.63198 2.87325 5.61784C2.83913 5.60371 2.80256 5.59644 2.76562 5.59644Z" fill="#443E3E"/>
<path d="M21.4346 12.5484C21.2464 12.509 21.0523 12.5072 20.8634 12.5433C20.6746 12.5793 20.4948 12.6524 20.3344 12.7584L17.4375 14.6609V4.10742C17.4375 3.17695 16.6728 2.4375 15.7423 2.4375H13.9688V1.56445C13.9688 1.48986 13.9391 1.41832 13.8864 1.36558C13.8336 1.31283 13.7621 1.2832 13.6875 1.2832C13.6129 1.2832 13.5414 1.31283 13.4886 1.36558C13.4359 1.41832 13.4063 1.48986 13.4063 1.56445V2.4375H11.0156V1.56445C11.0156 1.48986 10.986 1.41832 10.9333 1.36558C10.8805 1.31283 10.809 1.2832 10.7344 1.2832C10.6598 1.2832 10.5882 1.31283 10.5355 1.36558C10.4828 1.41832 10.4531 1.48986 10.4531 1.56445V2.4375H8.10938V1.56445C8.10938 1.48986 8.07974 1.41832 8.027 1.36558C7.97426 1.31283 7.90272 1.2832 7.82813 1.2832C7.75353 1.2832 7.682 1.31283 7.62925 1.36558C7.57651 1.41832 7.54688 1.48986 7.54688 1.56445V2.4375H5.15625V1.56445C5.15625 1.48986 5.12662 1.41832 5.07387 1.36558C5.02113 1.31283 4.94959 1.2832 4.875 1.2832C4.80041 1.2832 4.72887 1.31283 4.67613 1.36558C4.62338 1.41832 4.59375 1.48986 4.59375 1.56445V2.4375H3.08606C2.86586 2.43593 2.64753 2.47798 2.44366 2.56122C2.23979 2.64446 2.05443 2.76725 1.89826 2.9225C1.74209 3.07775 1.61821 3.26239 1.53376 3.46576C1.44932 3.66913 1.40598 3.88721 1.40625 4.10742V21.0293C1.40625 21.9598 2.15555 22.7344 3.08606 22.7344H15.7423C16.6728 22.7344 17.4375 21.9598 17.4375 21.0293V18.1622L21.9415 15.2044C22.1834 15.0455 22.3728 14.8184 22.4856 14.5519C22.5984 14.2853 22.6297 13.9913 22.5754 13.707C22.5212 13.4227 22.3838 13.1609 22.1807 12.9547C21.9777 12.7485 21.718 12.6071 21.4346 12.5484ZM13.6716 4.19878C13.77 4.19878 13.8661 4.22795 13.9479 4.2826C14.0297 4.33725 14.0935 4.41492 14.1311 4.5058C14.1687 4.59668 14.1786 4.69668 14.1594 4.79315C14.1402 4.88963 14.0928 4.97825 14.0233 5.0478C13.9537 5.11735 13.8651 5.16472 13.7686 5.18391C13.6722 5.2031 13.5722 5.19325 13.4813 5.15561C13.3904 5.11797 13.3127 5.05422 13.2581 4.97243C13.2034 4.89065 13.1743 4.79449 13.1743 4.69613C13.1744 4.56426 13.2268 4.43784 13.3201 4.3446C13.4133 4.25136 13.5397 4.19892 13.6716 4.19878ZM10.7408 4.19878C10.8392 4.19879 10.9354 4.22797 11.0171 4.28262C11.0989 4.33728 11.1627 4.41495 11.2003 4.50583C11.2379 4.59671 11.2478 4.69671 11.2286 4.79318C11.2094 4.88965 11.162 4.97827 11.0925 5.04782C11.0229 5.11737 10.9343 5.16473 10.8378 5.18392C10.7413 5.2031 10.6413 5.19325 10.5505 5.15561C10.4596 5.11796 10.3819 5.05422 10.3273 4.97243C10.2726 4.89064 10.2435 4.79449 10.2435 4.69613C10.2436 4.56426 10.2961 4.43784 10.3893 4.3446C10.4826 4.25136 10.609 4.19892 10.7408 4.19878ZM7.80999 4.19878C7.90835 4.19881 8.00449 4.228 8.08626 4.28267C8.16803 4.33733 8.23175 4.41502 8.26937 4.5059C8.30699 4.59678 8.31682 4.69677 8.29762 4.79324C8.27841 4.8897 8.23103 4.97831 8.16147 5.04785C8.09191 5.11739 8.00329 5.16474 7.90682 5.18392C7.81035 5.2031 7.71036 5.19324 7.61949 5.1556C7.52862 5.11795 7.45095 5.0542 7.39631 4.97242C7.34167 4.89064 7.3125 4.79448 7.3125 4.69613C7.31265 4.56424 7.36512 4.43781 7.45838 4.34456C7.55165 4.25132 7.6781 4.19889 7.80999 4.19878ZM4.87922 4.19878C4.97758 4.19879 5.07374 4.22797 5.15552 4.28262C5.2373 4.33728 5.30104 4.41495 5.33867 4.50583C5.37631 4.59671 5.38615 4.69671 5.36696 4.79318C5.34776 4.88965 5.30039 4.97827 5.23083 5.04782C5.16128 5.11737 5.07266 5.16473 4.97618 5.18392C4.87971 5.2031 4.77971 5.19325 4.68884 5.15561C4.59796 5.11796 4.52029 5.05422 4.46564 4.97243C4.411 4.89064 4.38183 4.79449 4.38183 4.69613C4.38198 4.56426 4.43443 4.43784 4.52768 4.3446C4.62093 4.25136 4.74735 4.19892 4.87922 4.19878ZM16.875 21.0293C16.8736 21.3302 16.7541 21.6185 16.5423 21.8322C16.3305 22.0459 16.0432 22.1679 15.7423 22.1719H3.08606C2.46563 22.1719 1.96875 21.6496 1.96875 21.0293V4.10742C1.9684 3.96106 1.99713 3.81609 2.05328 3.68092C2.10943 3.54576 2.19188 3.4231 2.29583 3.32007C2.39978 3.21703 2.52317 3.13568 2.65883 3.08074C2.79449 3.02579 2.93971 2.99835 3.08606 3H4.59375V3.67444C4.17188 3.798 3.81727 4.20909 3.81727 4.69631C3.81727 4.83546 3.84467 4.97325 3.89792 5.10181C3.95117 5.23037 4.02923 5.34718 4.12762 5.44557C4.22601 5.54396 4.34282 5.62201 4.47138 5.67526C4.59994 5.72851 4.73773 5.75592 4.87688 5.75592C5.01603 5.75592 5.15381 5.72851 5.28237 5.67526C5.41093 5.62201 5.52774 5.54396 5.62613 5.44557C5.72453 5.34718 5.80258 5.23037 5.85583 5.10181C5.90908 4.97325 5.93649 4.83546 5.93649 4.69631C5.93982 4.46317 5.86471 4.23567 5.72321 4.05035C5.58171 3.86503 5.38204 3.73264 5.15625 3.67444V3H7.54688V3.67444C7.32031 3.73229 7.11965 3.86436 6.97692 4.04958C6.83418 4.2348 6.75759 4.46248 6.75938 4.69631C6.75938 4.9777 6.87116 5.24756 7.07013 5.44653C7.2691 5.6455 7.53896 5.75728 7.82034 5.75728C8.10173 5.75728 8.37159 5.6455 8.57056 5.44653C8.76953 5.24756 8.88131 4.9777 8.88131 4.69631C8.87732 4.46622 8.80043 4.24332 8.66172 4.05969C8.52301 3.87607 8.32962 3.74118 8.10938 3.67444V3H10.4531V3.67444C10.0313 3.798 9.67777 4.20909 9.67777 4.69631C9.67777 4.97728 9.78938 5.24673 9.98805 5.4454C10.1867 5.64407 10.4562 5.75569 10.7371 5.75569C11.0181 5.75569 11.2876 5.64407 11.4862 5.4454C11.6849 5.24673 11.7965 4.97728 11.7965 4.69631C11.7997 4.46311 11.7244 4.23561 11.5828 4.0503C11.4412 3.86499 11.2415 3.73263 11.0156 3.67444V3H13.4063V3.67444C13.1798 3.7323 12.9792 3.86441 12.8366 4.04965C12.6941 4.23488 12.6177 4.46257 12.6197 4.69631C12.6197 4.97766 12.7315 5.24749 12.9304 5.44643C13.1294 5.64538 13.3992 5.75714 13.6806 5.75714C13.9619 5.75714 14.2317 5.64538 14.4307 5.44643C14.6296 5.24749 14.7414 4.97766 14.7414 4.69631C14.7414 4.20928 14.3906 3.79819 13.9688 3.67444V3H15.7423C16.3626 3 16.875 3.48712 16.875 4.10742V15.0303L15.8186 15.724C15.7861 15.7454 15.7584 15.7732 15.7373 15.8057C15.7161 15.8383 15.7019 15.8749 15.6956 15.9132C15.6892 15.9515 15.6909 15.9907 15.7005 16.0283C15.71 16.066 15.7273 16.1012 15.7511 16.1318C15.7946 16.1876 15.8574 16.2249 15.9271 16.2364C15.9968 16.248 16.0683 16.2328 16.1273 16.194L20.3094 13.4477L20.6496 13.9655L13.5641 18.6188L13.2239 18.1009L14.5551 17.2268C14.586 17.2066 14.6126 17.1804 14.6333 17.1499C14.6541 17.1193 14.6686 17.085 14.6761 17.0488C14.6836 17.0127 14.6839 16.9754 14.677 16.9391C14.6701 16.9028 14.6561 16.8682 14.6358 16.8374C14.6156 16.8065 14.5894 16.7799 14.5589 16.7591C14.5283 16.7384 14.494 16.7238 14.4578 16.7163C14.4216 16.7088 14.3843 16.7085 14.3481 16.7155C14.3118 16.7224 14.2772 16.7364 14.2463 16.7566L12.6812 17.7844C12.6784 17.7863 12.6758 17.7887 12.6728 17.7907C12.6657 17.7958 12.6588 17.8008 12.6519 17.8065C12.6497 17.8084 12.6477 17.8106 12.6456 17.8125H8.35313C8.27853 17.8125 8.207 17.8422 8.15425 17.8949C8.10151 17.9477 8.07188 18.0192 8.07188 18.0938C8.07188 18.1684 8.10151 18.2399 8.15425 18.2927C8.207 18.3454 8.27853 18.375 8.35313 18.375H12.3286L12.1294 18.7514C12.1208 18.7506 12.112 18.75 12.1031 18.75H8.35313C8.27853 18.75 8.207 18.7797 8.15425 18.8324C8.10151 18.8852 8.07188 18.9567 8.07188 19.0313C8.07188 19.1059 8.10151 19.1774 8.15425 19.2302C8.207 19.2829 8.27853 19.3125 8.35313 19.3125H11.8324L11.5073 19.9268C11.4846 19.9697 11.4734 20.0177 11.4747 20.0661C11.476 20.1146 11.4898 20.1619 11.5148 20.2034C11.5398 20.245 11.5752 20.2794 11.6174 20.3032C11.6596 20.3271 11.7072 20.3396 11.7557 20.3397C11.7582 20.3397 11.7607 20.3397 11.7631 20.3397L14.14 20.2774C14.1458 20.2774 14.1514 20.2762 14.1571 20.2758C14.1629 20.2753 14.1694 20.275 14.1755 20.274C14.1829 20.2729 14.1901 20.271 14.1974 20.2694C14.2027 20.2681 14.2081 20.2672 14.2134 20.2656C14.2257 20.2619 14.2377 20.2574 14.2494 20.2521C14.2523 20.2508 14.2549 20.249 14.2577 20.2474C14.2668 20.243 14.2757 20.238 14.2843 20.2327C14.2852 20.232 14.2862 20.2317 14.287 20.2311L16.875 18.5316V21.0293ZM13.62 19.7282L12.2294 19.7646L12.8604 18.5722L13.62 19.7282ZM14.2133 19.6066L14.1916 19.5738L13.8729 19.089L20.9584 14.4359L21.2986 14.9536L14.2133 19.6066ZM21.7607 14.6323L20.7878 13.1515C20.9077 13.1011 21.037 13.0771 21.167 13.081C21.297 13.0849 21.4246 13.1167 21.5412 13.1742C21.6088 13.2067 21.6715 13.2485 21.7275 13.2984C21.8222 13.3807 21.8988 13.4819 21.9523 13.5955C22.0058 13.709 22.0351 13.8325 22.0382 13.958C22.0413 14.0835 22.0183 14.2083 21.9705 14.3244C21.9227 14.4405 21.8513 14.5453 21.7607 14.6323Z" fill="#443E3E"/>
</svg>
