<svg width="24" height="24" viewBox="0 0 24 24" fill="none" xmlns="http://www.w3.org/2000/svg">
<path d="M15.4661 3.49241C15.1401 2.2724 14.3621 1.25493 13.2753 0.627466C12.5642 0.216984 11.7545 0 10.9335 0C9.24844 0 7.68165 0.900653 6.8446 2.35049L3.87818 7.48844C3.8779 7.48891 3.87757 7.48933 3.87729 7.4898C3.877 7.49027 3.87682 7.49078 3.87654 7.49125L0.910016 12.6293C-0.387854 14.8774 0.385205 17.7622 2.63323 19.0601C3.34413 19.4705 4.1538 19.6874 4.97467 19.6874C6.51151 19.6874 7.95399 18.9434 8.83322 17.6973C8.84128 17.6858 8.84883 17.6741 8.85581 17.662L14.9981 7.05883C15.6252 5.97631 15.7914 4.70979 15.4661 3.49241ZM8.05543 17.1733C7.35047 18.1609 6.2004 18.7499 4.97467 18.7499C4.31814 18.7499 3.67057 18.5764 3.10198 18.2481C1.30161 17.2087 0.682532 14.8984 1.72193 13.098L4.45488 8.36448L5.46953 8.95028C5.46962 8.95033 5.46967 8.95042 5.46976 8.95042C5.46981 8.95047 5.4699 8.95047 5.46995 8.95051L10.9769 12.1301L8.05543 17.1733ZM14.1869 6.58882L11.4468 11.319L6.3444 8.37301L7.65577 6.10165C7.78519 5.87745 7.70841 5.59076 7.48421 5.46134C7.26001 5.33187 6.97332 5.4087 6.8439 5.6329L5.53253 7.90427L4.92358 7.5527L7.65643 2.81929C8.3266 1.65852 9.58228 0.937496 10.9335 0.937496C11.5901 0.937496 12.2378 1.11103 12.8065 1.43939C13.6763 1.94151 14.2992 2.75661 14.5604 3.73442C14.8209 4.70961 14.6883 5.72332 14.1869 6.58882Z" fill="#1F8BA7"/>
<path d="M21.6681 16.0696C20.5235 15.7426 19.0141 15.5625 17.4179 15.5625C15.8216 15.5625 14.3122 15.7426 13.1676 16.0696C11.8077 16.4582 11.1175 17.0052 11.1159 17.6955C11.1159 17.6964 11.1157 17.6971 11.1157 17.6979V21.8645C11.1157 22.5573 11.805 23.1055 13.1642 23.4938C14.3067 23.8202 15.8173 24 17.4178 24C19.0182 24 20.5288 23.8202 21.6713 23.4938C23.0306 23.1055 23.7198 22.5573 23.7198 21.8645V17.7008C23.7199 17.6999 23.72 17.6989 23.72 17.6979C23.72 17.0065 23.0296 16.4586 21.6681 16.0696ZM13.4252 16.9711C14.4884 16.6673 15.9064 16.5 17.4179 16.5C18.9295 16.5 20.3474 16.6673 21.4107 16.9711C22.5408 17.294 22.7811 17.6408 22.7825 17.6974C22.7825 17.6976 22.7824 17.6978 22.7824 17.698V17.6988C22.7805 17.756 22.5395 18.1023 21.4107 18.4248C20.3474 18.7286 18.9295 18.8959 17.4179 18.8959C15.9064 18.8959 14.4884 18.7286 13.4252 18.4248C12.2918 18.101 12.0533 17.7531 12.0533 17.698C12.0533 17.6429 12.2918 17.2949 13.4252 16.9711ZM22.7825 21.8645C22.7824 21.9314 22.5389 22.2709 21.4138 22.5924C20.3528 22.8955 18.9336 23.0625 17.4179 23.0625C15.902 23.0625 14.4829 22.8956 13.4219 22.5924C12.2968 22.271 12.0533 21.9314 12.0533 21.8645V18.8967C12.3535 19.0563 12.7248 19.1997 13.1677 19.3262C14.3123 19.6533 15.8217 19.8334 17.4179 19.8334C19.0141 19.8334 20.5236 19.6533 21.6682 19.3262C22.111 19.1997 22.4823 19.0563 22.7824 18.8967V20.0665C22.1099 20.3993 21.2709 20.6689 20.3353 20.8508C20.0812 20.9002 19.9152 21.1462 19.9647 21.4004C20.0082 21.6243 20.2044 21.7797 20.4243 21.7797C20.454 21.7797 20.4841 21.7769 20.5143 21.771C21.3492 21.6087 22.1192 21.379 22.7825 21.0971V21.8645Z" fill="#1F8BA7"/>
<path d="M8.18831 4.24158C7.96411 4.11216 7.67747 4.18894 7.54801 4.41315L7.54041 4.42632C7.41099 4.65052 7.48777 4.93716 7.71197 5.06663C7.7858 5.10924 7.86638 5.12949 7.94593 5.12949C8.10792 5.12949 8.26547 5.04544 8.35228 4.89507L8.35988 4.8819C8.48934 4.65769 8.41252 4.37105 8.18831 4.24158Z" fill="#1F8BA7"/>
<path d="M19.4862 21.4668C19.4605 21.2093 19.2313 21.0213 18.9732 21.047L18.9626 21.0481C18.7049 21.0724 18.5158 21.3012 18.5402 21.5589C18.5632 21.8016 18.7674 21.9834 19.0063 21.9834C19.021 21.9834 19.036 21.9827 19.051 21.9813L19.0665 21.9798C19.324 21.9541 19.512 21.7244 19.4862 21.4668Z" fill="#1F8BA7"/>
</svg>
