<svg width="19" height="18" viewBox="0 0 19 18" fill="none" xmlns="http://www.w3.org/2000/svg">
<path d="M15.691 10.4765C15.5293 11.1445 15.2815 11.7457 14.9229 12.3293C14.8613 12.4295 14.8824 12.5666 14.9633 12.6492C15.1918 12.8777 15.4221 13.1062 15.6488 13.3347C15.6611 13.3471 15.6735 13.3611 15.6858 13.3734C15.7121 13.3998 15.7526 13.4736 15.7649 13.514C15.7701 13.5299 15.7736 13.5457 15.7772 13.5615C15.7965 13.6336 15.7772 13.5316 15.7807 13.5756C15.7842 13.6125 15.7842 13.6476 15.7824 13.6846C15.7789 13.7373 15.7807 13.6969 15.7824 13.6863C15.7772 13.7109 15.7719 13.7338 15.7649 13.7566C15.7596 13.7724 15.7543 13.7883 15.749 13.8023C15.7684 13.7549 15.7367 13.8234 15.7332 13.8287C15.7244 13.8428 15.7156 13.8568 15.7069 13.8709C15.6682 13.9306 15.7367 13.8463 15.684 13.8972C15.677 13.9043 15.6717 13.9113 15.6647 13.9166C15.6559 13.9254 15.6488 13.9324 15.6401 13.9412C15.5979 13.9834 15.5557 14.0256 15.5153 14.066C15.227 14.3543 14.9369 14.6443 14.6487 14.9326C14.5713 15.0099 14.4957 15.089 14.4166 15.1646C14.4096 15.1717 14.4008 15.1787 14.3955 15.184C14.341 15.2385 14.4149 15.1734 14.3797 15.198C14.3621 15.2103 14.3445 15.2209 14.327 15.2314C14.3129 15.2402 14.2971 15.2472 14.283 15.2543C14.3217 15.2349 14.2865 15.2525 14.2778 15.256C14.2549 15.2631 14.2303 15.2683 14.2074 15.2754C14.1547 15.2912 14.2408 15.2789 14.1811 15.2806C14.1494 15.2824 14.116 15.2824 14.0844 15.2806C14.0141 15.2789 14.1266 15.2965 14.058 15.2754C14.0422 15.2701 14.0264 15.2683 14.0106 15.2631C13.9947 15.2578 13.9789 15.2525 13.9649 15.2472C14.0158 15.2666 13.9438 15.2349 13.9385 15.2314C13.9244 15.2226 13.9104 15.2138 13.8963 15.2051C13.8401 15.1681 13.9174 15.2314 13.8699 15.1822C13.6309 14.9396 13.3865 14.7006 13.1457 14.4597C13.0649 14.3789 12.926 14.3578 12.8258 14.4193C12.2457 14.7814 11.6446 15.0293 10.9766 15.191C10.8641 15.2174 10.7832 15.3316 10.7832 15.4459C10.7832 15.7711 10.785 16.098 10.7832 16.4232C10.7832 16.4461 10.7832 16.4672 10.7815 16.49C10.7797 16.5568 10.7955 16.4689 10.7797 16.5023C10.7727 16.5181 10.7709 16.541 10.7656 16.5586C10.7621 16.5726 10.7569 16.5885 10.7516 16.6025C10.7692 16.5498 10.7463 16.6113 10.741 16.6236C10.7322 16.6412 10.7217 16.6553 10.7112 16.6728C10.7041 16.6851 10.6707 16.7221 10.7059 16.6834C10.6813 16.7115 10.6549 16.7379 10.6268 16.7625C10.6654 16.7291 10.6039 16.7765 10.5881 16.7871C10.5688 16.7994 10.5477 16.8099 10.5283 16.8187C10.5705 16.7994 10.5213 16.8187 10.5055 16.824C10.4914 16.8275 10.4756 16.831 10.4598 16.8363C10.393 16.8556 10.4897 16.8381 10.4475 16.8398C10.4264 16.8398 10.4071 16.8416 10.386 16.8433C10.3754 16.8433 10.3631 16.8433 10.3526 16.8433C10.2963 16.8433 10.2401 16.8433 10.1838 16.8433C9.77072 16.8433 9.3594 16.8433 8.94631 16.8433C8.83733 16.8433 8.72658 16.8451 8.6176 16.8433C8.60178 16.8433 8.5842 16.8416 8.56838 16.8416C8.50334 16.8398 8.58947 16.8556 8.55608 16.8398C8.54026 16.8328 8.5174 16.831 8.49983 16.8258C8.48576 16.8222 8.46994 16.817 8.45588 16.8117C8.51037 16.831 8.44358 16.8047 8.43479 16.8012C8.42072 16.7941 8.40842 16.7871 8.39612 16.7783C8.38908 16.773 8.33459 16.7291 8.37678 16.766C8.34865 16.7414 8.32229 16.715 8.29768 16.6869C8.33283 16.7256 8.27658 16.6535 8.26779 16.6377C8.25901 16.6219 8.25022 16.6043 8.24143 16.5867C8.26252 16.6324 8.24494 16.5955 8.24319 16.5849C8.23791 16.5656 8.23264 16.548 8.22737 16.5287C8.22385 16.5181 8.22209 16.5058 8.22033 16.4935C8.22385 16.5252 8.22385 16.5252 8.22033 16.4935C8.21154 16.1455 8.21858 15.7974 8.21858 15.4476C8.21858 15.3351 8.13772 15.2209 8.02522 15.1928C7.35725 15.031 6.75608 14.7832 6.17248 14.4246C6.07229 14.3631 5.93518 14.3842 5.85256 14.465C5.62405 14.6935 5.39553 14.9238 5.16702 15.1506C5.15471 15.1629 5.14065 15.1752 5.12834 15.1875C5.10198 15.2138 5.02815 15.2543 4.98772 15.2666C4.9719 15.2719 4.95608 15.2754 4.94026 15.2789C4.86819 15.2982 4.97014 15.2789 4.9262 15.2824C4.88928 15.2859 4.85413 15.2859 4.81721 15.2842C4.76448 15.2806 4.80491 15.2824 4.81545 15.2842C4.79084 15.2789 4.76799 15.2736 4.74514 15.2666C4.72932 15.2613 4.7135 15.256 4.69944 15.2508C4.7469 15.2701 4.67834 15.2385 4.67307 15.2349C4.65901 15.2262 4.64495 15.2174 4.63088 15.2086C4.57112 15.1699 4.65549 15.2385 4.60452 15.1857C4.59748 15.1787 4.59045 15.1734 4.58518 15.1664C4.57639 15.1576 4.56936 15.1506 4.56057 15.1418C4.51838 15.0996 4.4762 15.0574 4.43577 15.017C4.14749 14.7287 3.85745 14.4387 3.56917 14.1504C3.49182 14.073 3.41272 13.9974 3.33713 13.9183C3.3301 13.9113 3.32307 13.9025 3.3178 13.8972C3.26331 13.8428 3.32834 13.9166 3.30374 13.8814C3.29143 13.8638 3.28088 13.8463 3.27034 13.8287C3.26155 13.8146 3.25452 13.7988 3.24749 13.7847C3.26682 13.8234 3.24924 13.7883 3.24573 13.7795C3.2387 13.7566 3.23342 13.732 3.22639 13.7092C3.21057 13.6564 3.22288 13.7426 3.22112 13.6828C3.21936 13.6512 3.21936 13.6178 3.22112 13.5861C3.22288 13.5158 3.2053 13.6283 3.22639 13.5597C3.23167 13.5439 3.23342 13.5281 3.2387 13.5123C3.24397 13.4965 3.24924 13.4806 3.25452 13.4666C3.23518 13.5176 3.26682 13.4455 3.27034 13.4402C3.27913 13.4262 3.28792 13.4121 3.2967 13.398C3.33362 13.3418 3.27034 13.4191 3.31956 13.3717C3.56213 13.1326 3.8012 12.8883 4.04202 12.6474C4.12288 12.5666 4.14397 12.4277 4.08245 12.3275C3.71858 11.7457 3.47073 11.1445 3.30901 10.4765C3.28264 10.364 3.16838 10.2832 3.05413 10.2832C2.72893 10.2832 2.40198 10.2849 2.07678 10.2832C2.05393 10.2832 2.03284 10.2832 2.00999 10.2814C1.94319 10.2797 2.03108 10.2955 1.99768 10.2797C1.98186 10.2726 1.95901 10.2709 1.94143 10.2656C1.92737 10.2621 1.91155 10.2568 1.89749 10.2515C1.95022 10.2691 1.8887 10.2463 1.87639 10.241C1.85881 10.2322 1.84475 10.2217 1.82717 10.2111C1.81487 10.2041 1.77796 10.1707 1.81663 10.2058C1.7885 10.1812 1.76214 10.1549 1.73753 10.1267C1.77092 10.1654 1.72346 10.1039 1.71292 10.0881C1.70061 10.0687 1.69006 10.0476 1.68128 10.0283C1.70061 10.0705 1.68128 10.0213 1.676 10.0054C1.67249 9.99139 1.66897 9.97557 1.6637 9.95975C1.64436 9.89295 1.66194 9.98963 1.66018 9.94744C1.66018 9.92635 1.65842 9.90701 1.65667 9.88592C1.65667 9.87537 1.65667 9.86307 1.65667 9.85252C1.65667 9.79627 1.65667 9.74002 1.65667 9.68377C1.65667 9.27068 1.65667 8.85935 1.65667 8.44627C1.65667 8.33728 1.65491 8.22654 1.65667 8.11756C1.65667 8.10174 1.65842 8.08416 1.65842 8.06834C1.66018 8.0033 1.64436 8.08943 1.66018 8.05603C1.66721 8.04021 1.66897 8.01736 1.67424 7.99978C1.67776 7.98572 1.68303 7.9699 1.68831 7.95584C1.66897 8.01033 1.69534 7.94353 1.69885 7.93475C1.70588 7.92068 1.71292 7.90838 1.72171 7.89607C1.72698 7.88904 1.77092 7.83455 1.73401 7.87674C1.75862 7.84861 1.78499 7.82225 1.81311 7.79764C1.77444 7.83279 1.84651 7.77654 1.86233 7.76775C1.87815 7.75896 1.89573 7.75017 1.91331 7.74139C1.8676 7.76248 1.90452 7.7449 1.91506 7.74314C1.9344 7.73787 1.95198 7.7326 1.97131 7.72732C1.98186 7.72381 1.99417 7.72205 2.00647 7.72029C1.97483 7.72381 1.97483 7.72381 2.00647 7.72029C2.35452 7.7115 2.70256 7.71853 3.05237 7.71853C3.16487 7.71853 3.27913 7.63767 3.30725 7.52518C3.46897 6.85721 3.71682 6.25603 4.07541 5.67244C4.13694 5.57224 4.11584 5.43513 4.03499 5.35252C3.80647 5.124 3.5762 4.89549 3.34944 4.66697C3.33713 4.65467 3.32483 4.6406 3.31252 4.6283C3.28616 4.60193 3.24573 4.5281 3.23342 4.48767C3.22815 4.47185 3.22463 4.45603 3.22112 4.44021C3.20178 4.36814 3.22112 4.4701 3.2176 4.42615C3.21409 4.38924 3.21409 4.35408 3.21585 4.31717C3.21936 4.26443 3.2176 4.30486 3.21585 4.31541C3.22112 4.2908 3.22639 4.26795 3.23342 4.2451C3.2387 4.22927 3.24397 4.21345 3.24924 4.19939C3.22991 4.24685 3.26155 4.1783 3.26506 4.17302C3.27385 4.15896 3.28264 4.1449 3.29143 4.13084C3.3301 4.07107 3.26155 4.15545 3.31428 4.10447C3.32131 4.09744 3.32659 4.09041 3.33362 4.08513C3.34241 4.07635 3.34944 4.06931 3.35823 4.06052C3.40042 4.01834 3.4426 3.97615 3.48303 3.93572C3.77131 3.64744 4.06135 3.3574 4.34963 3.06912C4.42698 2.99177 4.50256 2.91267 4.58166 2.83709C4.5887 2.83006 4.59748 2.82302 4.60276 2.81775C4.65725 2.76326 4.58342 2.8283 4.61858 2.80369C4.63616 2.79138 4.65373 2.78084 4.67131 2.77029C4.68538 2.7615 4.7012 2.75447 4.71526 2.74744C4.67659 2.76677 4.71174 2.7492 4.72053 2.74568C4.74338 2.73865 4.76799 2.73338 4.79084 2.72635C4.84358 2.71052 4.75745 2.72283 4.81721 2.72107C4.84885 2.71931 4.88225 2.71931 4.91389 2.72107C4.9842 2.72283 4.8717 2.70525 4.94026 2.72635C4.95608 2.73162 4.9719 2.73338 4.98772 2.73865C5.00354 2.74392 5.01936 2.7492 5.03342 2.75447C4.98245 2.73513 5.05452 2.76677 5.05979 2.77029C5.07385 2.77908 5.08791 2.78787 5.10198 2.79666C5.15823 2.83357 5.08088 2.77029 5.12834 2.81951C5.36741 3.06209 5.61174 3.30115 5.85256 3.54197C5.93342 3.62283 6.07229 3.64392 6.17248 3.5824C6.75432 3.21853 7.35549 2.97068 8.02346 2.80896C8.13596 2.7826 8.21682 2.66834 8.21682 2.55408C8.21682 2.22888 8.21506 1.90193 8.21682 1.57674C8.21682 1.55388 8.21682 1.53279 8.21858 1.50994C8.22033 1.44314 8.20451 1.53103 8.22033 1.49763C8.22737 1.48181 8.22912 1.45896 8.2344 1.44138C8.23791 1.42732 8.24319 1.4115 8.24846 1.39744C8.23088 1.45017 8.25373 1.38865 8.25901 1.37634C8.26779 1.35877 8.27834 1.3447 8.28889 1.32713C8.29592 1.31482 8.32932 1.27791 8.29416 1.31658C8.31877 1.28845 8.34514 1.26209 8.37326 1.23748C8.33459 1.27088 8.39611 1.22341 8.41194 1.21287C8.43127 1.20056 8.45236 1.19002 8.4717 1.18123C8.42951 1.20056 8.47873 1.18123 8.49455 1.17595C8.50861 1.17244 8.52444 1.16892 8.54026 1.16365C8.60705 1.14431 8.51037 1.16189 8.55256 1.16013C8.57365 1.16013 8.59299 1.15838 8.61408 1.15662C8.62463 1.15662 8.63694 1.15662 8.64748 1.15662C8.70373 1.15662 8.75998 1.15662 8.81623 1.15662C9.22932 1.15662 9.64065 1.15662 10.0537 1.15662C10.1627 1.15662 10.2735 1.15486 10.3824 1.15662C10.3983 1.15662 10.4158 1.15838 10.4317 1.15838C10.4967 1.16013 10.4106 1.14431 10.444 1.16013C10.4598 1.16716 10.4826 1.16892 10.5002 1.1742C10.5143 1.17771 10.5301 1.18299 10.5442 1.18826C10.4897 1.16892 10.5565 1.19529 10.5653 1.19881C10.5793 1.20584 10.5916 1.21287 10.6039 1.22166C10.611 1.22693 10.6655 1.27088 10.6233 1.23396C10.6514 1.25857 10.6778 1.28494 10.7024 1.31306C10.6672 1.27439 10.7235 1.34646 10.7322 1.36228C10.741 1.3781 10.7498 1.39568 10.7586 1.41326C10.7375 1.36756 10.7551 1.40447 10.7569 1.41502C10.7621 1.43435 10.7674 1.45193 10.7727 1.47127C10.7762 1.48181 10.7779 1.49412 10.7797 1.50642C10.7762 1.47478 10.7762 1.47478 10.7797 1.50642C10.7885 1.85447 10.7815 2.20252 10.7815 2.55232C10.7815 2.66482 10.8623 2.77908 10.9748 2.8072C11.6428 2.96892 12.244 3.21677 12.8276 3.57537C12.9278 3.63689 13.0649 3.6158 13.1475 3.53494C13.376 3.30642 13.6045 3.07615 13.833 2.84939C13.8453 2.83709 13.8594 2.82478 13.8717 2.81248C13.8981 2.78611 13.9719 2.74568 14.0123 2.73338C14.0281 2.7281 14.044 2.72459 14.0598 2.72107C14.1319 2.70174 14.0299 2.72107 14.0738 2.71756C14.1108 2.71404 14.1459 2.71404 14.1828 2.7158C14.2356 2.71931 14.1951 2.71756 14.1846 2.7158C14.2092 2.72107 14.232 2.72635 14.2549 2.73338C14.2707 2.73865 14.2865 2.74392 14.3006 2.7492C14.2531 2.72986 14.3217 2.7615 14.327 2.76502C14.341 2.77381 14.3551 2.7826 14.3692 2.79138C14.4289 2.83006 14.3445 2.7615 14.3955 2.81424C14.4026 2.82127 14.4096 2.82654 14.4149 2.83357C14.4236 2.84236 14.4307 2.84939 14.4395 2.85818C14.4817 2.90037 14.5238 2.94256 14.5643 2.98299C14.8526 3.27127 15.1426 3.56131 15.4309 3.84959C15.5082 3.92693 15.5873 4.00252 15.6629 4.08162C15.6699 4.08865 15.677 4.09744 15.6822 4.10271C15.7367 4.1572 15.6717 4.08338 15.6963 4.11853C15.7086 4.13611 15.7192 4.15369 15.7297 4.17127C15.7385 4.18533 15.7455 4.20115 15.7526 4.21521C15.7332 4.17654 15.7508 4.2117 15.7543 4.22049C15.7613 4.24334 15.7666 4.26795 15.7736 4.2908C15.7895 4.34353 15.7772 4.2574 15.7789 4.31717C15.7807 4.34881 15.7807 4.38221 15.7789 4.41385C15.7772 4.48416 15.7947 4.37166 15.7736 4.44021C15.7684 4.45603 15.7666 4.47185 15.7613 4.48767C15.7561 4.50349 15.7508 4.51931 15.7455 4.53338C15.7649 4.4824 15.7332 4.55447 15.7297 4.55974C15.7209 4.57381 15.7121 4.58787 15.7033 4.60193C15.6664 4.65818 15.7297 4.58084 15.6805 4.6283C15.4379 4.86736 15.1988 5.1117 14.958 5.35252C14.8772 5.43338 14.8561 5.57224 14.9176 5.67244C15.2815 6.25428 15.5293 6.85545 15.691 7.52342C15.7174 7.63592 15.8317 7.71678 15.9459 7.71678C16.2711 7.71678 16.5981 7.71502 16.9233 7.71678C16.9461 7.71678 16.9672 7.71678 16.9901 7.71853C17.0569 7.72029 16.969 7.70447 17.0024 7.72029C17.0182 7.72732 17.041 7.72908 17.0586 7.73435C17.0727 7.73787 17.0885 7.74314 17.1026 7.74842C17.0498 7.73084 17.1113 7.75369 17.1236 7.75896C17.1412 7.76775 17.1553 7.7783 17.1729 7.78885C17.1852 7.79588 17.2221 7.82928 17.1834 7.79412C17.2115 7.81873 17.2379 7.8451 17.2625 7.87322C17.2291 7.83455 17.2766 7.89607 17.2871 7.91189C17.2994 7.93123 17.31 7.95232 17.3188 7.97166C17.2994 7.92947 17.3188 7.97869 17.324 7.99451C17.3276 8.00857 17.3311 8.02439 17.3363 8.04021C17.3557 8.10701 17.3381 8.01033 17.3399 8.05252C17.3399 8.07361 17.3416 8.09295 17.3434 8.11404C17.3434 8.12459 17.3434 8.13689 17.3434 8.14744C17.3434 8.20369 17.3434 8.25994 17.3434 8.31619C17.3434 8.72928 17.3434 9.1406 17.3434 9.55369C17.3434 9.66268 17.3451 9.77342 17.3434 9.8824C17.3434 9.89822 17.3416 9.9158 17.3416 9.93162C17.3399 9.99666 17.3557 9.91053 17.3399 9.94393C17.3328 9.95975 17.3311 9.9826 17.3258 10.0002C17.3223 10.0142 17.317 10.0301 17.3117 10.0441C17.3311 9.98963 17.3047 10.0564 17.3012 10.0652C17.2942 10.0793 17.2871 10.0916 17.2783 10.1039C17.2731 10.1109 17.2291 10.1654 17.266 10.1232C17.2414 10.1513 17.2151 10.1777 17.1869 10.2023C17.2256 10.1672 17.1535 10.2234 17.1377 10.2322C17.1219 10.241 17.1043 10.2498 17.0867 10.2586C17.1324 10.2375 17.0955 10.2551 17.085 10.2568C17.0656 10.2621 17.0481 10.2674 17.0287 10.2726C17.0182 10.2762 17.0059 10.2779 16.9936 10.2797C17.0252 10.2762 17.0252 10.2762 16.9936 10.2797C16.6455 10.2885 16.2975 10.2814 15.9477 10.2814C15.8106 10.2814 15.677 10.4027 15.684 10.5451C15.691 10.6875 15.8 10.8088 15.9477 10.8088C16.2781 10.8088 16.6104 10.814 16.9408 10.8088C17.3311 10.8035 17.6686 10.5679 17.811 10.2058C17.8725 10.0476 17.8707 9.8824 17.8707 9.71541C17.8707 9.27947 17.8707 8.84529 17.8707 8.40935C17.8707 8.2951 17.8777 8.17908 17.869 8.06482C17.8408 7.6658 17.5649 7.30896 17.1694 7.2158C16.9602 7.16658 16.7299 7.18767 16.5172 7.18767C16.3274 7.18767 16.1393 7.18767 15.9494 7.18767C16.0338 7.25271 16.1182 7.316 16.2043 7.38103C16.0356 6.68494 15.7578 6.01346 15.3834 5.40174C15.3694 5.50896 15.3553 5.61443 15.343 5.72166C15.5768 5.48787 15.8141 5.2576 16.0444 5.02029C16.3186 4.73728 16.3924 4.32771 16.2307 3.96912C16.1604 3.81267 16.0391 3.70017 15.9213 3.58064C15.6172 3.27654 15.3149 2.9742 15.0108 2.67009C14.9334 2.59275 14.8578 2.51189 14.777 2.43806C14.4729 2.15681 13.9895 2.09705 13.6397 2.33435C13.4639 2.45213 13.3197 2.62439 13.1721 2.77205C13.042 2.90213 12.9119 3.0322 12.7819 3.16228C12.8891 3.14822 12.9945 3.13416 13.1018 3.12185C12.4901 2.74744 11.8186 2.4697 11.1225 2.30095C11.1875 2.38533 11.2508 2.4697 11.3158 2.55584C11.3158 2.22537 11.3211 1.89314 11.3158 1.56267C11.3106 1.17244 11.075 0.834938 10.7129 0.692555C10.5547 0.631032 10.3895 0.63279 10.2225 0.63279C9.78654 0.63279 9.35236 0.63279 8.91643 0.63279C8.80217 0.63279 8.68615 0.625758 8.5719 0.634547C8.17287 0.662672 7.81604 0.938649 7.72287 1.33416C7.67365 1.54334 7.69475 1.77361 7.69475 1.98631C7.69475 2.17615 7.69475 2.36424 7.69475 2.55408C7.75979 2.4697 7.82307 2.38533 7.88811 2.2992C7.19201 2.46795 6.52053 2.74568 5.90881 3.1201C6.01604 3.13416 6.12151 3.14822 6.22873 3.16052C5.99494 2.92674 5.76467 2.68943 5.52737 2.45916C5.24436 2.18494 4.83479 2.11111 4.4762 2.27283C4.31975 2.34314 4.20725 2.46443 4.08772 2.5822C3.78362 2.88631 3.48127 3.18865 3.17717 3.49275C3.09983 3.5701 3.01897 3.64568 2.94514 3.72654C2.66389 4.03064 2.60413 4.51404 2.84143 4.86385C2.9592 5.03963 3.13147 5.18377 3.27913 5.33142C3.4092 5.4615 3.53928 5.59158 3.66936 5.72166C3.6553 5.61443 3.64124 5.50896 3.62893 5.40174C3.25452 6.01346 2.97678 6.68494 2.80803 7.38103C2.89241 7.316 2.97678 7.25271 3.06292 7.18767C2.73245 7.18767 2.40022 7.1824 2.06975 7.18767C1.67952 7.19295 1.34202 7.4285 1.19964 7.79061C1.13811 7.94881 1.13987 8.11404 1.13987 8.28103C1.13987 8.71697 1.13987 9.15115 1.13987 9.58709C1.13987 9.70135 1.13284 9.81736 1.14163 9.93162C1.16975 10.3306 1.44573 10.6875 1.84124 10.7806C2.05042 10.8299 2.28069 10.8088 2.49338 10.8088C2.68323 10.8088 2.87131 10.8088 3.06116 10.8088C2.97678 10.7437 2.89241 10.6804 2.80627 10.6154C2.97502 11.3115 3.25276 11.983 3.62717 12.5947C3.64124 12.4875 3.6553 12.382 3.6676 12.2748C3.43381 12.5086 3.19651 12.7388 2.96624 12.9762C2.69202 13.2592 2.61819 13.6687 2.77991 14.0273C2.85022 14.1838 2.97151 14.2963 3.08928 14.4158C3.39338 14.7199 3.69573 15.0222 3.99983 15.3263C4.07717 15.4037 4.15276 15.4846 4.23362 15.5584C4.53772 15.8396 5.02112 15.8994 5.37092 15.6621C5.5467 15.5443 5.69084 15.3721 5.8385 15.2244C5.96858 15.0943 6.09866 14.9642 6.22873 14.8342C6.12151 14.8482 6.01604 14.8623 5.90881 14.8746C6.52053 15.249 7.19201 15.5267 7.88811 15.6955C7.82307 15.6111 7.75979 15.5267 7.69475 15.4406C7.69475 15.7711 7.68947 16.1033 7.69475 16.4338C7.70002 16.824 7.93557 17.1615 8.29768 17.3039C8.45588 17.3654 8.62111 17.3637 8.78811 17.3637C9.22404 17.3637 9.65822 17.3637 10.0942 17.3637C10.2084 17.3637 10.3244 17.3707 10.4387 17.3619C10.8377 17.3338 11.1946 17.0578 11.2877 16.6623C11.3369 16.4531 11.3158 16.2228 11.3158 16.0101C11.3158 15.8203 11.3158 15.6322 11.3158 15.4424C11.2508 15.5267 11.1875 15.6111 11.1225 15.6972C11.8186 15.5285 12.4901 15.2508 13.1018 14.8763C12.9945 14.8623 12.8891 14.8482 12.7819 14.8359C13.0156 15.0697 13.2459 15.307 13.4832 15.5373C13.7662 15.8115 14.1758 15.8853 14.5344 15.7236C14.6908 15.6533 14.8033 15.532 14.9229 15.4142C15.227 15.1101 15.5293 14.8078 15.8334 14.5037C15.9108 14.4263 15.9916 14.3508 16.0654 14.2699C16.3467 13.9658 16.4065 13.4824 16.1692 13.1326C16.0514 12.9568 15.8791 12.8127 15.7315 12.665C15.6014 12.5349 15.4713 12.4049 15.3412 12.2748C15.3553 12.382 15.3694 12.4875 15.3817 12.5947C15.7561 11.983 16.0338 11.3115 16.2026 10.6154C16.2342 10.4818 16.1604 10.3236 16.018 10.2902C15.8791 10.2621 15.7262 10.3342 15.691 10.4765Z" fill="#1A1717"/>
<path d="M12.3477 9.00007C12.3477 9.08269 12.3441 9.16355 12.3389 9.24616C12.3354 9.28308 12.3318 9.31823 12.3283 9.35515C12.3266 9.36921 12.3195 9.42194 12.3266 9.36921C12.3231 9.39382 12.3195 9.41667 12.316 9.44128C12.2897 9.59772 12.2527 9.75241 12.2035 9.90182C12.1824 9.96862 12.1561 10.0337 12.1314 10.1005C12.1033 10.1708 12.1455 10.0706 12.1262 10.1128C12.1191 10.1303 12.1104 10.1479 12.1016 10.1655C12.084 10.2042 12.0647 10.2428 12.0453 10.2798C11.9768 10.4133 11.8994 10.5417 11.8115 10.6647C11.7887 10.6964 11.7658 10.7262 11.743 10.7579C11.7746 10.7157 11.7148 10.7913 11.7061 10.8036C11.6551 10.8651 11.6006 10.9249 11.5443 10.9829C11.4969 11.0321 11.4459 11.0796 11.3949 11.127C11.3668 11.1534 11.3369 11.178 11.3088 11.2026C11.2965 11.2131 11.2859 11.2219 11.2736 11.2325C11.2613 11.243 11.249 11.2518 11.2385 11.2606C11.2578 11.2448 11.2613 11.243 11.2455 11.2553C11.126 11.3467 10.9994 11.4276 10.8693 11.5014C10.8008 11.5383 10.7322 11.5735 10.6619 11.6051C10.6479 11.6122 10.6338 11.6174 10.6197 11.6245C10.5512 11.6561 10.6496 11.6122 10.6074 11.6297C10.567 11.6456 10.5283 11.6614 10.4879 11.6755C10.3402 11.7282 10.1873 11.7721 10.0326 11.802C10.001 11.809 9.96934 11.8143 9.9377 11.8196C9.91485 11.8231 9.89024 11.8266 9.86563 11.8301C9.87618 11.8284 9.91661 11.8249 9.86387 11.8301C9.78301 11.8389 9.70215 11.846 9.62129 11.8495C9.45782 11.8565 9.29434 11.8477 9.13086 11.8301C9.05352 11.8213 9.16426 11.8354 9.1168 11.8284C9.09747 11.8249 9.07637 11.8231 9.05704 11.8196C9.02188 11.8143 8.98672 11.8073 8.95157 11.8003C8.87071 11.7844 8.78985 11.7651 8.70899 11.7422C8.64043 11.7229 8.57364 11.7018 8.50684 11.6772C8.46993 11.6631 8.43477 11.6491 8.39786 11.635C8.35039 11.6157 8.38731 11.6297 8.3961 11.635C8.37149 11.6245 8.34688 11.6139 8.32227 11.6016C8.18516 11.5383 8.05332 11.4645 7.92852 11.3819C7.86348 11.3397 7.80196 11.2958 7.74043 11.2483C7.78086 11.2799 7.71758 11.229 7.70352 11.2184C7.66836 11.1885 7.63321 11.1587 7.59981 11.1288C7.48907 11.0286 7.38536 10.9214 7.29043 10.8053C7.28164 10.793 7.22012 10.7174 7.25352 10.7596C7.23067 10.7298 7.20782 10.6981 7.18497 10.6665C7.14102 10.6032 7.09883 10.5399 7.0584 10.4731C7.01797 10.4063 6.98106 10.3395 6.9459 10.271C6.93008 10.2393 6.91426 10.2077 6.9002 10.176C6.89141 10.1585 6.88438 10.1409 6.87559 10.1233C6.84395 10.053 6.89317 10.1725 6.86504 10.1005C6.80704 9.95456 6.75782 9.80514 6.72266 9.65222C6.70684 9.5819 6.69278 9.51159 6.68047 9.44128C6.67696 9.42194 6.67344 9.40085 6.67168 9.38151C6.66465 9.33581 6.67872 9.4448 6.66993 9.36745C6.66465 9.32351 6.66114 9.27956 6.65762 9.23386C6.64532 9.0739 6.64532 8.91394 6.65938 8.75573C6.66289 8.71531 6.66641 8.67488 6.67168 8.63445C6.67696 8.58171 6.67344 8.62214 6.67168 8.63269C6.6752 8.61335 6.67696 8.59226 6.68047 8.57292C6.69454 8.49031 6.71036 8.40769 6.72969 8.32683C6.76661 8.17742 6.81407 8.03328 6.87207 7.89089C6.88965 7.84871 6.84571 7.94714 6.87735 7.87859C6.88438 7.86453 6.88965 7.85046 6.89668 7.8364C6.9125 7.80124 6.93008 7.76609 6.94766 7.73093C6.98282 7.66238 7.01973 7.59382 7.06016 7.52878C7.10059 7.46375 7.14278 7.39871 7.18672 7.33543C7.20606 7.3073 7.22715 7.27918 7.24825 7.25105C7.27461 7.2159 7.20957 7.29851 7.25704 7.2405C7.2711 7.22293 7.28516 7.20535 7.30098 7.18777C7.39942 7.07 7.50665 6.96101 7.6209 6.85906C7.64727 6.83621 7.67364 6.81336 7.7 6.79226C7.71231 6.78347 7.78614 6.72195 7.74571 6.75535C7.80723 6.70789 7.86875 6.66394 7.93379 6.62176C8.06211 6.53738 8.19922 6.4618 8.33809 6.39852C8.35567 6.38973 8.37325 6.38269 8.39082 6.37391C8.43301 6.35633 8.33282 6.39676 8.40313 6.36863C8.43653 6.35633 8.46817 6.34227 8.50157 6.32996C8.57891 6.30184 8.65801 6.27723 8.73711 6.25437C8.80567 6.23504 8.87422 6.21922 8.94454 6.20516C8.98321 6.19637 9.02364 6.18934 9.06231 6.18406C9.07813 6.1823 9.09395 6.17879 9.10977 6.17703C9.14141 6.17176 9.14141 6.17176 9.11153 6.17703C9.12383 6.17527 9.13614 6.17352 9.14668 6.17352C9.30489 6.15594 9.46485 6.14891 9.62481 6.15594C9.70567 6.15945 9.78653 6.16648 9.86739 6.17527C9.87793 6.17703 9.92012 6.1823 9.86915 6.17527C9.88848 6.17879 9.90958 6.18055 9.92891 6.18406C9.97286 6.19109 10.015 6.19813 10.059 6.20691C10.2137 6.23855 10.3648 6.2825 10.5125 6.33699C10.5424 6.34754 10.5705 6.35984 10.6004 6.37039C10.6725 6.39851 10.5529 6.34754 10.6232 6.38094C10.6373 6.38797 10.6514 6.39324 10.6654 6.40027C10.7357 6.43191 10.8043 6.46707 10.8729 6.50398C11.0082 6.57781 11.1365 6.66219 11.2578 6.75711C11.2174 6.72547 11.2578 6.75711 11.2684 6.7659C11.2824 6.7782 11.2982 6.79051 11.3123 6.80281C11.3387 6.82566 11.365 6.84676 11.3897 6.87137C11.4494 6.92586 11.5074 6.98035 11.5637 7.03836C11.6111 7.08758 11.6568 7.14031 11.7008 7.19304C11.7131 7.20711 11.7254 7.22293 11.7377 7.23699C11.7465 7.24754 11.7781 7.28797 11.7465 7.24754C11.7729 7.28093 11.7975 7.31433 11.8221 7.34949C11.9082 7.47254 11.9856 7.60086 12.0541 7.73621C12.0717 7.77136 12.0875 7.80652 12.1051 7.84167C12.1121 7.85574 12.1174 7.8698 12.1244 7.88386C12.1561 7.95417 12.1068 7.83464 12.135 7.90671C12.1631 7.97878 12.1912 8.05261 12.2141 8.12644C12.2615 8.2741 12.2967 8.42351 12.3213 8.57644C12.3248 8.59577 12.3283 8.61687 12.3301 8.6362C12.3231 8.58523 12.3283 8.62741 12.3301 8.63796C12.3336 8.67839 12.3389 8.71882 12.3424 8.75925C12.3441 8.83659 12.3477 8.91745 12.3477 9.00007C12.3477 9.13718 12.4689 9.27077 12.6113 9.26374C12.7537 9.25671 12.875 9.14773 12.875 9.00007C12.8715 8.30749 12.6606 7.61492 12.2545 7.05242C11.852 6.49168 11.2982 6.06805 10.6496 5.82723C9.3418 5.34207 7.79844 5.75867 6.91075 6.83445C6.45899 7.38113 6.18829 8.04558 6.13204 8.75398C6.0793 9.44128 6.24805 10.1462 6.60313 10.7368C6.95118 11.3133 7.475 11.7897 8.09024 12.0674C8.74766 12.3628 9.4754 12.4471 10.1838 12.3047C11.5268 12.0358 12.6201 10.9003 12.8275 9.54323C12.8557 9.36218 12.8715 9.18112 12.8732 9.00007C12.8732 8.86296 12.752 8.72937 12.6096 8.7364C12.4672 8.74343 12.3477 8.85241 12.3477 9.00007Z" fill="#1A1717"/>
</svg>
