<svg width="150" height="150" viewBox="0 0 150 150" fill="none" xmlns="http://www.w3.org/2000/svg">
<rect width="150" height="150" fill="white"/>
<path d="M82.6005 98.9997H67.4005C66.764 98.9997 66.1535 98.7469 65.7034 98.2968C65.2533 97.8467 65.0005 97.2363 65.0005 96.5997V87.3998C65.0005 86.7632 64.7476 86.1528 64.2975 85.7027C63.8475 85.2526 63.237 84.9997 62.6005 84.9997H53.4005C52.764 84.9997 52.1535 84.7469 51.7034 84.2968C51.2533 83.8467 51.0005 83.2363 51.0005 82.5997V67.3998C51.0005 66.7632 51.2533 66.1528 51.7034 65.7027C52.1535 65.2526 52.764 64.9998 53.4005 64.9998H62.6005C63.237 64.9998 63.8475 64.7469 64.2975 64.2968C64.7476 63.8467 65.0005 63.2363 65.0005 62.5998V53.3998C65.0005 52.7632 65.2533 52.1528 65.7034 51.7027C66.1535 51.2526 66.764 50.9998 67.4005 50.9998H82.6005C83.237 50.9998 83.8475 51.2526 84.2975 51.7027C84.7476 52.1528 85.0005 52.7632 85.0005 53.3998V62.5998C85.0005 63.2363 85.2533 63.8467 85.7034 64.2968C86.1535 64.7469 86.764 64.9998 87.4005 64.9998H96.6005C97.237 64.9998 97.8475 65.2526 98.2975 65.7027C98.7476 66.1528 99.0005 66.7632 99.0005 67.3998V82.5997C99.0005 83.2363 98.7476 83.8467 98.2975 84.2968C97.8475 84.7469 97.237 84.9997 96.6005 84.9997H87.4005C86.764 84.9997 86.1535 85.2526 85.7034 85.7027C85.2533 86.1528 85.0005 86.7632 85.0005 87.3998V96.5997C85.0005 97.2363 84.7476 97.8467 84.2975 98.2968C83.8475 98.7469 83.237 98.9997 82.6005 98.9997V98.9997Z" stroke="#79B9CA" stroke-width="3"/>
<path d="M75.0002 117.857C98.6702 117.857 117.857 98.67 117.857 75C117.857 51.33 98.6702 32.1428 75.0002 32.1428C51.3302 32.1428 32.1431 51.33 32.1431 75C32.1431 98.67 51.3302 117.857 75.0002 117.857Z" stroke="#79B9CA" stroke-width="3" stroke-linecap="round" stroke-linejoin="round"/>
</svg>
