<svg width="70" height="70" viewBox="0 0 70 70" fill="none" xmlns="http://www.w3.org/2000/svg">
<rect x="0.5" y="0.5" width="69" height="69" rx="19.5" fill="white"/>
<path d="M38.547 46.2H31.4536C31.1566 46.2 30.8717 46.082 30.6617 45.872C30.4516 45.662 30.3336 45.3771 30.3336 45.08V40.7867C30.3336 40.4897 30.2156 40.2048 30.0056 39.9948C29.7955 39.7847 29.5107 39.6667 29.2136 39.6667H24.9203C24.6233 39.6667 24.3384 39.5487 24.1283 39.3387C23.9183 39.1286 23.8003 38.8438 23.8003 38.5467V31.4534C23.8003 31.1563 23.9183 30.8715 24.1283 30.6614C24.3384 30.4514 24.6233 30.3334 24.9203 30.3334H29.2136C29.5107 30.3334 29.7955 30.2154 30.0056 30.0053C30.2156 29.7953 30.3336 29.5104 30.3336 29.2134V24.92C30.3336 24.623 30.4516 24.3381 30.6617 24.1281C30.8717 23.918 31.1566 23.8 31.4536 23.8H38.547C38.844 23.8 39.1289 23.918 39.3389 24.1281C39.549 24.3381 39.667 24.623 39.667 24.92V29.2134C39.667 29.5104 39.785 29.7953 39.995 30.0053C40.205 30.2154 40.4899 30.3334 40.787 30.3334H45.0803C45.3773 30.3334 45.6622 30.4514 45.8723 30.6614C46.0823 30.8715 46.2003 31.1563 46.2003 31.4534V38.5467C46.2003 38.8438 46.0823 39.1286 45.8723 39.3387C45.6622 39.5487 45.3773 39.6667 45.0803 39.6667H40.787C40.4899 39.6667 40.205 39.7847 39.995 39.9948C39.785 40.2048 39.667 40.4897 39.667 40.7867V45.08C39.667 45.3771 39.549 45.662 39.3389 45.872C39.1289 46.082 38.844 46.2 38.547 46.2V46.2Z" stroke="#79B9CA" stroke-width="2"/>
<path d="M35 55C46.046 55 55 46.046 55 35C55 23.954 46.046 15 35 15C23.954 15 15 23.954 15 35C15 46.046 23.954 55 35 55Z" stroke="#79B9CA" stroke-width="2" stroke-linecap="round" stroke-linejoin="round"/>
<rect x="0.5" y="0.5" width="69" height="69" rx="19.5" stroke="#F3F3F3"/>
</svg>
