<svg width="18" height="18" viewBox="0 0 18 18" fill="none" xmlns="http://www.w3.org/2000/svg">
<path fill-rule="evenodd" clip-rule="evenodd" d="M7.88673 0.532501C3.81759 0.532501 0.537109 3.86374 0.537109 7.95044C0.537109 12.0371 3.81759 15.3684 7.88673 15.3684C11.9559 15.3684 15.2364 12.0371 15.2364 7.95044C15.2364 5.98651 14.4646 4.1009 13.0875 2.70896C11.71 1.31666 9.83945 0.532501 7.88673 0.532501ZM2.53711 7.95044C2.53711 4.94808 4.94228 2.5325 7.88673 2.5325C9.30207 2.5325 10.6616 3.10069 11.6657 4.11559C12.6702 5.13084 13.2364 6.51008 13.2364 7.95044C13.2364 10.9528 10.8312 13.3684 7.88673 13.3684C4.94228 13.3684 2.53711 10.9528 2.53711 7.95044ZM15.0166 13.6076C14.6261 13.2171 13.993 13.2171 13.6024 13.6076C13.2119 13.9981 13.2119 14.6313 13.6024 15.0218L15.7552 17.1746C16.1457 17.5651 16.7789 17.5651 17.1694 17.1746C17.56 16.7841 17.56 16.1509 17.1694 15.7604L15.0166 13.6076Z" fill="#4B4747"/>
</svg>
