<svg width="12" height="16" viewBox="0 0 12 16" fill="none" xmlns="http://www.w3.org/2000/svg">
<path d="M5.99984 0C3.05909 0 0.666504 2.39259 0.666504 5.33334C0.666504 6.21616 0.887222 7.09147 1.30682 7.86784L5.70818 15.8281C5.76678 15.9342 5.87843 16 5.99984 16C6.12124 16 6.2329 15.9342 6.29149 15.8281L10.6945 7.86522C11.1125 7.09147 11.3332 6.21613 11.3332 5.33331C11.3332 2.39259 8.94058 0 5.99984 0ZM5.99984 8C4.52946 8 3.33319 6.80372 3.33319 5.33334C3.33319 3.86297 4.52946 2.66669 5.99984 2.66669C7.47021 2.66669 8.66649 3.86297 8.66649 5.33334C8.66649 6.80372 7.47021 8 5.99984 8Z" fill="#999999"/>
</svg>
