<svg width="17" height="18" viewBox="0 0 17 18" fill="none" xmlns="http://www.w3.org/2000/svg">
<path d="M12.9493 3.55008C12.7516 3.55008 12.5582 3.60873 12.3938 3.71861C12.2293 3.82849 12.1012 3.98467 12.0255 4.1674C11.9498 4.35012 11.93 4.55119 11.9686 4.74517C12.0071 4.93915 12.1024 5.11734 12.2422 5.25719C12.3821 5.39704 12.5603 5.49228 12.7543 5.53087C12.9482 5.56945 13.1493 5.54965 13.332 5.47396C13.5148 5.39827 13.6709 5.2701 13.7808 5.10565C13.8907 4.9412 13.9494 4.74786 13.9494 4.55008C13.9494 4.28486 13.844 4.03051 13.6565 3.84297C13.4689 3.65544 13.2146 3.55008 12.9493 3.55008ZM16.7827 5.56675C16.7665 4.87533 16.637 4.19125 16.3993 3.54175C16.1875 2.98603 15.8577 2.48281 15.4327 2.06675C15.02 1.6396 14.5156 1.3119 13.9577 1.10841C13.3099 0.863549 12.6251 0.73109 11.9327 0.716748C11.0493 0.666748 10.766 0.666748 8.49935 0.666748C6.23268 0.666748 5.94935 0.666748 5.06602 0.716748C4.37364 0.73109 3.6888 0.863549 3.04102 1.10841C2.48408 1.31396 1.98013 1.64138 1.56602 2.06675C1.13887 2.4794 0.811163 2.98378 0.607682 3.54175C0.362816 4.18953 0.230357 4.87438 0.216016 5.56675C0.166016 6.45008 0.166016 6.73342 0.166016 9.00008C0.166016 11.2667 0.166016 11.5501 0.216016 12.4334C0.230357 13.1258 0.362816 13.8106 0.607682 14.4584C0.811163 15.0164 1.13887 15.5208 1.56602 15.9334C1.98013 16.3588 2.48408 16.6862 3.04102 16.8917C3.6888 17.1366 4.37364 17.2691 5.06602 17.2834C5.94935 17.3334 6.23268 17.3334 8.49935 17.3334C10.766 17.3334 11.0493 17.3334 11.9327 17.2834C12.6251 17.2691 13.3099 17.1366 13.9577 16.8917C14.5156 16.6883 15.02 16.3606 15.4327 15.9334C15.8596 15.5189 16.1896 15.0152 16.3993 14.4584C16.637 13.8089 16.7665 13.1248 16.7827 12.4334C16.7827 11.5501 16.8327 11.2667 16.8327 9.00008C16.8327 6.73342 16.8327 6.45008 16.7827 5.56675ZM15.2827 12.3334C15.2766 12.8624 15.1808 13.3865 14.9993 13.8834C14.8663 14.2461 14.6526 14.5738 14.3743 14.8417C14.1041 15.1172 13.777 15.3304 13.416 15.4667C12.9191 15.6482 12.395 15.744 11.866 15.7501C11.0327 15.7917 10.7243 15.8001 8.53268 15.8001C6.34102 15.8001 6.03268 15.8001 5.19935 15.7501C4.65009 15.7604 4.10318 15.6758 3.58268 15.5001C3.2375 15.3568 2.92548 15.1441 2.66602 14.8751C2.38942 14.6074 2.17839 14.2794 2.04935 13.9167C1.8459 13.4127 1.73305 12.8767 1.71602 12.3334C1.71602 11.5001 1.66602 11.1917 1.66602 9.00008C1.66602 6.80841 1.66602 6.50008 1.71602 5.66675C1.71975 5.12596 1.81847 4.59004 2.00768 4.08341C2.15439 3.73167 2.37957 3.41813 2.66602 3.16675C2.91919 2.88022 3.23209 2.65266 3.58268 2.50008C4.09064 2.31678 4.62601 2.22098 5.16602 2.21675C5.99935 2.21675 6.30768 2.16675 8.49935 2.16675C10.691 2.16675 10.9993 2.16675 11.8327 2.21675C12.3617 2.22282 12.8858 2.31862 13.3827 2.50008C13.7614 2.64062 14.1013 2.86912 14.3743 3.16675C14.6474 3.42273 14.8608 3.73569 14.9993 4.08341C15.1846 4.59086 15.2804 5.12656 15.2827 5.66675C15.3243 6.50008 15.3327 6.80841 15.3327 9.00008C15.3327 11.1917 15.3243 11.5001 15.2827 12.3334ZM8.49935 4.72508C7.65419 4.72673 6.82848 4.97885 6.12656 5.4496C5.42464 5.92034 4.878 6.58858 4.55571 7.36988C4.23342 8.15117 4.14995 9.01047 4.31584 9.83919C4.48174 10.6679 4.88955 11.4289 5.48775 12.0259C6.08595 12.6229 6.84769 13.0293 7.67673 13.1935C8.50577 13.3578 9.3649 13.2727 10.1456 12.9489C10.9262 12.6251 11.5934 12.0771 12.0628 11.3743C12.5322 10.6714 12.7827 9.84524 12.7827 9.00008C12.7838 8.43767 12.6737 7.88059 12.4587 7.36088C12.2437 6.84117 11.9281 6.36909 11.5301 5.97179C11.132 5.57449 10.6593 5.25981 10.1392 5.04586C9.61905 4.8319 9.06176 4.72288 8.49935 4.72508ZM8.49935 11.7751C7.95051 11.7751 7.41399 11.6123 6.95764 11.3074C6.5013 11.0025 6.14562 10.5691 5.93558 10.062C5.72555 9.55496 5.6706 8.997 5.77767 8.45871C5.88474 7.92041 6.14904 7.42595 6.53713 7.03786C6.92522 6.64977 7.41968 6.38548 7.95797 6.2784C8.49627 6.17133 9.05423 6.22628 9.5613 6.43632C10.0684 6.64635 10.5018 7.00203 10.8067 7.45837C11.1116 7.91472 11.2743 8.45124 11.2743 9.00008C11.2743 9.3645 11.2026 9.72535 11.0631 10.062C10.9237 10.3987 10.7193 10.7046 10.4616 10.9623C10.2039 11.22 9.89797 11.4244 9.5613 11.5638C9.22462 11.7033 8.86377 11.7751 8.49935 11.7751Z" fill="white"/>
</svg>
