<svg width="20" height="20" viewBox="0 0 20 20" fill="none" xmlns="http://www.w3.org/2000/svg">
<path d="M16.6941 16.6624H3.30664C2.60241 16.6616 1.92727 16.3815 1.4293 15.8835C0.931337 15.3855 0.651218 14.7104 0.650391 14.0062V5.99365C0.651218 5.28942 0.931337 4.61428 1.4293 4.11631C1.92727 3.61835 2.60241 3.33823 3.30664 3.3374H16.6941C17.3984 3.33823 18.0735 3.61835 18.5715 4.11631C19.0694 4.61428 19.3496 5.28942 19.3504 5.99365V14.0062C19.3496 14.7104 19.0694 15.3855 18.5715 15.8835C18.0735 16.3815 17.3984 16.6616 16.6941 16.6624ZM3.30664 4.2749C2.8508 4.2749 2.41363 4.45598 2.0913 4.77831C1.76897 5.10064 1.58789 5.53781 1.58789 5.99365V14.0062C1.58789 14.462 1.76897 14.8992 2.0913 15.2215C2.41363 15.5438 2.8508 15.7249 3.30664 15.7249H16.6941C17.15 15.7249 17.5872 15.5438 17.9095 15.2215C18.2318 14.8992 18.4129 14.462 18.4129 14.0062V5.99365C18.4129 5.53781 18.2318 5.10064 17.9095 4.77831C17.5872 4.45598 17.15 4.2749 16.6941 4.2749H3.30664Z" fill="white" stroke="white" stroke-width="0.3"/>
<path d="M9.99986 11.8999C9.4216 11.9009 8.8588 11.7132 8.39673 11.3656L1.09986 5.84682C1.0483 5.81064 1.00457 5.76443 0.971267 5.71097C0.937965 5.65751 0.915779 5.59788 0.906035 5.53566C0.89629 5.47343 0.899186 5.40988 0.91455 5.34879C0.929915 5.28771 0.957432 5.23035 0.995458 5.18014C1.03348 5.12992 1.08124 5.08789 1.13587 5.05655C1.19051 5.0252 1.2509 5.00519 1.31344 4.99771C1.37598 4.99022 1.43938 4.99542 1.49987 5.01298C1.56036 5.03055 1.61668 5.06012 1.66548 5.09994L8.96236 10.6249C9.26201 10.8486 9.62593 10.9695 9.99986 10.9695C10.3738 10.9695 10.7377 10.8486 11.0374 10.6249L18.3342 5.09994C18.383 5.06012 18.4394 5.03055 18.4998 5.01298C18.5603 4.99542 18.6237 4.99022 18.6863 4.99771C18.7488 5.00519 18.8092 5.0252 18.8638 5.05655C18.9185 5.08789 18.9662 5.12992 19.0043 5.18014C19.0423 5.23035 19.0698 5.28771 19.0852 5.34879C19.1005 5.40988 19.1034 5.47343 19.0937 5.53566C19.0839 5.59788 19.0617 5.65751 19.0284 5.71097C18.9951 5.76443 18.9514 5.81064 18.8999 5.84682L11.603 11.3656C11.1409 11.7132 10.5781 11.9009 9.99986 11.8999Z" fill="white" stroke="white" stroke-width="0.3"/>
<path d="M1.30352 15.1331C1.20843 15.1332 1.11554 15.1056 1.03719 15.0538C0.958835 15.002 0.898714 14.9285 0.864806 14.8431C0.830898 14.7577 0.824804 14.6644 0.847335 14.5755C0.869866 14.4867 0.919955 14.4066 0.990956 14.3458L6.74216 9.41444C6.835 9.33474 6.95698 9.29376 7.08124 9.30053C7.20551 9.30729 7.3219 9.36124 7.4048 9.4505C7.48769 9.53976 7.53031 9.65703 7.52328 9.77651C7.51624 9.89598 7.46013 10.0079 7.36729 10.0876L1.61609 15.0189C1.53068 15.0936 1.41898 15.1344 1.30352 15.1331ZM18.7009 15.1331C18.5854 15.1344 18.4737 15.0936 18.3883 15.0189L12.6371 10.0876C12.5912 10.0481 12.5537 10.0003 12.527 9.94696C12.5002 9.89358 12.4846 9.83567 12.4811 9.77651C12.4777 9.71735 12.4863 9.65811 12.5067 9.60217C12.527 9.54624 12.5586 9.4947 12.5996 9.4505C12.6407 9.4063 12.6904 9.37031 12.7459 9.34458C12.8014 9.31884 12.8616 9.30388 12.9232 9.30053C12.9847 9.29718 13.0463 9.30551 13.1045 9.32506C13.1627 9.3446 13.2163 9.37498 13.2623 9.41444L19.0103 14.3458C19.0813 14.4066 19.1314 14.4867 19.154 14.5755C19.1765 14.6644 19.1704 14.7577 19.1365 14.8431C19.1026 14.9285 19.0425 15.002 18.9641 15.0538C18.8858 15.1056 18.7929 15.1332 18.6978 15.1331H18.7009Z" fill="white" stroke="white" stroke-width="0.3"/>
</svg>
