<svg width="18" height="16" viewBox="0 0 18 16" fill="none" xmlns="http://www.w3.org/2000/svg">
<path d="M17.3683 0.681297C17.1745 0.518523 16.9401 0.411579 16.6901 0.37194C16.4402 0.332301 16.1842 0.361463 15.9495 0.456297L1.63078 6.18755C1.42206 6.27425 1.2437 6.42085 1.11822 6.60884C0.992746 6.79683 0.925781 7.01778 0.925781 7.2438C0.925781 7.46982 0.992746 7.69077 1.11822 7.87876C1.2437 8.06675 1.42206 8.21335 1.63078 8.30005L2.55578 8.6813C2.7083 8.74581 2.88018 8.74717 3.03369 8.68506C3.1872 8.62295 3.30979 8.50246 3.37453 8.35005C3.4063 8.27415 3.42276 8.19272 3.42298 8.11044C3.4232 8.02816 3.40717 7.94665 3.37581 7.87058C3.34446 7.79451 3.29839 7.72538 3.24025 7.66716C3.18212 7.60894 3.11306 7.56277 3.03703 7.5313L2.34953 7.25005L16.4183 1.62505C16.4399 1.61179 16.4648 1.60477 16.4902 1.60477C16.5155 1.60477 16.5404 1.61179 16.562 1.62505C16.5824 1.64237 16.5978 1.66483 16.6066 1.69011C16.6154 1.71539 16.6173 1.74255 16.612 1.7688L14.0433 13.7563C14.0349 13.799 14.0154 13.8387 13.9869 13.8716C13.9584 13.9045 13.9218 13.9294 13.8808 13.9438C13.8405 13.9598 13.7967 13.9647 13.7538 13.9581C13.711 13.9516 13.6707 13.9337 13.637 13.9063L8.63703 10.0063L13.5308 5.06255C13.6353 4.95409 13.6972 4.81152 13.705 4.66108C13.7127 4.51064 13.6659 4.36245 13.5731 4.24379C13.4803 4.12513 13.3478 4.04398 13.1999 4.01527C13.052 3.98656 12.8987 4.01223 12.7683 4.08755L5.59328 8.33755C5.51359 8.37356 5.44235 8.4259 5.38415 8.49118C5.32596 8.55646 5.28211 8.63322 5.25544 8.71651C5.22878 8.7998 5.21989 8.88776 5.22935 8.97469C5.23881 9.06163 5.26641 9.14562 5.31036 9.22122C5.35432 9.29682 5.41365 9.36236 5.48452 9.41359C5.5554 9.46483 5.63623 9.50062 5.72181 9.51865C5.80738 9.53668 5.89578 9.53656 5.9813 9.51828C6.06682 9.5 6.14756 9.46398 6.21828 9.41255L9.23703 7.6313L7.76828 9.12505C7.63392 9.25129 7.52914 9.4057 7.46147 9.5772C7.39379 9.7487 7.36489 9.93304 7.37684 10.117C7.38879 10.301 7.44129 10.4801 7.53057 10.6414C7.61986 10.8027 7.74372 10.9422 7.89328 11.05L12.8933 14.8938C13.1564 15.0969 13.4796 15.2068 13.812 15.2063C13.989 15.205 14.1645 15.1733 14.3308 15.1125C14.5695 15.0268 14.7823 14.8813 14.9486 14.6897C15.115 14.4982 15.2293 14.2672 15.2808 14.0188L17.8308 2.0438C17.8849 1.7961 17.8704 1.53833 17.7889 1.29825C17.7075 1.05816 17.562 0.844857 17.3683 0.681297Z" fill="white"/>
</svg>
