<svg width="17" height="18" viewBox="0 0 17 18" fill="none" xmlns="http://www.w3.org/2000/svg">
<path d="M12.3327 10.6666C12.166 10.5833 11.0827 10.0833 10.916 9.99992C10.7493 9.91658 10.5827 9.91658 10.416 10.0833C10.2493 10.2499 9.91602 10.7499 9.74935 10.9166C9.66602 11.0833 9.49935 11.0833 9.33268 10.9999C8.74935 10.7499 8.16602 10.4166 7.66602 9.99992C7.24935 9.58325 6.83268 9.08325 6.49935 8.58325C6.41602 8.41658 6.49935 8.24992 6.58268 8.16658C6.66602 8.08325 6.74935 7.91658 6.91602 7.83325C6.99935 7.74992 7.08268 7.58325 7.08268 7.49992C7.16602 7.41658 7.16602 7.24992 7.08268 7.16658C6.99935 7.08325 6.58268 6.08325 6.41602 5.66658C6.33268 5.08325 6.16602 5.08325 5.99935 5.08325C5.91602 5.08325 5.74935 5.08325 5.58268 5.08325C5.41602 5.08325 5.16602 5.24992 5.08268 5.33325C4.58268 5.83325 4.33268 6.41658 4.33268 7.08325C4.41602 7.83325 4.66602 8.58325 5.16602 9.24992C6.08268 10.5833 7.24935 11.6666 8.66602 12.3333C9.08268 12.4999 9.41602 12.6666 9.83268 12.7499C10.2493 12.9166 10.666 12.9166 11.166 12.8333C11.7493 12.7499 12.2493 12.3333 12.5827 11.8333C12.7493 11.4999 12.7493 11.1666 12.666 10.8333C12.666 10.8333 12.4993 10.7499 12.3327 10.6666ZM14.416 3.08325C11.166 -0.166748 5.91602 -0.166748 2.66602 3.08325C-0.000651076 5.74992 -0.500651 9.83325 1.33268 13.0833L0.166016 17.3333L4.58268 16.1666C5.83268 16.8333 7.16602 17.1666 8.49935 17.1666C13.0827 17.1666 16.7493 13.4999 16.7493 8.91658C16.8327 6.74992 15.916 4.66658 14.416 3.08325ZM12.166 14.7499C11.0827 15.4166 9.83268 15.8333 8.49935 15.8333C7.24935 15.8333 6.08268 15.4999 4.99935 14.9166L4.74935 14.7499L2.16602 15.4166L2.83268 12.9166L2.66602 12.6666C0.666016 9.33325 1.66602 5.16658 4.91602 3.08325C8.16602 0.999919 12.3327 2.08325 14.3327 5.24992C16.3327 8.49992 15.416 12.7499 12.166 14.7499Z" fill="white"/>
</svg>
