<svg width="11" height="16" viewBox="0 0 11 16" fill="none" xmlns="http://www.w3.org/2000/svg">
<path d="M5.5 0.5C2.74305 0.5 0.5 2.74306 0.5 5.50001C0.5 6.32765 0.706923 7.14825 1.10029 7.8761L5.22657 15.3389C5.28151 15.4384 5.38618 15.5 5.5 15.5C5.61382 15.5 5.7185 15.4384 5.77343 15.3389L9.90123 7.87364C10.2931 7.14825 10.5 6.32762 10.5 5.49998C10.5 2.74306 8.25695 0.5 5.5 0.5ZM5.5 8C4.12153 8 3.00002 6.87849 3.00002 5.50001C3.00002 4.12153 4.12153 3.00002 5.5 3.00002C6.87847 3.00002 7.99999 4.12153 7.99999 5.50001C7.99999 6.87849 6.87847 8 5.5 8Z" fill="white"/>
</svg>
