<svg width="143" height="112" viewBox="0 0 143 112" fill="none" xmlns="http://www.w3.org/2000/svg">
<path d="M121.95 45.3633H21.1501C18.5501 45.3633 16.5501 47.2633 16.7501 49.5633L22.2501 107.063C22.4501 109.363 24.5501 111.263 26.9501 111.263H117.65C120.05 111.263 122.05 109.363 122.25 107.063L126.35 49.5633C126.55 47.2633 124.55 45.3633 121.95 45.3633ZM21.6501 71.2633L20.1501 58.0633C20.0501 57.5633 20.3501 57.0633 20.8501 57.0633H37.0501C37.4501 57.0633 37.8501 57.4633 37.8501 58.0633L38.9501 71.2633C38.9501 71.7633 38.6501 72.2633 38.2501 72.2633H22.5501C22.0501 72.2633 21.7501 71.8633 21.6501 71.2633ZM23.7501 89.1633L22.2501 75.9633C22.1501 75.4633 22.4501 74.9633 22.8501 74.9633H38.5501C38.9501 74.9633 39.3501 75.3633 39.3501 75.9633L40.4501 89.1633C40.4501 89.6633 40.2501 90.1633 39.8501 90.1633H24.5501C24.1501 90.1633 23.7501 89.7633 23.7501 89.1633ZM41.2501 108.063H26.5501C26.1501 108.063 25.8501 107.663 25.7501 107.063L24.2501 93.8633C24.1501 93.3633 24.4501 92.8633 24.8501 92.8633H39.9501C40.3501 92.8633 40.7501 93.2633 40.7501 93.8633L41.8501 107.063C41.9501 107.663 41.6501 108.063 41.2501 108.063ZM42.3501 71.2633L41.3501 58.0633C41.3501 57.5633 41.6501 57.0633 42.0501 57.0633H58.3501C58.7501 57.0633 59.1501 57.4633 59.1501 58.0633L59.6501 71.2633C59.6501 71.7633 59.3501 72.2633 58.9501 72.2633H43.1501C42.7501 72.2633 42.4501 71.8633 42.3501 71.2633ZM43.6501 89.1633L42.6501 75.9633C42.6501 75.4633 42.9501 74.9633 43.3501 74.9633H59.0501C59.4501 74.9633 59.8501 75.3633 59.8501 75.9633L60.3501 89.1633C60.3501 89.6633 60.0501 90.1633 59.6501 90.1633H44.4501C44.0501 90.1633 43.7501 89.7633 43.6501 89.1633ZM60.4501 108.063H45.7501C45.3501 108.063 45.0501 107.663 44.9501 107.063L43.9501 93.8633C43.9501 93.3633 44.2501 92.8633 44.5501 92.8633H59.6501C60.0501 92.8633 60.3501 93.2633 60.4501 93.8633L60.9501 107.063C61.1501 107.663 60.8501 108.063 60.4501 108.063ZM80.3501 107.063C80.3501 107.563 80.0501 108.063 79.6501 108.063H64.9501C64.5501 108.063 64.2501 107.663 64.2501 107.063L63.8501 93.8633C63.8501 93.3633 64.1501 92.8633 64.5501 92.8633H79.6501C80.0501 92.8633 80.3501 93.2633 80.3501 93.8633V107.063ZM80.3501 89.1633C80.3501 89.6633 80.0501 90.1633 79.6501 90.1633H64.4501C64.0501 90.1633 63.7501 89.7633 63.6501 89.1633L63.2501 75.9633C63.2501 75.4633 63.5501 74.9633 63.9501 74.9633H79.6501C80.0501 74.9633 80.3501 75.3633 80.3501 75.9633V89.1633ZM80.4501 71.2633C80.4501 71.7633 80.1501 72.2633 79.6501 72.2633H63.8501C63.4501 72.2633 63.0501 71.8633 63.0501 71.2633L62.6501 58.0633C62.6501 57.5633 62.9501 57.0633 63.3501 57.0633H79.6501C80.0501 57.0633 80.4501 57.4633 80.4501 58.0633V71.2633ZM99.5501 107.063C99.5501 107.563 99.1501 108.063 98.8501 108.063H84.1501C83.7501 108.063 83.4501 107.663 83.4501 107.063L83.5501 93.8633C83.5501 93.3633 83.8501 92.8633 84.2501 92.8633H99.3501C99.7501 92.8633 100.05 93.2633 100.05 93.8633L99.5501 107.063ZM100.35 89.1633C100.35 89.6633 99.9501 90.1633 99.5501 90.1633H84.3501C83.9501 90.1633 83.6501 89.7633 83.6501 89.1633L83.7501 75.9633C83.7501 75.4633 84.0501 74.9633 84.5501 74.9633H100.25C100.65 74.9633 100.95 75.3633 100.95 75.9633L100.35 89.1633ZM101.15 71.2633C101.15 71.7633 100.75 72.2633 100.35 72.2633H84.5501C84.1501 72.2633 83.8501 71.8633 83.8501 71.2633L83.9501 58.0633C83.9501 57.5633 84.3501 57.0633 84.7501 57.0633H101.05C101.45 57.0633 101.85 57.4633 101.75 58.0633L101.15 71.2633ZM118.75 107.063C118.65 107.563 118.35 108.063 117.95 108.063H103.25C102.85 108.063 102.55 107.663 102.65 107.063L103.35 93.8633C103.35 93.3633 103.75 92.8633 104.15 92.8633H119.25C119.65 92.8633 119.95 93.2633 119.85 93.8633L118.75 107.063ZM120.35 89.1633C120.35 89.6633 119.95 90.1633 119.55 90.1633H104.35C103.95 90.1633 103.65 89.7633 103.65 89.1633L104.35 75.9633C104.35 75.4633 104.75 74.9633 105.15 74.9633H120.85C121.25 74.9633 121.55 75.3633 121.55 75.9633L120.35 89.1633ZM121.85 71.2633C121.85 71.7633 121.45 72.2633 121.05 72.2633H105.25C104.85 72.2633 104.55 71.8633 104.55 71.2633L105.25 58.0633C105.25 57.5633 105.65 57.0633 106.05 57.0633H122.35C122.75 57.0633 123.05 57.4633 123.05 58.0633L121.85 71.2633Z" fill="#4BCCED"/>
<path d="M132.05 50.7633C132.05 53.3633 129.95 55.4633 127.35 55.4633H15.7499C13.1499 55.4633 11.1499 53.3633 11.1499 50.7633V41.4633C11.1499 38.8633 13.2499 36.8633 15.7499 36.8633H127.35C129.95 36.8633 132.05 38.9633 132.05 41.4633V50.7633Z" fill="#1F8BA7"/>
<path d="M45.35 39.0636C45.85 39.6636 44.65 41.6636 42.65 43.6636C40.55 45.6636 38.45 46.7636 37.95 46.1636L0.649959 7.36362C0.149959 6.76362 1.34996 4.76362 3.34996 2.76362C5.44996 0.763617 7.54996 -0.336383 8.04996 0.263617L45.35 39.0636Z" fill="#FFC90A"/>
<path d="M97.7501 39.0635C97.2501 39.6635 98.4501 41.6635 100.45 43.6635C102.55 45.6635 104.65 46.7635 105.15 46.1635L142.35 7.26352C142.85 6.66352 141.65 4.66352 139.65 2.66352C137.55 0.663519 135.45 -0.436481 134.95 0.163519L97.7501 39.0635Z" fill="#FFC90A"/>
</svg>
