<svg width="264" height="276" viewBox="0 0 264 276" fill="none" xmlns="http://www.w3.org/2000/svg">
<g clip-path="url(#clip0_1090:6663)">
<path d="M132 263.236C204.902 263.236 264 204.309 264 131.618C264 58.9275 204.902 0 132 0C59.0984 0 0 58.9275 0 131.618C0 204.309 59.0984 263.236 132 263.236Z" fill="#F3F3F3"/>
<path d="M164.612 108.46L195.076 148.427C198.855 163.995 190.294 178 174.19 181.69L103.344 149.297L164.612 108.46Z" fill="#FFBA7E"/>
<path d="M192.847 144.414L231.888 154.583C236.088 167.202 230.03 193.1 217.593 201.819L174.19 181.69L192.847 144.414Z" fill="#FFBA7E"/>
<path d="M161.495 115.663C161.495 115.663 73.269 49.2339 65.4833 62.1588C56.5509 76.9692 149.736 134.132 149.736 134.132L161.495 115.663Z" fill="#FFBA7E"/>
<path d="M157.181 185.381L93.6367 184.994C89.6792 184.978 86.4648 181.593 86.4648 177.468L86.7071 40.4024C86.7071 36.4218 89.8731 33.1825 93.7659 33.1663L156.067 32.973C159.992 32.9568 163.19 36.1961 163.223 40.1929L164.353 177.887C164.402 182.061 161.187 185.413 157.181 185.381Z" fill="#8FC9ED"/>
<path d="M158.054 184.381C157.796 184.413 157.521 184.43 157.246 184.43L93.7177 183.978C90.3095 183.962 87.5312 180.997 87.5312 177.387L87.7574 40.4666C87.7574 36.9856 90.5033 34.1492 93.847 34.1331L156.148 33.8752C156.245 33.8752 156.342 33.8752 156.439 33.8752C158.006 33.9397 159.475 34.6166 160.574 35.7608C161.688 36.9211 162.318 38.4683 162.334 40.1121L163.449 177.951C163.481 181.239 161.171 183.994 158.054 184.381Z" fill="#33201B"/>
<path d="M160.153 40.8214L161.219 178.193L89.6626 177.79L89.8403 40.8214H160.153Z" fill="white"/>
<path d="M123.196 101.481L97.4004 101.385V75.0996L123.196 75.1963V101.481Z" fill="#4BCCED"/>
<path d="M110.453 86.6385C108.013 86.6224 106.867 85.591 106.818 85.5426C106.786 85.5104 106.786 85.4459 106.818 85.4137C106.85 85.3815 106.915 85.3815 106.947 85.4137C106.964 85.4298 108.11 86.4451 110.469 86.4612C112.569 86.4612 112.859 85.6071 112.859 85.591C112.875 85.5426 112.924 85.5104 112.972 85.5265C113.021 85.5426 113.053 85.591 113.037 85.6393C113.005 85.6877 112.698 86.6546 110.453 86.6385Z" fill="white"/>
<path d="M110.195 88.2984C110.13 88.2984 110.066 88.2662 110.001 88.1856C109.565 87.6377 110.663 86.6062 110.793 86.4773L110.987 86.3L110.938 86.5579C110.873 86.9447 110.615 88.1856 110.26 88.2823C110.244 88.2984 110.227 88.2984 110.195 88.2984ZM110.696 86.8319C110.357 87.2025 109.904 87.7827 110.13 88.0728C110.147 88.0889 110.179 88.1211 110.195 88.1211C110.357 88.0728 110.567 87.4604 110.696 86.8319Z" fill="white"/>
<path d="M110.76 86.7676V86.542C110.76 86.4937 110.793 85.2044 111.293 84.7693C111.423 84.6565 111.584 84.6081 111.746 84.6242C111.939 84.6565 112.02 84.7532 112.036 84.8337C112.198 85.3011 111.132 86.397 110.906 86.6065L110.76 86.7676ZM111.665 84.8176C111.568 84.8176 111.487 84.8499 111.406 84.9143C111.083 85.1883 110.986 85.9296 110.954 86.3164C111.406 85.849 111.956 85.1561 111.875 84.8982C111.875 84.8821 111.859 84.8337 111.729 84.8176C111.697 84.8176 111.681 84.8176 111.665 84.8176Z" fill="white"/>
<path d="M112.553 88.1051C112.521 88.1051 112.488 88.089 112.472 88.0567C111.939 86.9447 110.841 86.6385 110.825 86.6385C110.776 86.6224 110.744 86.574 110.76 86.5257C110.776 86.4773 110.825 86.4451 110.873 86.4612C110.922 86.4773 112.068 86.7997 112.634 87.9761C112.65 88.0245 112.634 88.0728 112.585 88.1051C112.585 88.1051 112.569 88.1051 112.553 88.1051Z" fill="white"/>
<path d="M128.882 93.1494L129.351 94.616H130.902L129.658 95.5184L130.126 96.985L128.882 96.0825L127.622 96.985L128.107 95.5184L126.847 94.616H128.398L128.882 93.1494Z" fill="#FFC90A"/>
<path d="M135.101 93.1494L135.586 94.616H137.12L135.876 95.5184L136.345 96.985L135.101 96.0825L133.857 96.985L134.326 95.5184L133.082 94.616H134.617L135.101 93.1494Z" fill="#FDF280"/>
<path d="M140.899 93.1494L141.368 94.616H142.919L141.659 95.5184L142.143 96.985L140.899 96.0825L139.64 96.985L140.124 95.5184L138.864 94.616H140.415L140.899 93.1494Z" fill="#FDF280"/>
<path d="M147.603 75.0352H126.847V76.9529H147.603V75.0352Z" fill="#4BCCED"/>
<path d="M145.633 79.1768H126.847V81.0946H145.633V79.1768Z" fill="#4BCCED"/>
<path d="M146.408 83.3348H126.847V85.2527H146.408V83.3348Z" fill="#4BCCED"/>
<path d="M140.916 87.4764H126.847V89.3942H140.916V87.4764Z" fill="#4BCCED"/>
<path d="M123.05 136.098L97.2383 136.05V109.749L123.05 109.829V136.098Z" fill="#4BCCED"/>
<path d="M128.882 128.073L129.351 129.539H130.902L129.658 130.442L130.126 131.908L128.882 131.006L127.622 131.908L128.107 130.442L126.847 129.539H128.398L128.882 128.073Z" fill="#FFC90A"/>
<path d="M135.101 128.073L135.586 129.539H137.12L135.876 130.442L136.345 131.908L135.101 131.006L133.857 131.908L134.326 130.442L133.082 129.539H134.617L135.101 128.073Z" fill="#FFC90A"/>
<path d="M140.899 128.073L141.368 129.539H142.919L141.659 130.442L142.143 131.908L140.899 131.006L139.64 131.908L140.124 130.442L138.864 129.539H140.415L140.899 128.073Z" fill="#FFC90A"/>
<path d="M147.603 109.942H126.847V111.86H147.603V109.942Z" fill="#4BCCED"/>
<path d="M147.603 114.1H126.847V116.018H147.603V114.1Z" fill="#4BCCED"/>
<path d="M136.07 118.258H126.847V120.176H136.07V118.258Z" fill="#4BCCED"/>
<path d="M140.916 122.4H126.847V124.318H140.916V122.4Z" fill="#4BCCED"/>
<path d="M123.05 170.425L97.2383 170.377V144.075L123.05 144.156V170.425Z" fill="#4BCCED"/>
<path d="M128.882 162.367L129.351 163.833H130.902L129.658 164.736L130.126 166.203L128.882 165.3L127.622 166.203L128.107 164.736L126.847 163.833H128.398L128.882 162.367Z" fill="#FFC90A"/>
<path d="M135.101 162.367L135.586 163.833H137.12L135.876 164.736L136.345 166.203L135.101 165.3L133.857 166.203L134.326 164.736L133.082 163.833H134.617L135.101 162.367Z" fill="#FFC90A"/>
<path d="M140.899 162.367L141.368 163.833H142.919L141.659 164.736L142.143 166.203L140.899 165.3L139.64 166.203L140.124 164.736L138.864 163.833H140.415L140.899 162.367Z" fill="#FFC90A"/>
<path d="M147.603 144.253H126.847V146.171H147.603V144.253Z" fill="#4BCCED"/>
<path d="M142.208 148.394H126.847V150.312H142.208V148.394Z" fill="#4BCCED"/>
<path d="M146.408 152.552H126.847V154.47H146.408V152.552Z" fill="#4BCCED"/>
<path d="M140.916 156.71H126.847V158.628H140.916V156.71Z" fill="#4BCCED"/>
<path d="M111.267 127H108.733C108.627 127 108.526 126.958 108.45 126.883C108.375 126.808 108.333 126.706 108.333 126.6V125.067C108.333 124.961 108.291 124.859 108.216 124.784C108.141 124.709 108.039 124.667 107.933 124.667H106.4C106.294 124.667 106.192 124.625 106.117 124.55C106.042 124.474 106 124.373 106 124.267V121.733C106 121.627 106.042 121.526 106.117 121.45C106.192 121.375 106.294 121.333 106.4 121.333H107.933C108.039 121.333 108.141 121.291 108.216 121.216C108.291 121.141 108.333 121.039 108.333 120.933V119.4C108.333 119.294 108.375 119.192 108.45 119.117C108.526 119.042 108.627 119 108.733 119H111.267C111.373 119 111.474 119.042 111.55 119.117C111.625 119.192 111.667 119.294 111.667 119.4V120.933C111.667 121.039 111.709 121.141 111.784 121.216C111.859 121.291 111.961 121.333 112.067 121.333H113.6C113.706 121.333 113.808 121.375 113.883 121.45C113.958 121.526 114 121.627 114 121.733V124.267C114 124.373 113.958 124.474 113.883 124.55C113.808 124.625 113.706 124.667 113.6 124.667H112.067C111.961 124.667 111.859 124.709 111.784 124.784C111.709 124.859 111.667 124.961 111.667 125.067V126.6C111.667 126.706 111.625 126.808 111.55 126.883C111.474 126.958 111.373 127 111.267 127V127Z" stroke="white"/>
<path d="M110 129.667C113.682 129.667 116.667 126.682 116.667 123C116.667 119.318 113.682 116.333 110 116.333C106.318 116.333 103.333 119.318 103.333 123C103.333 126.682 106.318 129.667 110 129.667Z" stroke="white" stroke-linecap="round" stroke-linejoin="round"/>
<path d="M111.267 92H108.733C108.627 92 108.526 91.9579 108.45 91.8828C108.375 91.8078 108.333 91.7061 108.333 91.6V90.0667C108.333 89.9606 108.291 89.8588 108.216 89.7838C108.141 89.7088 108.039 89.6667 107.933 89.6667H106.4C106.294 89.6667 106.192 89.6245 106.117 89.5495C106.042 89.4745 106 89.3728 106 89.2667V86.7333C106 86.6272 106.042 86.5255 106.117 86.4505C106.192 86.3755 106.294 86.3333 106.4 86.3333H107.933C108.039 86.3333 108.141 86.2912 108.216 86.2162C108.291 86.1412 108.333 86.0394 108.333 85.9333V84.4C108.333 84.2939 108.375 84.1922 108.45 84.1172C108.526 84.0421 108.627 84 108.733 84H111.267C111.373 84 111.474 84.0421 111.55 84.1172C111.625 84.1922 111.667 84.2939 111.667 84.4V85.9333C111.667 86.0394 111.709 86.1412 111.784 86.2162C111.859 86.2912 111.961 86.3333 112.067 86.3333H113.6C113.706 86.3333 113.808 86.3755 113.883 86.4505C113.958 86.5255 114 86.6272 114 86.7333V89.2667C114 89.3728 113.958 89.4745 113.883 89.5495C113.808 89.6245 113.706 89.6667 113.6 89.6667H112.067C111.961 89.6667 111.859 89.7088 111.784 89.7838C111.709 89.8588 111.667 89.9606 111.667 90.0667V91.6C111.667 91.7061 111.625 91.8078 111.55 91.8828C111.474 91.9579 111.373 92 111.267 92V92Z" stroke="white"/>
<path d="M110 94.6667C113.682 94.6667 116.667 91.682 116.667 88C116.667 84.318 113.682 81.3334 110 81.3334C106.318 81.3334 103.333 84.318 103.333 88C103.333 91.682 106.318 94.6667 110 94.6667Z" stroke="white" stroke-linecap="round" stroke-linejoin="round"/>
<path d="M111.267 161H108.733C108.627 161 108.526 160.958 108.45 160.883C108.375 160.808 108.333 160.706 108.333 160.6V159.067C108.333 158.961 108.291 158.859 108.216 158.784C108.141 158.709 108.039 158.667 107.933 158.667H106.4C106.294 158.667 106.192 158.625 106.117 158.55C106.042 158.474 106 158.373 106 158.267V155.733C106 155.627 106.042 155.526 106.117 155.45C106.192 155.375 106.294 155.333 106.4 155.333H107.933C108.039 155.333 108.141 155.291 108.216 155.216C108.291 155.141 108.333 155.039 108.333 154.933V153.4C108.333 153.294 108.375 153.192 108.45 153.117C108.526 153.042 108.627 153 108.733 153H111.267C111.373 153 111.474 153.042 111.55 153.117C111.625 153.192 111.667 153.294 111.667 153.4V154.933C111.667 155.039 111.709 155.141 111.784 155.216C111.859 155.291 111.961 155.333 112.067 155.333H113.6C113.706 155.333 113.808 155.375 113.883 155.45C113.958 155.526 114 155.627 114 155.733V158.267C114 158.373 113.958 158.474 113.883 158.55C113.808 158.625 113.706 158.667 113.6 158.667H112.067C111.961 158.667 111.859 158.709 111.784 158.784C111.709 158.859 111.667 158.961 111.667 159.067V160.6C111.667 160.706 111.625 160.808 111.55 160.883C111.474 160.958 111.373 161 111.267 161V161Z" stroke="white"/>
<path d="M110 163.667C113.682 163.667 116.667 160.682 116.667 157C116.667 153.318 113.682 150.333 110 150.333C106.318 150.333 103.333 153.318 103.333 157C103.333 160.682 106.318 163.667 110 163.667Z" stroke="white" stroke-linecap="round" stroke-linejoin="round"/>
<path d="M192.25 143.657C178.633 120.676 150.996 77.05 150.996 77.05C150.996 77.05 144.906 75.8252 144.502 86.929C144.115 98.0329 156.649 117.791 156.649 117.791C156.649 117.791 151.577 171.489 179.312 171.537C198.598 171.553 199.906 152.94 192.25 143.657Z" fill="#FFBA7E"/>
<path d="M86.4822 89.5396C86.4822 89.5396 67.6643 97.0334 79.5689 112.134C91.4734 127.235 97.6275 112.134 90.6657 99.9182C88.0813 95.4057 86.4822 89.5396 86.4822 89.5396Z" fill="#FFBA7E"/>
<path d="M86.4822 106.558C86.4822 106.558 67.6643 114.052 79.5689 129.152C91.4734 144.253 97.6275 129.152 90.6657 116.936C88.0813 112.424 86.4822 106.558 86.4822 106.558Z" fill="#FFBA7E"/>
<path d="M86.0613 136.485C86.0613 136.485 71.3786 142.335 80.6664 154.116C89.9541 165.897 94.7515 154.116 89.3242 144.591C87.3212 141.062 86.0613 136.485 86.0613 136.485Z" fill="#FFBA7E"/>
<path d="M83.5098 205.59C82.2661 211.875 58.2147 247.072 58.2147 247.072C26.2161 243.768 62.6244 201.094 62.6244 201.094C62.6244 201.094 45.3409 185.655 54.5318 179.918C61.2352 175.727 67.6317 179.305 70.5876 181.529C70.9915 181.835 71.3307 182.109 71.6053 182.351C72.0575 182.738 72.316 182.996 72.316 182.996C72.316 182.996 84.7374 199.305 83.5098 205.59Z" fill="#FFBA7E"/>
<path d="M49.7987 275.227C31.9984 279.368 6.50941 266.089 5.05566 256.081L18.7047 231.085L60.7987 238.418L49.7987 275.227Z" fill="#FFBA7E"/>
<path d="M119.757 85.414C98.9685 79.6607 77.4208 91.812 71.6542 112.553C65.8877 133.31 78.0669 154.793 98.8554 160.562C119.628 166.316 141.176 154.164 146.958 133.407C152.725 112.666 140.546 91.1835 119.757 85.414ZM100.099 156.05C81.7982 150.973 71.0727 132.069 76.1609 113.81C81.2328 95.5509 100.196 84.8661 118.497 89.9265C136.798 94.9868 147.524 113.907 142.435 132.15C137.347 150.425 118.4 161.11 100.099 156.05Z" fill="#33201B"/>
<path d="M70.7493 206.669C67.5833 211.843 56.7287 205.283 59.2485 200.578L81.8301 158.757L93.3308 164.849L70.7493 206.669Z" fill="#33201B"/>
<path d="M95.612 155.18L88.5923 151.463L75.7798 175.549L82.7995 179.266L95.612 155.18Z" fill="#33201B"/>
<path d="M69.5692 201.996L58.0684 247.54L18.3812 240.126C18.3812 240.126 14.6822 201.577 17.6059 194.18C20.5295 186.783 26.183 181.561 26.183 181.561C31.2711 176.727 34.5662 178.854 37.1184 177.387C42.9495 174.067 44.5325 170.135 46.1477 169.055C49.5398 166.88 55.9201 166.767 59.1184 169.716C59.1184 169.716 67.6147 157.678 72.9128 161.868C78.227 166.058 69.5692 201.996 69.5692 201.996Z" fill="#FFBA7E"/>
<path d="M75.821 197.532C75.821 197.532 73.4627 202.367 69.3923 202.673C65.3218 202.979 65.3218 217.322 65.3218 217.322C65.3218 217.322 75.9018 210.989 75.821 197.532Z" fill="#FFBA7E"/>
</g>
<defs>
<clipPath id="clip0_1090:6663">
<rect width="264" height="276" fill="white"/>
</clipPath>
</defs>
</svg>
