<svg width="264" height="259" viewBox="0 0 264 259" fill="none" xmlns="http://www.w3.org/2000/svg">
<g clip-path="url(#clip0_1090:7062)">
<path d="M134.628 258.586C206.079 258.586 264 200.699 264 129.293C264 57.8864 206.079 0 134.628 0C63.1782 0 5.25635 57.8864 5.25635 129.293C5.25635 200.699 63.1782 258.586 134.628 258.586Z" fill="#F3F3F3"/>
<path d="M134.866 133.742L60.9028 83.5093C56.8342 75.0555 74.011 51.1663 85.172 56.1689L148.892 109.979L134.866 133.742Z" fill="#FFB373"/>
<path d="M143.081 213.642L226.068 194.628V90.8235L143.081 107.145V213.642Z" fill="#E18230"/>
<path d="M226.068 90.8233L191.651 78.6808L166.116 71.066L87.1182 85.7099L143.081 107.145L226.068 90.8233Z" fill="#FFBA7E"/>
<path d="M143.081 107.145V213.641L100.353 194.28L88.3213 188.818L87.4981 118.686L87.1182 85.71L143.081 107.145Z" fill="#EE8932"/>
<path d="M110.01 95.0662C110.026 95.0662 110.026 95.0662 110.042 95.0662L191.683 78.8551C191.762 78.8393 191.826 78.7443 191.81 78.6652C191.794 78.5702 191.715 78.5069 191.636 78.5227L109.979 94.7338C109.9 94.7496 109.836 94.8446 109.852 94.9237C109.868 95.0029 109.931 95.0662 110.01 95.0662Z" fill="#9E6331"/>
<path d="M142.653 107.541C142.716 107.541 142.779 107.493 142.795 107.43C142.827 107.335 142.779 107.24 142.7 107.208L87.4338 86.0897C87.3546 86.0581 87.2596 86.1056 87.2438 86.2005C87.2121 86.2955 87.2596 86.3905 87.3388 86.4222L142.605 107.557C142.621 107.541 142.637 107.541 142.653 107.541Z" fill="#9E6331"/>
<path d="M195.846 80.2323L115.028 96.7284V120.032L106.685 115.773L106.1 93.4197L186.126 77.1453L195.846 80.2323Z" fill="white"/>
<path d="M127.361 178.275C125.446 180.918 103.615 175.457 103.615 175.457C103.615 175.457 119.857 187.108 116.913 188.976C113.968 190.845 99.1503 184.971 99.1503 184.971C99.1503 184.971 108.95 193.425 106.844 194.232C106.211 194.486 103.631 194.438 100.369 194.264L88.3218 188.802L87.5303 121.472C110.121 123.166 115.741 128.201 115.757 131.399C115.789 137.636 104.185 137.019 102.76 141.499C101.319 145.979 126.158 156.333 132.728 166.939L108.95 164.422C108.934 164.407 129.277 175.647 127.361 178.275Z" fill="#33201B"/>
<path d="M72.5694 126.047C81.7831 123.783 94.8121 123.783 111.071 125.588C117.102 126.269 117.435 135.024 111.451 136.084C111.371 136.1 111.292 136.116 111.213 136.132C103.313 137.382 99.3082 132.38 91.6143 140.501C81.4032 151.298 68.3742 146.264 65.9045 140.469C64.2739 136.575 66.0311 127.33 72.5694 126.047Z" fill="#FFAE69"/>
<path d="M77.6675 125.097C71.3034 125.604 62.4379 128.754 59.4142 136.148C55.773 145.013 54.1424 153.768 66.0158 168.126C73.8205 177.578 104.818 197.968 107.303 193.646C109.662 189.546 86.058 173.778 85.4564 173.382C84.8706 173.002 115.995 193.076 118.258 188.232C121.029 182.264 91.3772 162.443 90.5857 161.778C89.7941 161.129 124.433 183.72 127.346 178.274C129.815 173.651 97.4405 152.612 97.4405 152.612C97.4405 152.612 131.145 171.815 133.678 165.245C136.227 158.707 77.6675 125.097 77.6675 125.097Z" fill="#FFAE69"/>
<path d="M77.082 163.757C77.082 163.757 3.79971 128.675 2.69153 127.567C-6.50636 118.607 9.83137 86.3272 22.0847 93.657L91.5675 135.657L77.082 163.757Z" fill="#FFAE69"/>
<path d="M220.861 100.259V118.021L195.848 123.562V104.85L220.861 100.259Z" fill="#FFBF8A"/>
<path d="M144.934 157.077L153.673 211.219L195.198 201.705L157.456 156H145.346L144.934 157.077Z" fill="#33201B"/>
<path d="M145.346 156L144.934 157.077L175.662 239.177L240.776 234.428L241.251 233.367L145.346 156Z" fill="#1F8BA7"/>
<path d="M145.346 156L176.216 238.037L241.251 233.367L207.055 153.657L145.346 156Z" fill="#4BCCED"/>
<path d="M203.003 158.375L231.293 224.976L179.114 228.332L154.37 161.636L203.003 158.375Z" fill="white"/>
<path d="M160.417 154.227L164.486 164.09L201.927 162.301L197.225 152.676L160.417 154.227Z" fill="black"/>
<path d="M204.409 168.65L162.13 170.458L162.167 171.312L204.445 169.504L204.409 168.65Z" fill="#848484"/>
<path d="M206.783 173.97L164.505 175.778L164.541 176.632L206.82 174.824L206.783 173.97Z" fill="#848484"/>
<path d="M209.174 179.305L166.896 181.113L166.932 181.967L209.211 180.159L209.174 179.305Z" fill="#848484"/>
<path d="M211.564 184.624L169.286 186.432L169.322 187.286L211.601 185.478L211.564 184.624Z" fill="#848484"/>
<path d="M213.939 189.943L171.66 191.752L171.697 192.606L213.975 190.798L213.939 189.943Z" fill="#848484"/>
<path d="M216.329 195.278L174.051 197.087L174.087 197.941L216.366 196.132L216.329 195.278Z" fill="#848484"/>
<path d="M195.705 217.156C195.626 217.156 195.562 217.14 195.499 217.124C194.739 216.887 194.549 215.462 194.185 212.296C193.853 209.351 193.378 205.314 192.095 204.538C191.842 204.396 191.589 204.38 191.256 204.522C187.314 206.09 187.156 217.013 187.156 217.124L186.301 217.108C186.301 216.633 186.475 205.52 190.94 203.731C191.526 203.493 192.064 203.525 192.539 203.81C194.185 204.792 194.628 208.734 195.04 212.201C195.214 213.72 195.452 215.747 195.737 216.253L195.752 216.237C196.433 215.478 197.304 213.799 198.143 212.185C199.774 209.066 200.834 207.15 201.895 207.245C202.576 207.309 202.813 208.116 202.892 208.385C203.241 209.541 203.399 210.586 203.526 211.409C203.668 212.375 203.795 213.15 204.095 213.34C204.285 213.451 204.634 213.42 205.124 213.245C205.789 213.008 206.359 212.644 206.913 212.311C208.37 211.393 209.858 210.459 212.882 212.153L212.47 212.897C209.905 211.456 208.781 212.153 207.388 213.04C206.803 213.42 206.185 213.799 205.425 214.069C204.65 214.338 204.095 214.354 203.668 214.1C203.003 213.705 202.876 212.802 202.686 211.567C202.56 210.76 202.417 209.763 202.085 208.654C201.942 208.179 201.816 208.132 201.816 208.132C201.816 208.132 201.499 208.132 200.692 209.383C200.138 210.253 199.504 211.456 198.887 212.612C197.985 214.354 197.13 215.984 196.37 216.839C196.132 217.077 195.895 217.156 195.705 217.156Z" fill="#282828"/>
<path d="M223.82 204.95L217.963 202.813L238.417 146.834C239.002 145.219 240.791 144.38 242.422 144.982C244.037 145.567 244.876 147.356 244.274 148.987L223.82 204.95Z" fill="#025BB3"/>
<path d="M237.038 148.714L230.608 166.32L237.85 168.965L244.279 151.358L237.038 148.714Z" fill="#4BCCED"/>
<path d="M235.773 179.462H234.918C234.934 174.317 236.485 172.053 238.448 169.172C239.683 167.351 241.092 165.293 242.501 162.048C245.05 156.159 245.082 153.784 244.654 152.834C244.417 152.312 244.037 152.185 243.736 152.09C243.688 152.074 243.657 152.058 243.609 152.042L243.894 151.235C243.926 151.251 243.958 151.251 243.989 151.267C244.353 151.393 245.034 151.615 245.414 152.486C246.142 154.132 245.446 157.362 243.261 162.38C241.82 165.705 240.396 167.794 239.129 169.647C237.182 172.512 235.773 174.57 235.773 179.462Z" fill="#025BB3"/>
<path d="M217.504 210.475L219.23 211.108C219.799 210.333 223.171 205.837 223.821 204.966L217.963 202.829C217.9 203.937 217.567 209.478 217.504 210.475Z" fill="black"/>
<path d="M217.662 212.739C217.377 212.628 217.235 212.311 217.33 212.026C217.678 211.615 218.121 208.401 219.087 208.844C219.372 208.955 219.514 209.272 219.419 209.557C219.071 209.953 218.612 213.182 217.662 212.739Z" fill="black"/>
</g>
<defs>
<clipPath id="clip0_1090:7062">
<rect width="264" height="258.602" fill="white"/>
</clipPath>
</defs>
</svg>
