<svg width="264" height="265" viewBox="0 0 264 265" fill="none" xmlns="http://www.w3.org/2000/svg">
<g clip-path="url(#clip0_1090:6949)">
<path d="M128.082 256.007C198.819 256.007 256.163 198.698 256.163 128.003C256.163 57.309 198.819 0 128.082 0C57.3441 0 0 57.309 0 128.003C0 198.698 57.3441 256.007 128.082 256.007Z" fill="#F3F3F3"/>
<path d="M198.627 129.884L219.895 176.167C220.193 192.42 208.658 204.395 191.918 204.504L129.084 156.826L198.627 129.884Z" fill="#FFBA7E"/>
<path d="M218.594 171.7L263.89 197.185C265.254 210.617 253.561 234.911 239.33 240.804L191.918 204.489L218.594 171.7Z" fill="#FFBA7E"/>
<path d="M193.956 136.341C193.956 136.341 121.452 51.1259 110.903 62.2226C98.8194 74.9179 178.251 152.03 178.251 152.03L193.956 136.341Z" fill="#FFBA7E"/>
<path d="M174.302 204.426L111.61 190.054C107.691 189.16 105.278 185.117 106.187 181.01L136.671 45.3426C137.564 41.393 141.389 38.8853 145.229 39.7316L206.824 53.2576C210.696 54.104 213.156 58.0223 212.294 61.9876L183.017 198.596C182.17 202.718 178.252 205.335 174.302 204.426Z" fill="#8FC9ED"/>
<path d="M175.399 203.642C175.133 203.611 174.866 203.58 174.6 203.517L111.938 189.082C108.584 188.314 106.484 184.772 107.283 181.198L137.721 45.6717C138.489 42.2236 141.827 40.0136 145.134 40.7346L206.745 54.1979C206.839 54.2136 206.934 54.2449 207.028 54.2606C208.564 54.6681 209.864 55.6555 210.695 57.0348C211.541 58.4297 211.824 60.1067 211.463 61.7367L182.138 198.47C181.449 201.714 178.549 203.94 175.399 203.642Z" fill="#33201B"/>
<path d="M209.144 61.9406L179.882 198.188L109.274 182.045L139.68 46.4554L209.144 61.9406Z" fill="white"/>
<path d="M177.704 143.598C177.5 143.598 177.312 143.582 177.108 143.535L133.756 134.225C132.22 133.896 131.249 132.376 131.578 130.856C131.734 130.119 132.173 129.476 132.816 129.069C133.458 128.661 134.211 128.52 134.963 128.677L178.315 137.987C179.851 138.316 180.823 139.836 180.494 141.357C180.196 142.673 179.021 143.598 177.704 143.598ZM134.352 128.99C133.882 128.99 133.427 129.131 133.035 129.382C132.487 129.743 132.111 130.291 131.97 130.918C131.687 132.235 132.534 133.536 133.85 133.818L177.202 143.128C178.519 143.41 179.82 142.563 180.102 141.247C180.384 139.93 179.538 138.629 178.221 138.347L134.869 129.037C134.697 129.006 134.524 128.99 134.352 128.99Z" fill="#4BCCED"/>
<path d="M176.121 151.011C175.918 151.011 175.714 150.996 175.526 150.949L132.174 141.639C131.437 141.482 130.794 141.043 130.387 140.4C129.979 139.758 129.838 139.006 129.995 138.253C130.324 136.717 131.845 135.746 133.365 136.075L176.717 145.385C178.253 145.714 179.225 147.234 178.896 148.754C178.739 149.491 178.3 150.134 177.657 150.541C177.187 150.855 176.654 151.011 176.121 151.011ZM132.754 136.404C131.625 136.404 130.606 137.187 130.371 138.332C130.23 138.974 130.356 139.617 130.7 140.165C131.061 140.714 131.609 141.09 132.236 141.231L175.589 150.541C176.231 150.682 176.874 150.557 177.422 150.212C177.971 149.851 178.347 149.303 178.488 148.676C178.77 147.359 177.924 146.059 176.607 145.776L133.255 136.466C133.098 136.419 132.926 136.404 132.754 136.404Z" fill="#4BCCED"/>
<path d="M174.523 158.441C174.32 158.441 174.116 158.425 173.928 158.378L130.56 149.052C129.823 148.896 129.181 148.457 128.773 147.814C128.366 147.171 128.225 146.419 128.381 145.667C128.71 144.131 130.231 143.159 131.751 143.488L175.103 152.798C176.639 153.127 177.611 154.648 177.282 156.168C177.125 156.905 176.686 157.547 176.044 157.955C175.589 158.284 175.056 158.441 174.523 158.441ZM131.155 143.833C130.027 143.833 129.008 144.617 128.773 145.761C128.632 146.403 128.757 147.046 129.102 147.595C129.463 148.143 130.011 148.519 130.638 148.66L173.99 157.97C174.633 158.111 175.276 157.986 175.824 157.641C176.373 157.281 176.749 156.732 176.89 156.105C177.172 154.789 176.326 153.488 175.009 153.206L131.657 143.896C131.5 143.849 131.328 143.833 131.155 143.833Z" fill="#4BCCED"/>
<path d="M148.27 160.556C148.066 160.556 147.863 160.541 147.675 160.494L128.976 156.481C128.24 156.325 127.597 155.886 127.19 155.243C126.782 154.601 126.641 153.848 126.798 153.096C127.127 151.56 128.647 150.588 130.168 150.917L148.866 154.93C150.402 155.259 151.373 156.779 151.044 158.299C150.888 159.036 150.449 159.679 149.806 160.086C149.336 160.415 148.803 160.556 148.27 160.556ZM129.556 151.262C128.428 151.262 127.409 152.046 127.158 153.19C127.017 153.833 127.143 154.475 127.487 155.024C127.848 155.572 128.396 155.949 129.023 156.09L147.722 160.102C148.364 160.243 149.007 160.118 149.555 159.773C150.104 159.428 150.48 158.864 150.621 158.237C150.903 156.92 150.057 155.619 148.74 155.337L130.042 151.325C129.901 151.278 129.729 151.262 129.556 151.262Z" fill="#4BCCED"/>
<path d="M172.516 165.775C172.312 165.775 172.109 165.76 171.92 165.713L154.915 162.061C153.379 161.732 152.407 160.212 152.736 158.691C153.066 157.155 154.586 156.184 156.106 156.513L173.112 160.165C174.648 160.494 175.619 162.014 175.29 163.534C175.133 164.271 174.695 164.913 174.052 165.321C173.597 165.619 173.065 165.775 172.516 165.775ZM155.511 156.842C154.382 156.842 153.363 157.625 153.128 158.77C152.846 160.086 153.692 161.387 155.009 161.669L172.014 165.321C172.657 165.462 173.3 165.337 173.848 164.992C174.397 164.647 174.773 164.083 174.914 163.456C175.196 162.139 174.35 160.838 173.033 160.556L156.028 156.889C155.855 156.857 155.683 156.842 155.511 156.842Z" fill="#4BCCED"/>
<path d="M135.372 131.655C135.262 132.156 134.776 132.47 134.29 132.36C133.789 132.25 133.475 131.765 133.585 131.279C133.695 130.777 134.18 130.464 134.666 130.573C135.168 130.667 135.481 131.153 135.372 131.655Z" fill="#4BCCED"/>
<path d="M139.102 132.454C138.992 132.956 138.506 133.269 138.02 133.159C137.519 133.05 137.205 132.564 137.315 132.078C137.425 131.576 137.91 131.263 138.396 131.373C138.898 131.467 139.211 131.953 139.102 132.454Z" fill="#4BCCED"/>
<path d="M142.833 133.253C142.723 133.755 142.237 134.068 141.751 133.959C141.25 133.849 140.936 133.363 141.046 132.877C141.156 132.376 141.641 132.062 142.127 132.172C142.629 132.266 142.942 132.752 142.833 133.253Z" fill="#4BCCED"/>
<path d="M146.562 134.053C146.452 134.554 145.966 134.868 145.48 134.758C144.979 134.649 144.665 134.163 144.775 133.677C144.885 133.175 145.37 132.862 145.856 132.971C146.358 133.081 146.671 133.567 146.562 134.053Z" fill="#4BCCED"/>
<path d="M150.293 134.852C150.183 135.354 149.697 135.667 149.212 135.558C148.71 135.448 148.397 134.962 148.506 134.476C148.616 133.975 149.102 133.661 149.588 133.771C150.089 133.88 150.403 134.366 150.293 134.852Z" fill="#4BCCED"/>
<path d="M154.352 135.73C154.242 136.231 153.756 136.545 153.271 136.435C152.769 136.325 152.456 135.84 152.565 135.354C152.675 134.852 153.161 134.539 153.647 134.648C154.148 134.743 154.462 135.228 154.352 135.73Z" fill="#4BCCED"/>
<path d="M158.082 136.529C157.972 137.031 157.486 137.344 157 137.235C156.499 137.125 156.185 136.639 156.295 136.153C156.405 135.652 156.89 135.338 157.376 135.448C157.878 135.542 158.191 136.028 158.082 136.529Z" fill="#4BCCED"/>
<path d="M161.813 137.328C161.703 137.83 161.217 138.143 160.732 138.034C160.23 137.924 159.917 137.438 160.026 136.952C160.136 136.451 160.622 136.137 161.108 136.247C161.609 136.357 161.923 136.843 161.813 137.328Z" fill="#4BCCED"/>
<path d="M165.542 138.128C165.432 138.63 164.946 138.943 164.461 138.833C163.959 138.724 163.646 138.238 163.755 137.752C163.865 137.25 164.351 136.937 164.837 137.047C165.323 137.156 165.652 137.642 165.542 138.128Z" fill="#4BCCED"/>
<path d="M169.274 138.927C169.164 139.429 168.678 139.742 168.192 139.633C167.69 139.523 167.377 139.037 167.487 138.551C167.596 138.05 168.082 137.736 168.568 137.846C169.054 137.956 169.368 138.442 169.274 138.927Z" fill="#4BCCED"/>
<path d="M133.788 139.068C133.678 139.57 133.193 139.883 132.707 139.774C132.205 139.664 131.892 139.178 132.001 138.692C132.111 138.191 132.597 137.877 133.083 137.987C133.569 138.097 133.882 138.583 133.788 139.068Z" fill="#4BCCED"/>
<path d="M137.518 139.883C137.408 140.385 136.922 140.698 136.436 140.588C135.935 140.479 135.621 139.993 135.731 139.507C135.841 139.005 136.326 138.692 136.812 138.802C137.298 138.896 137.612 139.382 137.518 139.883Z" fill="#4BCCED"/>
<path d="M141.233 140.683C141.123 141.184 140.637 141.498 140.151 141.388C139.65 141.278 139.336 140.792 139.446 140.307C139.556 139.805 140.042 139.492 140.528 139.601C141.029 139.695 141.343 140.181 141.233 140.683Z" fill="#4BCCED"/>
<path d="M144.962 141.482C144.853 141.984 144.367 142.297 143.881 142.187C143.379 142.078 143.066 141.592 143.176 141.106C143.285 140.604 143.771 140.291 144.257 140.401C144.759 140.495 145.072 140.98 144.962 141.482Z" fill="#4BCCED"/>
<path d="M148.694 142.281C148.584 142.783 148.098 143.096 147.612 142.987C147.111 142.877 146.797 142.391 146.907 141.905C147.017 141.404 147.503 141.09 147.989 141.2C148.49 141.294 148.804 141.78 148.694 142.281Z" fill="#4BCCED"/>
<path d="M152.753 143.159C152.643 143.661 152.157 143.974 151.671 143.864C151.17 143.755 150.856 143.269 150.966 142.783C151.076 142.281 151.562 141.968 152.048 142.078C152.549 142.172 152.863 142.657 152.753 143.159Z" fill="#4BCCED"/>
<path d="M156.482 143.958C156.373 144.46 155.887 144.773 155.401 144.664C154.899 144.554 154.586 144.068 154.696 143.582C154.805 143.081 155.291 142.767 155.777 142.877C156.279 142.971 156.592 143.457 156.482 143.958Z" fill="#4BCCED"/>
<path d="M160.214 144.758C160.104 145.259 159.618 145.573 159.132 145.463C158.631 145.353 158.317 144.867 158.427 144.381C158.537 143.88 159.023 143.566 159.509 143.676C160.01 143.77 160.324 144.256 160.214 144.758Z" fill="#4BCCED"/>
<path d="M163.943 145.557C163.833 146.059 163.347 146.372 162.861 146.263C162.36 146.153 162.046 145.667 162.156 145.181C162.266 144.679 162.752 144.366 163.238 144.476C163.739 144.57 164.053 145.056 163.943 145.557Z" fill="#4BCCED"/>
<path d="M185.87 105.528L181.529 125.762C181.106 127.752 179.147 129.006 177.172 128.583L139.258 120.433C137.268 120.01 136.014 118.051 136.437 116.076L140.779 95.8416C141.202 93.8511 143.161 92.5973 145.136 93.0204L183.049 101.171C185.04 101.594 186.294 103.537 185.87 105.528Z" fill="#1F8BA7"/>
<path d="M140.169 98.6926L139.218 103.121L184.315 112.812L185.267 108.384L140.169 98.6926Z" fill="white"/>
<path d="M151.037 117.014L139.33 114.498L138.925 116.383L150.632 118.899L151.037 117.014Z" fill="white"/>
<path d="M165.078 120.04L153.371 117.524L152.966 119.409L164.673 121.925L165.078 120.04Z" fill="white"/>
<path d="M178.765 122.968L167.058 120.453L166.653 122.337L178.36 124.853L178.765 122.968Z" fill="white"/>
<path d="M141.498 105.944L140.411 111.001L146.157 112.236L147.244 107.179L141.498 105.944Z" fill="#FFC90A"/>
<path d="M149.884 167.735C148.379 168.706 146.232 169.192 144.053 169.114C144.022 169.255 143.85 170.007 143.019 173.503C141.922 178.157 145.903 181.621 146.498 182.107C147.235 181.982 152.282 180.932 153.379 176.277C154.194 172.782 154.382 172.029 154.413 171.888C152.47 170.869 150.793 169.349 149.884 167.735Z" fill="#03D67C"/>
<path d="M146.672 181.465C146.233 181.073 145.371 180.242 144.634 179.067C143.521 177.28 143.177 175.446 143.6 173.659L144.524 169.725C146.437 169.741 148.27 169.318 149.697 168.55C150.621 169.945 152.048 171.23 153.74 172.186L152.816 176.12C152.392 177.922 151.28 179.349 149.509 180.383C148.364 181.026 147.236 181.339 146.672 181.465Z" fill="#1BF79A"/>
<path d="M152.344 173.518C150.918 173.361 148.77 174.114 147.25 175.305C147.25 174.553 146.654 173.722 146.294 173.471L144.852 174.333C145.51 174.85 146.106 175.995 145.981 176.982L147.109 177.468C147.83 176.621 149.648 174.647 152.485 174.067C152.469 173.863 152.344 173.55 152.344 173.518Z" fill="white"/>
<path d="M218.156 170.838C209.771 145.071 192.091 95.7947 192.091 95.7947C192.091 95.7947 186.339 93.24 183.502 104.149C180.665 115.057 188.706 137.391 188.706 137.391C188.706 137.391 171.841 189.442 199.238 195.602C218.265 199.849 223.673 181.7 218.156 170.838Z" fill="#FFBA7E"/>
<path d="M125.604 93.9454C125.604 93.9454 105.355 97.2211 113.787 114.807C122.219 132.392 131.623 118.788 127.438 105.152C125.902 100.105 125.604 93.9454 125.604 93.9454Z" fill="#FFBA7E"/>
<path d="M121.843 110.794C121.843 110.794 101.593 114.07 110.025 131.655C118.457 149.225 127.861 135.636 123.676 122.001C122.141 116.969 121.843 110.794 121.843 110.794Z" fill="#FFBA7E"/>
<path d="M114.838 140.354C114.838 140.354 99.0389 142.908 105.622 156.623C112.204 170.337 119.54 159.726 116.28 149.084C115.057 145.165 114.838 140.354 114.838 140.354Z" fill="#FFBA7E"/>
<path d="M25.3127 215.021L14.2631 250.333C13.5734 262.432 48.3053 269.454 53.9791 259.972C57.725 236.399 65.7967 202.576 64.104 190.68C56.9726 181.606 34.2778 185.728 25.3127 215.021Z" fill="#FFBA7E"/>
<path d="M61.1732 210.758C64.4176 203.956 59.9037 197.201 61.2359 187.499C63.9317 181.198 70.1226 172.061 66.8626 165.494C44.732 118.333 20.6736 123.364 0.298356 169.694C-0.610692 178.079 13.9811 203.58 22.5543 217.701C28.2281 228.673 56.7533 225.303 61.1732 210.758Z" fill="#FFBA7E"/>
<path d="M61.5028 185.477C61.4401 185.555 61.3774 185.618 61.3304 185.681C61.299 186.308 61.252 186.919 61.2363 187.499C50.5002 179.772 50.7509 161.763 54.4341 150.776C55.0454 161.748 60.5154 172.076 67.3019 174.02C66.9727 175.76 66.3615 177.703 65.28 179.803C64.3867 181.574 63.1641 183.487 61.5028 185.477Z" fill="#CF7D36"/>
<path d="M34.921 145.98C25.4857 142.987 12.0381 151.059 12.0381 151.059C12.0381 151.059 29.4354 160.243 31.4572 166.591C33.4791 172.939 30.2974 180.274 32.9932 191.088C35.689 201.903 47.4596 179.553 48.0552 167.171C48.6664 155.024 44.3563 148.974 34.921 145.98Z" fill="#CF7D36"/>
<path d="M94.056 90.4189L61.7535 168.189C61.0638 169.851 59.1517 170.634 57.4903 169.945L12.038 151.059C10.3766 150.369 9.59294 148.457 10.2826 146.796L42.5851 69.0407C43.2747 67.3793 45.1869 66.5956 46.8482 67.2852L92.3006 86.1715C93.962 86.8611 94.7456 88.7576 94.056 90.4189Z" fill="#1F8BA7"/>
<path d="M53.5619 70.0708L18.7539 153.848L27.6411 157.54L62.4491 73.7633L53.5619 70.0708Z" fill="#4BCCED"/>
<path d="M58.6032 147.908L53.4781 160.227C53.1489 161.011 53.5408 161.92 54.3401 162.249C55.1394 162.578 56.0641 162.218 56.3933 161.434L61.5184 149.115C61.8476 148.331 61.4557 147.422 60.6564 147.093C59.8414 146.748 58.9167 147.125 58.6032 147.908Z" fill="#D1F5FF"/>
<path d="M66.4709 128.959L61.3457 141.279C61.0166 142.062 61.4084 142.971 62.2078 143.3C63.0071 143.63 63.9318 143.269 64.261 142.485L69.3862 130.166C69.7153 129.383 69.3235 128.474 68.5241 128.144C67.7091 127.815 66.8001 128.176 66.4709 128.959Z" fill="#D1F5FF"/>
<path d="M74.34 110.01L69.2149 122.33C68.8857 123.113 69.2776 124.022 70.0769 124.351C70.8762 124.681 71.8009 124.32 72.1301 123.536L77.2552 111.217C77.5843 110.434 77.1925 109.525 76.3932 109.195C75.5782 108.866 74.6691 109.227 74.34 110.01Z" fill="#D1F5FF"/>
<path d="M82.2067 91.0771L77.0816 103.396C76.7524 104.18 77.1443 105.089 77.9436 105.418C78.7429 105.747 79.6677 105.387 79.9968 104.603L85.1219 92.2839C85.4511 91.5003 85.0592 90.5912 84.2599 90.2621C83.4449 89.933 82.5358 90.2934 82.2067 91.0771Z" fill="#D1F5FF"/>
<path d="M14.9255 143.022L13.6265 146.149L17.4042 147.718L18.7032 144.592L14.9255 143.022Z" fill="#D1F5FF"/>
<path d="M19.9062 131.01L15.6665 141.214L19.4443 142.784L23.684 132.58L19.9062 131.01Z" fill="#D1F5FF"/>
<path d="M59.8408 93.5064L63.3046 85.1526C63.8688 83.789 65.4361 83.1307 66.8154 83.7106L74.3385 86.8296C75.7021 87.3938 76.3604 88.9612 75.7805 90.3404L72.3167 98.6942C71.7525 100.058 70.1851 100.716 68.8059 100.136L61.2827 97.0172C59.9191 96.4373 59.2765 94.87 59.8408 93.5064Z" fill="#FFC90A"/>
<path d="M59.9978 176.716C57.4431 171.387 55.9698 165.18 55.8758 158.77C55.8758 158.645 55.8758 158.519 55.8758 158.394C55.6093 144.946 51.0014 134.163 45.5784 134.257C38.7449 134.367 35.9864 145.354 36.2529 158.786C36.2685 159.946 36.3312 161.09 36.4096 162.202C36.8641 168.19 35.9394 174.145 34.0586 179.474C32.2875 184.474 31.3158 190.555 31.4569 197.075C31.8017 213.987 39.4189 227.56 48.478 227.372C57.5371 227.184 64.6058 213.329 64.2609 196.417C64.1356 188.878 62.5369 181.998 59.9978 176.716Z" fill="#FFBA7E"/>
</g>
<defs>
<clipPath id="clip0_1090:6949">
<rect width="264" height="264.376" fill="white"/>
</clipPath>
</defs>
</svg>
