<svg width="264" height="298" viewBox="0 0 264 298" fill="none" xmlns="http://www.w3.org/2000/svg">
<g clip-path="url(#clip0_1090:6769)">
<path d="M132 263.838C204.902 263.838 264 204.776 264 131.919C264 59.0622 204.902 0 132 0C59.0984 0 0 59.0622 0 131.919C0 204.776 59.0984 263.838 132 263.838Z" fill="#F3F3F3"/>
<path d="M164.613 108.708L195.077 148.766C198.857 164.37 190.296 178.407 174.192 182.106L103.346 149.639L164.613 108.708Z" fill="#FFBA7E"/>
<path d="M192.847 144.744L242.016 159.589C246.216 172.236 240.159 198.194 227.721 206.932L174.207 182.106L192.847 144.744Z" fill="#FFBA7E"/>
<path d="M161.495 115.928C161.495 115.928 73.2685 49.3465 65.4829 62.301C56.5504 77.1453 149.735 134.439 149.735 134.439L161.495 115.928Z" fill="#FFBA7E"/>
<path d="M157.182 185.805L93.6376 185.417C89.6802 185.401 86.4658 182.009 86.4658 177.874L86.7081 40.4948C86.7081 36.5051 89.874 33.2584 93.7668 33.2422L156.068 33.0484C159.993 33.0322 163.191 36.2789 163.224 40.2848L164.354 178.294C164.403 182.477 161.188 185.837 157.182 185.805Z" fill="#8FC9ED"/>
<path d="M158.055 184.803C157.796 184.835 157.522 184.851 157.247 184.851L93.7187 184.399C90.3105 184.383 87.5322 181.411 87.5322 177.792L87.7584 40.5591C87.7584 37.0701 90.5043 34.2272 93.8479 34.2111L156.149 33.9526C156.246 33.9526 156.343 33.9526 156.44 33.9526C158.006 34.0172 159.476 34.6957 160.575 35.8425C161.689 37.0055 162.319 38.5562 162.335 40.2037L163.45 178.358C163.482 181.653 161.172 184.415 158.055 184.803Z" fill="#33201B"/>
<path d="M160.154 40.9148L161.22 178.6L89.6636 178.197L89.8413 40.9148H160.154Z" fill="white"/>
<path d="M147.313 77.7915H101.633V123.439H147.313V77.7915Z" fill="#4BCCED"/>
<path d="M133.002 107.076H116.026C115.686 107.076 115.396 106.85 115.283 106.543L112.036 96.4156C111.955 96.1733 112.004 95.9148 112.149 95.721C112.294 95.5272 112.537 95.3979 112.779 95.3979H136.265C136.507 95.3979 136.75 95.511 136.895 95.721C137.04 95.9148 137.089 96.1733 137.008 96.4156L133.745 106.543C133.632 106.866 133.341 107.076 133.002 107.076ZM116.591 105.526H132.437L135.183 96.9486H113.829L116.591 105.526Z" fill="#443E3E"/>
<path d="M131.596 111.373H117.123C116.687 111.373 116.348 111.018 116.348 110.598C116.348 110.161 116.704 109.822 117.123 109.822H131.031C131.984 109.806 132.404 109.144 132.469 108.465C132.533 107.868 132.307 107.254 131.903 107.076L136.797 91.7635C136.894 91.4405 137.201 91.2305 137.541 91.2305H142.596C143.032 91.2305 143.372 91.5858 143.372 92.0058C143.372 92.4258 143.016 92.7811 142.596 92.7811H138.106L133.632 106.996C134.811 108.95 133.195 111.373 131.596 111.373Z" fill="#443E3E"/>
<path d="M121.345 115.247C122.045 114.547 122.045 113.412 121.345 112.712C120.645 112.012 119.509 112.012 118.809 112.712C118.109 113.412 118.109 114.547 118.809 115.247C119.509 115.947 120.645 115.947 121.345 115.247Z" fill="#443E3E"/>
<path d="M130.829 114.392C131.057 113.429 130.46 112.463 129.496 112.236C128.532 112.008 127.567 112.605 127.339 113.568C127.112 114.532 127.708 115.498 128.672 115.725C129.636 115.953 130.601 115.356 130.829 114.392Z" fill="#443E3E"/>
<path d="M124.926 107.076C124.49 107.076 124.151 106.721 124.151 106.301V96.1733C124.151 95.7372 124.506 95.3979 124.926 95.3979C125.362 95.3979 125.702 95.7533 125.702 96.1733V106.301C125.702 106.737 125.362 107.076 124.926 107.076Z" fill="#443E3E"/>
<path d="M120.597 107.076C120.242 107.076 119.919 106.834 119.838 106.479L117.544 96.3509C117.447 95.9309 117.706 95.5109 118.126 95.414C118.546 95.3171 118.966 95.5755 119.063 95.9955L121.356 106.123C121.453 106.543 121.195 106.963 120.775 107.06C120.71 107.076 120.662 107.076 120.597 107.076Z" fill="#443E3E"/>
<path d="M129.093 107.076C129.06 107.076 129.012 107.076 128.979 107.06C128.559 106.995 128.253 106.608 128.317 106.172L129.787 96.0438C129.852 95.6238 130.239 95.3169 130.675 95.3815C131.095 95.4461 131.402 95.8338 131.338 96.2699L129.868 106.398C129.803 106.801 129.464 107.076 129.093 107.076Z" fill="#443E3E"/>
<path d="M134.634 102.085H114.411C113.974 102.085 113.635 101.73 113.635 101.31C113.635 100.874 113.991 100.534 114.411 100.534H134.618C135.054 100.534 135.393 100.89 135.393 101.31C135.409 101.73 135.054 102.085 134.634 102.085Z" fill="#443E3E"/>
<path d="M113.763 100.131C116.903 100.131 119.449 97.5851 119.449 94.4449C119.449 91.3048 116.903 88.7592 113.763 88.7592C110.623 88.7592 108.077 91.3048 108.077 94.4449C108.077 97.5851 110.623 100.131 113.763 100.131Z" fill="#F04438"/>
<path d="M111.97 96.6739C110.904 96.6739 110.564 95.7371 110.564 95.7371L111.146 95.414C111.146 95.414 111.356 96.0278 111.986 96.0278C112.454 96.0278 112.729 95.7048 112.729 95.2848C112.729 94.8487 112.47 94.5418 111.873 94.5418C111.307 94.5418 110.791 94.9779 110.791 94.9779V92.5873H113.327V93.2495H111.453V94.041C111.453 94.041 111.679 93.928 112.018 93.928C112.729 93.928 113.391 94.3641 113.391 95.3171C113.391 96.2378 112.664 96.6739 111.97 96.6739Z" fill="white"/>
<path d="M116.897 94.5902C116.897 95.6885 116.412 96.6739 115.394 96.6739C114.377 96.6739 113.876 95.6885 113.876 94.5902C113.876 93.4918 114.377 92.5065 115.394 92.5065C116.428 92.5065 116.897 93.5079 116.897 94.5902ZM116.218 94.5902C116.218 93.7987 115.96 93.1526 115.394 93.1526C114.829 93.1526 114.571 93.7987 114.571 94.5902C114.571 95.3816 114.845 96.0278 115.394 96.0278C115.96 96.0278 116.218 95.3816 116.218 94.5902Z" fill="white"/>
<path d="M143.096 131.968H104.992V148.944H143.096V131.968Z" fill="#1BF79A"/>
<path d="M192.249 143.985C178.633 120.952 150.995 77.2261 150.995 77.2261C150.995 77.2261 144.906 75.9985 144.502 87.1278C144.114 98.257 156.649 118.06 156.649 118.06C156.649 118.06 151.577 171.881 179.311 171.929C198.597 171.946 199.906 153.289 192.249 143.985Z" fill="#FFBA7E"/>
<path d="M86.4822 89.7443C86.4822 89.7443 67.6643 97.2553 79.5689 112.39C91.4734 127.525 97.6275 112.39 90.6657 100.147C88.0813 95.6239 86.4822 89.7443 86.4822 89.7443Z" fill="#FFBA7E"/>
<path d="M86.4822 106.802C86.4822 106.802 67.6643 114.313 79.5689 129.448C91.4734 144.583 97.6275 129.448 90.6657 117.204C88.0813 112.681 86.4822 106.802 86.4822 106.802Z" fill="#FFBA7E"/>
<path d="M86.0613 136.797C86.0613 136.797 71.3786 142.661 80.6664 154.468C89.9541 166.276 94.7515 154.468 89.3242 144.922C87.3212 141.385 86.0613 136.797 86.0613 136.797Z" fill="#FFBA7E"/>
<path d="M86.7069 226.461C86.7069 226.461 126.41 153.903 120.095 146.553C113.779 139.204 67.9697 219.758 67.9697 219.758L86.7069 226.461Z" fill="#FFBA7E"/>
<path d="M102.489 236.12C99.1449 242.29 62.5105 271.204 62.5105 271.204C30.2374 257.28 82.1845 224.587 82.1845 224.587C82.1845 224.587 69.2139 202.797 80.6823 199.809C89.0494 197.628 94.5414 203.443 96.8997 206.755C97.2227 207.207 97.4812 207.611 97.6912 207.934C98.0304 208.499 98.208 208.838 98.208 208.838C98.208 208.838 105.832 229.966 102.489 236.12Z" fill="#FFBA7E"/>
<path d="M90.9715 229.239L86.7395 226.396L62.2035 271.64L23.2432 250.916C23.2432 250.916 31.2549 199.583 36.7468 192.815C42.2226 186.031 49.8305 182.445 49.8305 182.445C56.7278 179.053 59.4737 182.348 62.6073 181.669C69.7792 180.103 73.4781 186.354 75.5134 185.74C77.8394 185.045 80.9407 185.433 83.6059 186.515C84.7527 186.984 85.8188 187.581 86.7234 188.276C87.6441 188.987 88.3871 189.794 88.8232 190.683L100.421 193.929L97.5295 204.703L97.901 204.784L97.0773 206.383L90.9715 229.239Z" fill="#FFBA7E"/>
<path d="M92.6511 225.993C89.9697 235.814 82.6364 234.344 84.9301 228.529L97.0123 206.916C97.3354 207.369 97.4808 207.595 97.6746 207.934C94.121 214.363 92.6511 225.993 92.6511 225.993Z" fill="#DB6704"/>
<path d="M44.4845 297.888C24.5521 296.386 2.34208 274.176 4.10273 263.241L26.5227 241.58L68.019 263.015L44.4845 297.888Z" fill="#FFBA7E"/>
</g>
<defs>
<clipPath id="clip0_1090:6769">
<rect width="264" height="297.888" fill="white"/>
</clipPath>
</defs>
</svg>
