<svg width="70" height="70" viewBox="0 0 70 70" fill="none" xmlns="http://www.w3.org/2000/svg">
<rect width="70" height="70" fill="white"/>
<path d="M43.4688 42.3216L41.1559 41.1655V40.2381H41.8269C42.0048 40.2381 42.1755 40.1674 42.3013 40.0416C42.4272 39.9158 42.4979 39.7451 42.4979 39.5671V35.5412C42.4979 35.3632 42.4272 35.1925 42.3013 35.0667C42.1755 34.9409 42.0048 34.8702 41.8269 34.8702H35.7879V32.8572C35.7868 31.9677 35.433 31.115 34.8041 30.486C34.1751 29.8571 33.3224 29.5033 32.4329 29.5022V28.1602H33.1039C33.2819 28.1602 33.4525 28.0895 33.5784 27.9637C33.7042 27.8378 33.7749 27.6672 33.7749 27.4892V23.4632C33.7749 23.2853 33.7042 23.1146 33.5784 22.9888C33.4525 22.8629 33.2819 22.7922 33.1039 22.7922H19.684C19.506 22.7922 19.3354 22.8629 19.2095 22.9888C19.0837 23.1146 19.013 23.2853 19.013 23.4632V27.4892C19.013 27.6672 19.0837 27.8378 19.2095 27.9637C19.3354 28.0895 19.506 28.1602 19.684 28.1602H20.355V29.5022C19.4655 29.5033 18.6128 29.8571 17.9838 30.486C17.3549 31.115 17.0011 31.9677 17 32.8572V51.6451C17.0011 52.5345 17.3549 53.3873 17.9838 54.0162C18.6128 54.6452 19.4655 54.999 20.355 55.0001H41.8269C42.3607 55.0001 42.8728 54.788 43.2503 54.4105C43.6278 54.033 43.8399 53.521 43.8399 52.9871V42.9221C43.8399 42.7974 43.8052 42.6752 43.7397 42.5691C43.6741 42.463 43.5803 42.3773 43.4688 42.3216ZM34.4459 36.2122H35.7879V37.5542H37.1299V36.2122H38.4719V37.5542H39.8139V36.2122H41.1559V38.8961H31.7619V36.2122H33.1039V37.5542H34.4459V36.2122ZM20.355 24.1342H21.697V25.4762H23.039V24.1342H24.381V25.4762H25.723V24.1342H27.0649V25.4762H28.4069V24.1342H29.7489V25.4762H31.0909V24.1342H32.4329V26.8182H20.355V24.1342ZM31.0909 28.1602V29.5022H21.697V28.1602H31.0909ZM18.342 32.8572C18.342 32.3233 18.5541 31.8113 18.9316 31.4338C19.3091 31.0563 19.8211 30.8442 20.355 30.8442H32.4329C32.9668 30.8442 33.4788 31.0563 33.8563 31.4338C34.2338 31.8113 34.4459 32.3233 34.4459 32.8572V34.8702H18.342V32.8572ZM20.355 53.6581C19.8211 53.6581 19.3091 53.446 18.9316 53.0685C18.5541 52.691 18.342 52.179 18.342 51.6451V48.2901H29.0779V52.9871C29.0802 53.2162 29.1219 53.4432 29.2014 53.6581H20.355ZM29.0779 42.9221V46.9481H18.342V36.2122H30.4199V39.5671C30.4199 39.7451 30.4906 39.9158 30.6165 40.0416C30.7423 40.1674 30.913 40.2381 31.0909 40.2381H31.7619V41.1655L29.449 42.3216C29.3375 42.3773 29.2436 42.463 29.1781 42.5691C29.1126 42.6752 29.0779 42.7974 29.0779 42.9221ZM42.4979 52.9871C42.4979 53.165 42.4272 53.3357 42.3013 53.4615C42.1755 53.5874 42.0048 53.6581 41.8269 53.6581H31.0909C30.913 53.6581 30.7423 53.5874 30.6165 53.4615C30.4906 53.3357 30.4199 53.165 30.4199 52.9871V49.6321H42.4979V52.9871ZM42.4979 48.2901H30.4199V45.6061H42.4979V48.2901ZM42.4979 44.2641H30.4199V43.3368L32.7329 42.184C32.8449 42.128 32.939 42.0418 33.0046 41.9351C33.0702 41.8284 33.1046 41.7054 33.1039 41.5801V40.2381H39.8139V41.5801C39.8132 41.7054 39.8476 41.8284 39.9132 41.9351C39.9787 42.0418 40.0729 42.128 40.1849 42.184L42.4979 43.3368V44.2641Z" fill="#1F8BA7" fill-opacity="0.6"/>
<path d="M27.065 39.5669H25.723V38.225C25.723 38.047 25.6524 37.8763 25.5265 37.7505C25.4007 37.6246 25.23 37.554 25.0521 37.554H22.3681C22.1901 37.554 22.0194 37.6246 21.8936 37.7505C21.7678 37.8763 21.6971 38.047 21.6971 38.225V39.5669H20.3551C20.1771 39.5669 20.0064 39.6376 19.8806 39.7635C19.7548 39.8893 19.6841 40.06 19.6841 40.2379V42.9219C19.6841 43.0999 19.7548 43.2706 19.8806 43.3964C20.0064 43.5222 20.1771 43.5929 20.3551 43.5929H21.6971V44.9349C21.6971 45.1129 21.7678 45.2835 21.8936 45.4094C22.0194 45.5352 22.1901 45.6059 22.3681 45.6059H25.0521C25.23 45.6059 25.4007 45.5352 25.5265 45.4094C25.6524 45.2835 25.723 45.1129 25.723 44.9349V43.5929H27.065C27.243 43.5929 27.4137 43.5222 27.5395 43.3964C27.6653 43.2706 27.736 43.0999 27.736 42.9219V40.2379C27.736 40.06 27.6653 39.8893 27.5395 39.7635C27.4137 39.6376 27.243 39.5669 27.065 39.5669ZM26.394 42.2509H25.0521C24.8741 42.2509 24.7034 42.3216 24.5776 42.4475C24.4518 42.5733 24.3811 42.744 24.3811 42.9219V44.2639H23.0391V42.9219C23.0391 42.744 22.9684 42.5733 22.8425 42.4475C22.7167 42.3216 22.546 42.2509 22.3681 42.2509H21.0261V40.9089H22.3681C22.546 40.9089 22.7167 40.8382 22.8425 40.7124C22.9684 40.5866 23.0391 40.4159 23.0391 40.2379V38.8959H24.3811V40.2379C24.3811 40.4159 24.4518 40.5866 24.5776 40.7124C24.7034 40.8382 24.8741 40.9089 25.0521 40.9089H26.394V42.2509Z" fill="#1F8BA7" fill-opacity="0.6"/>
<path d="M19.6841 32.186H21.0261V33.528H19.6841V32.186Z" fill="#1F8BA7" fill-opacity="0.6"/>
<path d="M22.3677 32.186H23.7097V33.528H22.3677V32.186Z" fill="#1F8BA7" fill-opacity="0.6"/>
<path d="M39.814 50.9741H41.156V52.3161H39.814V50.9741Z" fill="#1F8BA7" fill-opacity="0.6"/>
<path d="M37.1299 50.9741H38.4719V52.3161H37.1299V50.9741Z" fill="#1F8BA7" fill-opacity="0.6"/>
<path d="M39.8136 29.2698C40.4001 29.2708 40.9811 29.1559 41.5231 28.9317C42.0651 28.7075 42.5575 28.3784 42.9719 27.9634L48.3399 22.5954C49.1645 21.755 49.624 20.6231 49.6185 19.4457C49.6129 18.2684 49.1427 17.1408 48.3102 16.3083C47.4777 15.4758 46.3501 15.0056 45.1728 15C43.9954 14.9945 42.8635 15.454 42.0231 16.2786L36.6552 21.6466C36.0303 22.271 35.6046 23.0668 35.4321 23.9332C35.2596 24.7997 35.3481 25.6978 35.6862 26.5139C36.0243 27.3301 36.597 28.0276 37.3317 28.5181C38.0664 29.0087 38.9301 29.2703 39.8136 29.2698ZM42.9719 17.2274C43.262 16.937 43.6064 16.7066 43.9855 16.5494C44.3647 16.3922 44.7711 16.3113 45.1815 16.3113C45.592 16.3113 45.9984 16.3922 46.3775 16.5494C46.7566 16.7066 47.1011 16.937 47.3911 17.2274C47.976 17.814 48.3044 18.6086 48.3044 19.437C48.3044 20.2654 47.976 21.06 47.3911 21.6466L45.1815 23.8562L40.7624 19.437L42.9719 17.2274ZM37.604 22.5954L39.8136 20.3858L44.2327 24.805L42.0231 27.0146C41.4371 27.6006 40.6423 27.9298 39.8136 27.9298C38.9848 27.9298 38.19 27.6006 37.604 27.0146C37.018 26.4285 36.6887 25.6337 36.6887 24.805C36.6887 23.9762 37.018 23.1814 37.604 22.5954Z" fill="#1F8BA7" fill-opacity="0.6"/>
<path d="M46.0493 19.9115L46.9981 18.9627L46.1305 18.0951C45.8788 17.8435 45.5376 17.7021 45.1817 17.7021C44.8259 17.7021 44.4846 17.8435 44.2329 18.0951L42.6943 19.6337L43.6431 20.5825L45.1817 19.0439L46.0493 19.9115Z" fill="#1F8BA7" fill-opacity="0.6"/>
<path d="M51.2206 22.1208C50.6898 22.1208 50.1708 22.2783 49.7295 22.5732C49.2881 22.8681 48.9441 23.2873 48.7409 23.7777C48.5378 24.2682 48.4846 24.8078 48.5882 25.3285C48.6918 25.8491 48.9474 26.3273 49.3227 26.7027C49.6981 27.0781 50.1763 27.3337 50.697 27.4372C51.2176 27.5408 51.7573 27.4877 52.2477 27.2845C52.7381 27.0814 53.1573 26.7374 53.4522 26.296C53.7472 25.8546 53.9046 25.3357 53.9046 24.8048C53.9046 24.093 53.6218 23.4103 53.1185 22.907C52.6151 22.4036 51.9324 22.1208 51.2206 22.1208ZM51.2206 26.1468C50.9552 26.1468 50.6957 26.0681 50.475 25.9207C50.2543 25.7732 50.0823 25.5636 49.9808 25.3184C49.8792 25.0732 49.8526 24.8033 49.9044 24.543C49.9562 24.2827 50.084 24.0436 50.2717 23.8559C50.4593 23.6682 50.6985 23.5404 50.9588 23.4886C51.2191 23.4368 51.4889 23.4634 51.7342 23.565C51.9794 23.6666 52.189 23.8386 52.3364 24.0593C52.4839 24.28 52.5626 24.5394 52.5626 24.8048C52.5626 25.1608 52.4212 25.5021 52.1695 25.7538C51.9179 26.0054 51.5765 26.1468 51.2206 26.1468Z" fill="#1F8BA7" fill-opacity="0.6"/>
<path d="M47.195 27.489C46.266 27.489 45.3579 27.7645 44.5855 28.2806C43.8131 28.7967 43.2111 29.5303 42.8556 30.3885C42.5001 31.2468 42.4071 32.1912 42.5883 33.1023C42.7695 34.0134 43.2169 34.8504 43.8738 35.5072C44.5306 36.1641 45.3676 36.6115 46.2787 36.7927C47.1898 36.9739 48.1342 36.8809 48.9925 36.5254C49.8507 36.1699 50.5843 35.5679 51.1004 34.7955C51.6165 34.0231 51.892 33.115 51.892 32.186C51.8906 30.9407 51.3953 29.7468 50.5147 28.8663C49.6342 27.9857 48.4403 27.4904 47.195 27.489ZM47.195 28.831C47.8524 28.8311 48.4951 29.0256 49.0423 29.3899L44.399 34.0332C44.0637 33.5282 43.8718 32.9417 43.8436 32.3361C43.8155 31.7306 43.9522 31.1288 44.2392 30.5948C44.5261 30.0609 44.9526 29.6148 45.4732 29.3042C45.9937 28.9936 46.5888 28.83 47.195 28.831ZM47.195 35.541C46.5376 35.5408 45.895 35.3464 45.3478 34.982L49.9911 30.3387C50.3263 30.8438 50.5183 31.4303 50.5464 32.0358C50.5746 32.6414 50.4379 33.2432 50.1509 33.7771C49.8639 34.3111 49.4374 34.7572 48.9168 35.0678C48.3963 35.3784 47.8012 35.5419 47.195 35.541Z" fill="#1F8BA7" fill-opacity="0.6"/>
</svg>
