<svg width="20" height="19" viewBox="0 0 20 19" fill="none" xmlns="http://www.w3.org/2000/svg">
<ellipse cx="10.174" cy="9.7098" rx="5.10267" ry="5.09262" fill="white"/>
<path d="M11.472 10.8371L11.472 13.9683C15.6331 13.9683 16.6821 10.0759 16.6865 8.12979C16.3486 2.09168 11.6084 0.527462 9.28056 0.500116C8.95316 0.598564 8.87132 0.769024 8.87132 0.841947L8.83914 3.12999C13.6022 3.22843 14.5817 6.83544 14.4761 8.62663L14.5083 10.044C14.4555 10.6894 13.9406 10.8416 13.6898 10.8371L11.472 10.8371Z" stroke="#1A1717" stroke-width="0.5"/>
<path d="M11.3573 8.2504L14.4946 8.2504C14.4946 4.09753 10.5946 3.05053 8.64463 3.04614C2.5946 3.38343 1.02729 8.11426 0.999892 10.4375C1.09853 10.7643 1.26933 10.8459 1.3424 10.8459L3.45623 10.8611C3.55487 6.10748 7.169 5.12987 8.96373 5.23527L10.5627 5.22007C11.2093 5.27277 11.3618 5.78661 11.3573 6.03694L11.3573 8.2504Z" stroke="#1A1717" stroke-width="0.5"/>
<path d="M8.69462 8.26055V5.22144C4.41706 5.22144 3.42005 9.00097 3.41553 10.9288C3.76294 16.9099 8.55439 18.4729 10.9474 18.5C11.284 18.4024 11.3681 18.2336 11.3681 18.1614L11.3952 16.0078C6.49884 15.9103 5.49188 12.5947 5.60045 10.8204L5.5733 9.04611C5.62759 8.40683 6.15685 8.25604 6.4147 8.26055H8.69462Z" stroke="#1A1717" stroke-width="0.5"/>
<path d="M8.64274 10.8698L5.57324 10.8883C5.57324 15.0411 9.37825 16.0881 11.3282 16.0925C17.3783 15.7552 18.9727 11.0059 19.0001 8.68267C18.9015 8.35592 18.7307 8.27424 18.6576 8.27424L16.6837 8.27424C16.3308 13.0147 12.9592 13.9784 11.1645 13.873L9.43736 13.9001C8.7907 13.8474 8.63817 13.3336 8.64274 13.0832L8.64274 10.8698Z" stroke="#1A1717" stroke-width="0.5"/>
</svg>
