<svg width="23" height="22" viewBox="0 0 23 22" fill="none" xmlns="http://www.w3.org/2000/svg">
<path d="M7.646 6.33333L5.98266 1H1.66667C1.29867 1 1 1.29867 1 1.66667C1 2.03467 1.29867 2.33333 1.66667 2.33333H5L6.33999 6.33333H6.33333L7.66667 14.3333C7.66667 15.806 8.86067 17 10.3333 17H17.6667C19.1393 17 20.3333 15.806 20.3333 14.3333L22.3333 6.33333H7.646ZM19 14.3333C19 15.0693 18.4027 15.6667 17.6667 15.6667H10.3333C9.59667 15.6667 9 15.0693 9 14.3333L7.88868 7.66667H20.6667L19 14.3333ZM10.3333 18.3333C9.59667 18.3333 9 18.93 9 19.6667C9 20.4027 9.59667 21 10.3333 21C11.07 21 11.6667 20.4027 11.6667 19.6667C11.6667 18.93 11.07 18.3333 10.3333 18.3333ZM17 18.3333C16.2633 18.3333 15.6667 18.93 15.6667 19.6667C15.6667 20.4027 16.2633 21 17 21C17.7367 21 18.3333 20.4027 18.3333 19.6667C18.3333 18.93 17.7367 18.3333 17 18.3333Z" fill="#CCCCCC" stroke="#CCCCCC" stroke-width="0.8"/>
</svg>
