<svg width="18" height="17" viewBox="0 0 18 17" fill="none" xmlns="http://www.w3.org/2000/svg">
<path d="M5.7345 5L4.48699 1H1.25C0.974 1 0.75 1.224 0.75 1.5C0.75 1.776 0.974 2 1.25 2H3.75L4.75499 5H4.75L5.75 11C5.75 12.1045 6.6455 13 7.75 13H13.25C14.3545 13 15.25 12.1045 15.25 11L16.75 5H5.7345ZM14.25 11C14.25 11.552 13.802 12 13.25 12H7.75C7.1975 12 6.75 11.552 6.75 11L5.91651 6H15.5L14.25 11ZM7.75 14C7.1975 14 6.75 14.4475 6.75 15C6.75 15.552 7.1975 16 7.75 16C8.3025 16 8.75 15.552 8.75 15C8.75 14.4475 8.3025 14 7.75 14ZM12.75 14C12.1975 14 11.75 14.4475 11.75 15C11.75 15.552 12.1975 16 12.75 16C13.3025 16 13.75 15.552 13.75 15C13.75 14.4475 13.3025 14 12.75 14Z" fill="white" stroke="white" stroke-width="0.8"/>
</svg>
