<svg width="14" height="14" viewBox="0 0 14 14" fill="none" xmlns="http://www.w3.org/2000/svg">
<path d="M7.77344 7.00051L13.8398 0.934091C14.0534 0.720509 14.0534 0.374229 13.8398 0.160674C13.6262 -0.0528798 13.28 -0.0529071 13.0664 0.160674L6.99999 6.22709L0.933603 0.160674C0.720021 -0.0529071 0.37374 -0.0529071 0.160186 0.160674C-0.0533681 0.374256 -0.0533954 0.720537 0.160186 0.934091L6.22658 7.00048L0.160186 13.0669C-0.0533954 13.2805 -0.0533954 13.6268 0.160186 13.8403C0.266963 13.9471 0.406936 14.0005 0.546908 14.0005C0.686881 14.0005 0.826826 13.9471 0.93363 13.8403L6.99999 7.77393L13.0664 13.8403C13.1732 13.9471 13.3131 14.0005 13.4531 14.0005C13.5931 14.0005 13.733 13.9471 13.8398 13.8403C14.0534 13.6267 14.0534 13.2805 13.8398 13.0669L7.77344 7.00051Z" fill="#4B4747"/>
</svg>
