<svg width="20" height="20" viewBox="0 0 20 20" fill="none" xmlns="http://www.w3.org/2000/svg">
<path d="M10.0002 0C6.32423 0 3.3335 2.99074 3.3335 6.66668C3.3335 7.7702 3.60939 8.86434 4.13389 9.8348L9.63559 19.7852C9.70884 19.9178 9.84841 20 10.0002 20C10.1519 20 10.2915 19.9178 10.3647 19.7852L15.8685 9.83152C16.3909 8.86434 16.6668 7.77016 16.6668 6.66664C16.6668 2.99074 13.6761 0 10.0002 0ZM10.0002 10C8.1622 10 6.66685 8.50465 6.66685 6.66668C6.66685 4.82871 8.1622 3.33336 10.0002 3.33336C11.8381 3.33336 13.3335 4.82871 13.3335 6.66668C13.3335 8.50465 11.8381 10 10.0002 10Z" fill="#CCCCCC"/>
</svg>
