<svg width="24" height="22" viewBox="0 0 24 22" fill="none" xmlns="http://www.w3.org/2000/svg">
<path d="M21.1446 13.1175C20.87 12.843 20.4249 12.843 20.1503 13.1175C19.8757 13.3921 19.8757 13.8373 20.1503 14.1119L21.5687 15.5303C21.706 15.6676 21.8859 15.7362 22.0658 15.7362C22.2458 15.7362 22.4257 15.6675 22.563 15.5303C22.8376 15.2557 22.8376 14.8105 22.563 14.5359L21.1446 13.1175Z" fill="white"/>
<path d="M20.6474 7.29873C20.8273 7.29873 21.0073 7.23006 21.1446 7.09281L22.563 5.67442C22.8376 5.39988 22.8376 4.95466 22.563 4.68007C22.2884 4.40547 21.8433 4.40547 21.5687 4.68007L20.1503 6.09845C19.8757 6.373 19.8757 6.81822 20.1503 7.09281C20.2876 7.23011 20.4675 7.29873 20.6474 7.29873Z" fill="white"/>
<path d="M23.297 9.40186H21.291C20.9027 9.40186 20.5879 9.71667 20.5879 10.105C20.5879 10.4933 20.9027 10.8081 21.291 10.8081H23.297C23.6853 10.8081 24.0001 10.4933 24.0001 10.105C24.0001 9.71667 23.6853 9.40186 23.297 9.40186Z" fill="white"/>
<path d="M18.7147 0.105784C18.4927 -0.018575 18.2208 -0.0132313 18.0038 0.119612L9.95142 5.0511H6.37669C5.61323 5.01074 4.88695 5.2768 4.32942 5.80161C4.12191 5.99689 3.94697 6.22232 3.80756 6.46794H2.03845C0.914437 6.46794 0 7.38238 0 8.50639V11.7038C0 12.8278 0.914437 13.7423 2.03845 13.7423H3.80405C4.08717 14.2484 4.51458 14.668 5.03419 14.9457L2.58445 19.1888C2.49047 19.3516 2.46558 19.5453 2.51531 19.7266C2.56509 19.9078 2.68537 20.0616 2.8493 20.1536L5.95158 21.894C6.06033 21.9551 6.17845 21.9841 6.29498 21.9841C6.53813 21.9841 6.77442 21.8578 6.9045 21.6324L10.4026 15.5734L18.0118 20.0954C18.1224 20.1612 18.2467 20.1941 18.371 20.1941C18.4909 20.1941 18.6109 20.1635 18.7187 20.1021C18.9384 19.977 19.0741 19.7437 19.0741 19.4909V0.719238C19.0741 0.4648 18.9367 0.230191 18.7147 0.105784ZM2.03845 12.336C1.68984 12.336 1.40625 12.0524 1.40625 11.7038V8.50639C1.40625 8.15778 1.68984 7.87419 2.03845 7.87419H3.42848C3.42839 7.88469 3.42769 7.89514 3.42769 7.90564V12.3046C3.42769 12.3151 3.42834 12.3255 3.42848 12.336H2.03845ZM4.83394 7.90564C4.83394 7.49399 5.00133 7.10033 5.29317 6.82564C5.57095 6.56422 5.93339 6.43274 6.31425 6.45608C6.32845 6.45693 9.44658 6.45735 9.44658 6.45735V13.902H6.37992C5.51137 13.8396 4.83394 13.1415 4.83394 12.3045V7.90564ZM6.03394 20.3278L4.15819 19.2755L6.4072 15.3801C6.42075 15.3566 6.43242 15.3326 6.44297 15.3083H8.93189L6.03394 20.3278ZM17.6679 18.2552L10.8528 14.2051V6.14811L17.6679 1.97436V18.2552Z" fill="white"/>
</svg>
