<svg width="24" height="22" viewBox="0 0 24 22" fill="none" xmlns="http://www.w3.org/2000/svg">
<path d="M21.1446 13.1173C20.87 12.8428 20.4249 12.8428 20.1503 13.1173C19.8757 13.3919 19.8757 13.8371 20.1503 14.1117L21.5687 15.5301C21.706 15.6674 21.8859 15.736 22.0658 15.736C22.2458 15.736 22.4257 15.6673 22.563 15.5301C22.8376 15.2556 22.8376 14.8103 22.563 14.5357L21.1446 13.1173Z" fill="#CCCCCC"/>
<path d="M20.6474 7.29855C20.8273 7.29855 21.0073 7.22988 21.1446 7.09263L22.563 5.67424C22.8376 5.39969 22.8376 4.95448 22.563 4.67988C22.2884 4.40529 21.8433 4.40529 21.5687 4.67988L20.1503 6.09827C19.8757 6.37282 19.8757 6.81803 20.1503 7.09263C20.2876 7.22992 20.4675 7.29855 20.6474 7.29855Z" fill="#CCCCCC"/>
<path d="M23.297 9.40186H21.291C20.9027 9.40186 20.5879 9.71667 20.5879 10.105C20.5879 10.4933 20.9027 10.8081 21.291 10.8081H23.297C23.6853 10.8081 24.0001 10.4933 24.0001 10.105C24.0001 9.71667 23.6853 9.40186 23.297 9.40186Z" fill="#CCCCCC"/>
<path d="M18.7147 0.105662C18.4927 -0.0186971 18.2208 -0.0133533 18.0038 0.11949L9.95142 5.05097H6.37669C5.61323 5.01062 4.88695 5.27668 4.32942 5.80149C4.12191 5.99677 3.94697 6.22219 3.80756 6.46782H2.03845C0.914437 6.46782 0 7.38226 0 8.50627V11.7037C0 12.8277 0.914437 13.7422 2.03845 13.7422H3.80405C4.08717 14.2483 4.51458 14.6679 5.03419 14.9456L2.58445 19.1887C2.49047 19.3515 2.46558 19.5451 2.51531 19.7265C2.56509 19.9077 2.68537 20.0615 2.8493 20.1535L5.95158 21.8939C6.06033 21.9549 6.17845 21.984 6.29498 21.984C6.53813 21.984 6.77442 21.8576 6.9045 21.6323L10.4026 15.5733L18.0118 20.0953C18.1224 20.161 18.2467 20.1939 18.371 20.1939C18.4909 20.1939 18.6109 20.1633 18.7187 20.1019C18.9384 19.9769 19.0741 19.7436 19.0741 19.4908V0.719115C19.0741 0.464678 18.9367 0.230069 18.7147 0.105662ZM2.03845 12.3359C1.68984 12.3359 1.40625 12.0523 1.40625 11.7037V8.50627C1.40625 8.15766 1.68984 7.87407 2.03845 7.87407H3.42848C3.42839 7.88457 3.42769 7.89502 3.42769 7.90552V12.3045C3.42769 12.315 3.42834 12.3254 3.42848 12.3359H2.03845ZM4.83394 7.90552C4.83394 7.49387 5.00133 7.10021 5.29317 6.82552C5.57095 6.5641 5.93339 6.43262 6.31425 6.45596C6.32845 6.4568 9.44658 6.45723 9.44658 6.45723V13.9019H6.37992C5.51137 13.8395 4.83394 13.1414 4.83394 12.3044V7.90552ZM6.03394 20.3277L4.15819 19.2754L6.4072 15.3799C6.42075 15.3565 6.43242 15.3324 6.44297 15.3082H8.93189L6.03394 20.3277ZM17.6679 18.2551L10.8528 14.205V6.14799L17.6679 1.97424V18.2551Z" fill="#CCCCCC"/>
</svg>
