<svg width="15" height="15" viewBox="0 0 15 15" fill="none" xmlns="http://www.w3.org/2000/svg">
<path d="M8.60833 11H6.39167C6.29884 11 6.20982 10.9631 6.14418 10.8975C6.07854 10.8318 6.04167 10.7428 6.04167 10.65V9.30833C6.04167 9.21551 6.00479 9.12648 5.93915 9.06085C5.87352 8.99521 5.78449 8.95833 5.69167 8.95833H4.35C4.25717 8.95833 4.16815 8.92146 4.10251 8.85582C4.03687 8.79018 4 8.70116 4 8.60833V6.39167C4 6.29884 4.03687 6.20982 4.10251 6.14418C4.16815 6.07854 4.25717 6.04167 4.35 6.04167H5.69167C5.78449 6.04167 5.87352 6.00479 5.93915 5.93915C6.00479 5.87352 6.04167 5.78449 6.04167 5.69167V4.35C6.04167 4.25717 6.07854 4.16815 6.14418 4.10251C6.20982 4.03687 6.29884 4 6.39167 4H8.60833C8.70116 4 8.79018 4.03687 8.85582 4.10251C8.92146 4.16815 8.95833 4.25717 8.95833 4.35V5.69167C8.95833 5.78449 8.99521 5.87352 9.06085 5.93915C9.12648 6.00479 9.21551 6.04167 9.30833 6.04167H10.65C10.7428 6.04167 10.8318 6.07854 10.8975 6.14418C10.9631 6.20982 11 6.29884 11 6.39167V8.60833C11 8.70116 10.9631 8.79018 10.8975 8.85582C10.8318 8.92146 10.7428 8.95833 10.65 8.95833H9.30833C9.21551 8.95833 9.12648 8.99521 9.06085 9.06085C8.99521 9.12648 8.95833 9.21551 8.95833 9.30833V10.65C8.95833 10.7428 8.92146 10.8318 8.85582 10.8975C8.79018 10.9631 8.70116 11 8.60833 11V11Z" stroke="white" stroke-width="0.7"/>
<path d="M7.5 13.75C10.9519 13.75 13.75 10.9519 13.75 7.5C13.75 4.04813 10.9519 1.25 7.5 1.25C4.04813 1.25 1.25 4.04813 1.25 7.5C1.25 10.9519 4.04813 13.75 7.5 13.75Z" stroke="white" stroke-width="0.7" stroke-linecap="round" stroke-linejoin="round"/>
</svg>
