<svg width="20" height="20" viewBox="0 0 20 20" fill="none" xmlns="http://www.w3.org/2000/svg">
<path fill-rule="evenodd" clip-rule="evenodd" d="M8.66447 0.0390015C3.89396 0.0390015 0.0449219 3.94492 0.0449219 8.74053C0.0449219 13.5361 3.89396 17.4421 8.66447 17.4421C13.435 17.4421 17.284 13.5361 17.284 8.74053C17.284 6.43617 16.3785 4.22407 14.7632 2.59141C13.1475 0.958396 10.954 0.0390015 8.66447 0.0390015ZM2.04492 8.74053C2.04492 5.02926 5.01866 2.039 8.66447 2.039C10.4166 2.039 12.0992 2.74242 13.3414 3.99804C14.584 5.25402 15.284 6.95974 15.284 8.74053C15.284 12.4518 12.3103 15.4421 8.66447 15.4421C5.01866 15.4421 2.04492 12.4518 2.04492 8.74053ZM17.079 15.6705C16.6884 15.28 16.0553 15.28 15.6648 15.6705C15.2742 16.0611 15.2742 16.6942 15.6648 17.0848L18.2481 19.6681C18.6386 20.0586 19.2718 20.0586 19.6623 19.6681C20.0528 19.2776 20.0528 18.6444 19.6623 18.2539L17.079 15.6705Z" fill="#CCCCCC"/>
</svg>
