<svg width="20" height="20" viewBox="0 0 20 20" fill="none" xmlns="http://www.w3.org/2000/svg">
<path fill-rule="evenodd" clip-rule="evenodd" d="M8.66447 0.0390625C3.89396 0.0390625 0.0449219 3.94499 0.0449219 8.74059C0.0449219 13.5362 3.89396 17.4421 8.66447 17.4421C13.435 17.4421 17.284 13.5362 17.284 8.74059C17.284 6.43623 16.3785 4.22413 14.7632 2.59147C13.1475 0.958457 10.954 0.0390625 8.66447 0.0390625ZM2.04492 8.74059C2.04492 5.02932 5.01866 2.03906 8.66447 2.03906C10.4166 2.03906 12.0992 2.74249 13.3414 3.9981C14.584 5.25408 15.284 6.9598 15.284 8.74059C15.284 12.4519 12.3103 15.4421 8.66447 15.4421C5.01866 15.4421 2.04492 12.4519 2.04492 8.74059ZM17.079 15.6706C16.6884 15.2801 16.0553 15.2801 15.6648 15.6706C15.2742 16.0611 15.2742 16.6943 15.6648 17.0848L18.2481 19.6682C18.6386 20.0587 19.2718 20.0587 19.6623 19.6682C20.0528 19.2776 20.0528 18.6445 19.6623 18.254L17.079 15.6706Z" fill="white"/>
</svg>
