<svg width="36" height="35" viewBox="0 0 36 35" fill="none" xmlns="http://www.w3.org/2000/svg">
<path d="M24.3921 12.0654H22.789C22.4404 12.0654 22.1089 12.2329 21.9038 12.52L16.5307 19.9712L14.0971 16.5942C13.892 16.3105 13.5639 16.1396 13.2119 16.1396H11.6088C11.3867 16.1396 11.2568 16.3926 11.3867 16.5737L15.6455 22.48C15.7461 22.6204 15.8787 22.7348 16.0324 22.8138C16.186 22.8927 16.3563 22.9339 16.529 22.9339C16.7018 22.9339 16.872 22.8927 17.0257 22.8138C17.1793 22.7348 17.312 22.6204 17.4126 22.48L24.6108 12.4995C24.7441 12.3184 24.6142 12.0654 24.3921 12.0654Z" fill="#1F8BA7"/>
<path d="M18 2.1875C9.54395 2.1875 2.6875 9.04395 2.6875 17.5C2.6875 25.9561 9.54395 32.8125 18 32.8125C26.4561 32.8125 33.3125 25.9561 33.3125 17.5C33.3125 9.04395 26.4561 2.1875 18 2.1875ZM18 30.2148C10.9795 30.2148 5.28516 24.5205 5.28516 17.5C5.28516 10.4795 10.9795 4.78516 18 4.78516C25.0205 4.78516 30.7148 10.4795 30.7148 17.5C30.7148 24.5205 25.0205 30.2148 18 30.2148Z" fill="#1F8BA7"/>
</svg>
