<svg width="22" height="23" viewBox="0 0 22 23" fill="none" xmlns="http://www.w3.org/2000/svg">
<path d="M13.0545 3.82372C13.0545 3.27881 12.8381 2.75622 12.4528 2.37091C12.0675 1.9856 11.5449 1.76913 11 1.76913C10.455 1.76913 9.93246 1.9856 9.54715 2.37091C9.16184 2.75622 8.94538 3.27881 8.94538 3.82372H7.57565C7.57565 2.91553 7.93643 2.04455 8.57861 1.40237C9.22079 0.760188 10.0918 0.399414 11 0.399414C11.9081 0.399414 12.7791 0.760188 13.4213 1.40237C14.0635 2.04455 14.4243 2.91553 14.4243 3.82372H20.588C20.7696 3.82372 20.9438 3.89587 21.0723 4.02431C21.2007 4.15274 21.2729 4.32694 21.2729 4.50858C21.2729 4.69021 21.2007 4.86441 21.0723 4.99285C20.9438 5.12128 20.7696 5.19344 20.588 5.19344H19.8292L18.054 20.5754C17.9767 21.243 17.6567 21.8589 17.1549 22.3059C16.6531 22.7529 16.0044 22.9999 15.3324 22.9998H6.66753C5.99547 22.9999 5.34683 22.7529 4.845 22.3059C4.34318 21.8589 4.02318 21.243 3.94589 20.5754L2.16937 5.19344H1.41191C1.25162 5.19349 1.09639 5.13732 0.973246 5.0347C0.850106 4.93208 0.766861 4.78953 0.738008 4.63185L0.727051 4.50858C0.727051 4.32694 0.799206 4.15274 0.927642 4.02431C1.05608 3.89587 1.23027 3.82372 1.41191 3.82372H13.0545ZM18.4485 5.19344H3.55005L5.30603 20.4179C5.34468 20.7518 5.50478 21.0598 5.75584 21.2834C6.0069 21.5069 6.33138 21.6303 6.66753 21.6301H15.3324C15.6683 21.63 15.9924 21.5064 16.2432 21.2829C16.494 21.0594 16.6539 20.7516 16.6925 20.4179L18.4485 5.19344ZM8.94538 8.61774C9.28096 8.61774 9.56175 8.83005 9.61928 9.10947L9.63024 9.21768V17.6072C9.63024 17.9373 9.32342 18.2058 8.94538 18.2058C8.60979 18.2058 8.329 17.9935 8.27147 17.7141L8.26051 17.6058V9.21905C8.26051 8.88757 8.56733 8.61911 8.94538 8.61911V8.61774ZM13.0545 8.61774C13.3901 8.61774 13.6709 8.83005 13.7284 9.10947L13.7394 9.21768V17.6072C13.7394 17.9373 13.4326 18.2058 13.0545 18.2058C12.719 18.2058 12.4382 17.9935 12.3806 17.7141L12.3697 17.6058V9.21905C12.3697 8.88757 12.6765 8.61911 13.0545 8.61911V8.61774Z" fill="#4BCCED"/>
</svg>
